STARTFONT 2.1
COMMENT
COMMENT Converted from OpenType font "Q:\font stuff\winfont\Zero Threes.ttf" by "otf2bdf 3.0".
COMMENT
FONT -FreeType-Zero Threes-Medium-R-Normal--84-840-72-72-P-135-ISO10646-1
SIZE 84 72 72
FONTBOUNDINGBOX 94 108 -2 -32
STARTPROPERTIES 19
FOUNDRY "FreeType"
FAMILY_NAME "Zero Threes"
WEIGHT_NAME "Medium"
SLANT "R"
SETWIDTH_NAME "Normal"
ADD_STYLE_NAME ""
PIXEL_SIZE 64
POINT_SIZE 840
RESOLUTION_X 72
RESOLUTION_Y 72
SPACING "P"
AVERAGE_WIDTH 135
CHARSET_REGISTRY "ISO10646"
CHARSET_ENCODING "1"
FONT_ASCENT 76
FONT_DESCENT 16
COPYRIGHT "(C) 1999 Ray Larabie - rlarabie@hotmail.com"
_OTF_FONTFILE "Q:\font stuff\winfont\Zero Threes.ttf"
_OTF_PSNAME "ZeroThrees"
ENDPROPERTIES
CHARS 513
STARTCHAR 0020
ENCODING 32
SWIDTH 285 0
DWIDTH 24 0
BBX 0 0 0 0
BITMAP
ENDCHAR
STARTCHAR 0021
ENCODING 33
SWIDTH 250 0
DWIDTH 21 0
BBX 13 66 4 -2
BITMAP
3FF0
3FF0
3FF0
3FF0
3FF0
3FF0
3FF0
3FF0
3FF0
3FF0
3FF0
3FF0
3FF0
3FF0
3FF0
3FF0
3FF0
3FF0
3FF0
3FF0
3FF0
3FF0
3FF0
3FF0
3FF0
3FF0
3FF0
3FF0
3FF0
3FF0
3FF0
3FE0
3FE0
3FE0
3FE0
1FE0
1FE0
1FE0
1FE0
1FE0
1FC0
1FC0
1FC0
0FC0
0FC0
0FC0
0FC0
0FC0
0F80
0000
0000
0000
0F80
3FC0
7FE0
7FF0
FFF0
FFF8
FFF8
FFF8
FFF8
FFF0
7FF0
7FE0
3FC0
0F80
ENDCHAR
STARTCHAR 0022
ENCODING 34
SWIDTH 333 0
DWIDTH 28 0
BBX 24 20 2 47
BITMAP
FFC1FF
FFC1FF
FFC1FF
FF81FF
FF81FF
FF81FF
7F81FF
7F81FF
7F81FF
7F81FE
7F81FE
7F01FE
7F01FE
7F00FE
7F00FE
7F00FE
7F00FE
7F00FC
7F00FC
7E00FC
ENDCHAR
STARTCHAR 0023
ENCODING 35
SWIDTH 654 0
DWIDTH 55 0
BBX 49 49 3 0
BITMAP
003FF007FE0000
003FF007FE0000
003FF007FE0000
003FF007FE0000
003FF007FE0000
003FF007FE0000
003FF007FE0000
003FF007FE0000
003FF007FE0000
003FF007FE0000
FFFFFFFFFFFF80
FFFFFFFFFFFF80
FFFFFFFFFFFF80
FFFFFFFFFFFF80
FFFFFFFFFFFF80
FFFFFFFFFFFF80
FFFFFFFFFFFF80
FFFFFFFFFFFF80
FFFFFFFFFFFF80
FFFFFFFFFFFF80
003FF007FE0000
003FF007FE0000
003FF007FE0000
003FF007FE0000
003FF007FE0000
003FF007FE0000
003FF007FE0000
003FF007FE0000
003FF007FE0000
FFFFFFFFFFFF80
FFFFFFFFFFFF80
FFFFFFFFFFFF80
FFFFFFFFFFFF80
FFFFFFFFFFFF80
FFFFFFFFFFFF80
FFFFFFFFFFFF80
FFFFFFFFFFFF80
FFFFFFFFFFFF80
FFFFFFFFFFFF80
003FF007FE0000
003FF007FE0000
003FF007FE0000
003FF007FE0000
003FF007FE0000
003FF007FE0000
003FF007FE0000
003FF007FE0000
003FF007FE0000
003FF007FE0000
ENDCHAR
STARTCHAR 0024
ENCODING 36
SWIDTH 571 0
DWIDTH 48 0
BBX 42 69 3 -2
BITMAP
00003E000000
00003E000000
00003E000000
00003E000000
00003E000000
00003E000000
00003E000000
00003E000000
00003E000000
00003E000000
01FFFFFFFC00
07FFFFFFFC00
1FFFFFFFFC00
3FFFFFFFFC00
3FFFFFFFFC00
7FFFFFFFFC00
7FFFFFFFFC00
FFFFFFFFFC00
FFFFFFFFFC00
FFFFFFFFFC00
FFC03E000000
FFC03E000000
FFC03E000000
FFC03E000000
FFC03E000000
FFC03E000000
FFC03E000000
FFC03E000000
FFC03E000000
FFC03E000000
FFFFFFFFF000
FFFFFFFFFC00
FFFFFFFFFE00
7FFFFFFFFF00
7FFFFFFFFF80
7FFFFFFFFF80
3FFFFFFFFFC0
1FFFFFFFFFC0
0FFFFFFFFFC0
01FFFFFFFFC0
00003E00FFC0
00003E00FFC0
00003E00FFC0
00003E00FFC0
00003E00FFC0
00003E00FFC0
00003E00FFC0
00003E00FFC0
00003E00FFC0
1FFFFFFFFFC0
1FFFFFFFFFC0
1FFFFFFFFFC0
1FFFFFFFFFC0
1FFFFFFFFF80
1FFFFFFFFF80
1FFFFFFFFF00
1FFFFFFFFE00
1FFFFFFFFC00
1FFFFFFFF000
00003E000000
00003E000000
00003E000000
00003E000000
00003E000000
00003E000000
00003E000000
00003E000000
00003E000000
00003E000000
ENDCHAR
STARTCHAR 0025
ENCODING 37
SWIDTH 666 0
DWIDTH 56 0
BBX 53 33 2 15
BITMAP
03F000000FFC00
0FFC00001FF800
1FFE00001FF000
3FFF00003FE000
7FFF80007FC000
7FFFC000FF8000
FFFFC001FF0000
FF1FC003FE0000
FE0FE007FC0000
FC07E00FF80000
FC07E01FF00000
FE0FE03FE00000
FF1FC07FC00000
FFFFC0FF80FC00
7FFFC1FF83FF00
7FFF83FF07FF80
3FFF07FE0FFFC0
1FFF0FFC1FFFE0
0FFC1FF81FFFF0
03F03FF03FFFF0
00007FE03F87F0
00007FC03F03F8
0000FF803F01F8
0001FF003F01F8
0003FE003F03F8
0007FC003F87F0
000FF8003FFFF0
001FF0001FFFF0
003FE0001FFFE0
007FC0000FFFC0
00FF800007FFC0
01FF000003FF00
03FE000000FC00
ENDCHAR
STARTCHAR 0026
ENCODING 38
SWIDTH 690 0
DWIDTH 58 0
BBX 54 64 2 0
BITMAP
01FFFFFFE00000
07FFFFFFE00000
1FFFFFFFE00000
3FFFFFFFE00000
3FFFFFFFE00000
7FFFFFFFE00000
7FFFFFFFE00000
7FFFFFFFE00000
FFFFFFFFE00000
FFFFFFFFE00000
FFC00000000000
FFC00000000000
FFC00000000000
FFC00000000000
FFC00000000000
FFC0000001FF80
FFC0000001FF80
FFC0000001FF80
FFC0000001FF80
FFC0000001FF80
FFFFFFFFFFFFFC
FFFFFFFFFFFFFC
FFFFFFFFFFFFFC
FFFFFFFFFFFFFC
FFFFFFFFFFFFFC
FFFFFFFFFFFFFC
FFFFFFFFFFFFFC
FFFFFFFFFFFFFC
FFFFFFFFFFFFFC
FFFFFFFFFFFFFC
FFC0000001FF80
FFC0000001FF80
FFC0000001FF80
FFC0000001FF80
FFC0000001FF80
FFC0000001FF80
FFC0000001FF80
FFC0000001FF80
FFC0000001FF80
FFC0000001FF80
FFC0000001FF80
FFC0000001FF80
FFC0000001FF80
FFC0000001FF80
FFC0000001FF80
FFC0000001FF80
FFC0000001FF80
FFC0000001FF80
FFC0000001FF80
FFC0000001FF80
FFC0000001FF80
FFC0000001FF80
FFC0000001FF80
FFC0000001FF80
FFFFFFFFFFFF80
7FFFFFFFFFFF80
7FFFFFFFFFFF80
7FFFFFFFFFFF80
7FFFFFFFFFFF00
3FFFFFFFFFFF00
1FFFFFFFFFFE00
0FFFFFFFFFFC00
07FFFFFFFFF800
01FFFFFFFFE000
ENDCHAR
STARTCHAR 0027
ENCODING 39
SWIDTH 166 0
DWIDTH 14 0
BBX 14 20 0 47
BITMAP
07C0
1FF0
3FF8
7FFC
7FFC
FFFC
FFFC
FFFC
FFFC
7FFC
7FFC
3FF8
1FF8
07F0
07F0
0FE0
1F80
3F00
3C00
3000
ENDCHAR
STARTCHAR 0028
ENCODING 40
SWIDTH 226 0
DWIDTH 19 0
BBX 17 79 1 -14
BITMAP
01FF80
01FF80
01FF00
03FF00
03FF00
03FF00
07FE00
07FE00
07FE00
07FC00
0FFC00
0FFC00
0FFC00
0FF800
1FF800
1FF800
1FF800
1FF800
3FF000
3FF000
3FF000
3FF000
3FF000
7FE000
7FE000
7FE000
7FE000
7FE000
7FE000
7FE000
7FE000
FFE000
FFC000
FFC000
FFC000
FFC000
FFC000
FFC000
FFC000
FFC000
FFC000
FFC000
FFC000
FFC000
FFC000
FFC000
FFC000
7FC000
7FE000
7FE000
7FE000
7FE000
7FE000
7FE000
7FE000
7FE000
3FF000
3FF000
3FF000
3FF000
3FF000
1FF000
1FF800
1FF800
1FF800
1FF800
0FFC00
0FFC00
0FFC00
07FC00
07FE00
07FE00
07FE00
03FE00
03FF00
03FF00
01FF00
01FF80
01FF80
ENDCHAR
STARTCHAR 0029
ENCODING 41
SWIDTH 297 0
DWIDTH 25 0
BBX 17 79 4 -14
BITMAP
FF8000
FFC000
FFC000
7FC000
7FE000
7FE000
7FE000
3FF000
3FF000
3FF000
1FF000
1FF800
1FF800
1FF800
0FF800
0FFC00
0FFC00
0FFC00
0FFC00
07FC00
07FE00
07FE00
07FE00
07FE00
07FE00
03FE00
03FF00
03FF00
03FF00
03FF00
03FF00
03FF00
03FF00
03FF00
03FF00
03FF00
03FF00
03FF00
01FF80
01FF80
01FF80
03FF80
03FF00
03FF00
03FF00
03FF00
03FF00
03FF00
03FF00
03FF00
03FF00
03FF00
03FF00
03FE00
07FE00
07FE00
07FE00
07FE00
07FE00
07FC00
0FFC00
0FFC00
0FFC00
0FFC00
1FF800
1FF800
1FF800
1FF800
1FF000
3FF000
3FF000
3FF000
7FE000
7FE000
7FE000
7FC000
FFC000
FFC000
FF8000
ENDCHAR
STARTCHAR 002A
ENCODING 42
SWIDTH 333 0
DWIDTH 28 0
BBX 23 24 3 16
BITMAP
007E00
007E00
007E00
007E00
187E18
3C7E78
7F7EFC
7FFFFE
FFFFFE
7FFFFC
1FFFF0
07FFC0
07FFC0
1FFFF0
3FFFFC
FFFFFE
7FFFFE
7FFEFC
3E7E7C
187E18
007E00
007E00
007E00
007E00
ENDCHAR
STARTCHAR 002B
ENCODING 43
SWIDTH 404 0
DWIDTH 34 0
BBX 29 30 3 19
BITMAP
007FE000
007FE000
007FE000
007FE000
007FE000
007FE000
007FE000
007FE000
007FE000
007FE000
FFFFFFF8
FFFFFFF8
FFFFFFF8
FFFFFFF8
FFFFFFF8
FFFFFFF8
FFFFFFF8
FFFFFFF8
FFFFFFF8
FFFFFFF8
007FE000
007FE000
007FE000
007FE000
007FE000
007FE000
007FE000
007FE000
007FE000
007FE000
ENDCHAR
STARTCHAR 002C
ENCODING 44
SWIDTH 214 0
DWIDTH 18 0
BBX 14 20 2 -8
BITMAP
07C0
1FF0
3FF8
7FFC
7FFC
FFFC
FFFC
FFFC
FFFC
7FFC
7FFC
3FFC
1FF8
07F8
07F0
0FE0
1FC0
3F00
3C00
3000
ENDCHAR
STARTCHAR 002D
ENCODING 45
SWIDTH 404 0
DWIDTH 34 0
BBX 29 10 3 29
BITMAP
FFFFFFF8
FFFFFFF8
FFFFFFF8
FFFFFFF8
FFFFFFF8
FFFFFFF8
FFFFFFF8
FFFFFFF8
FFFFFFF8
FFFFFFF8
ENDCHAR
STARTCHAR 002E
ENCODING 46
SWIDTH 214 0
DWIDTH 18 0
BBX 13 14 2 -2
BITMAP
0F80
1FE0
3FF0
7FF0
7FF8
FFF8
FFF8
FFF8
FFF8
7FF8
7FF0
3FF0
1FE0
0F80
ENDCHAR
STARTCHAR 002F
ENCODING 47
SWIDTH 500 0
DWIDTH 42 0
BBX 39 64 3 0
BITMAP
00000001FE
00000003FC
00000003FC
00000007F8
00000007F8
0000000FF0
0000000FF0
0000001FE0
0000001FE0
0000003FC0
0000003FC0
0000007F80
0000007F80
000000FF00
000000FF00
000001FE00
000001FE00
000003FC00
000003FC00
000007F800
000007F800
00000FF000
00000FF000
00001FE000
00001FE000
00003FC000
00003FC000
00007F8000
00007F8000
00007F0000
0000FF0000
0000FE0000
0001FE0000
0001FC0000
0003FC0000
0003F80000
0007F80000
0007F00000
000FF00000
000FE00000
001FE00000
001FC00000
003FC00000
003F800000
007F800000
007F000000
00FF000000
00FE000000
01FE000000
01FC000000
03FC000000
03F8000000
07F8000000
07F0000000
0FF0000000
0FE0000000
1FE0000000
1FC0000000
3FC0000000
3F80000000
7F80000000
7F00000000
FF00000000
FE00000000
ENDCHAR
STARTCHAR 0030
ENCODING 48
SWIDTH 666 0
DWIDTH 56 0
BBX 49 64 3 0
BITMAP
01FFFFFFFFE000
07FFFFFFFFF800
0FFFFFFFFFFC00
1FFFFFFFFFFE00
3FFFFFFFFFFF00
7FFFFFFFFFFF00
7FFFFFFFFFFF80
7FFFFFFFFFFF80
7FFFFFFFFFFF80
FFFFFFFFFFFF80
FFC0000001FF80
FFC0000001FF80
FFC0000001FF80
FFC0000001FF80
FFC0000001FF80
FFC0000001FF80
FFC0000001FF80
FFC0000001FF80
FFC0000001FF80
FFC0000001FF80
FFC0000001FF80
FFC0000001FF80
FFC0000001FF80
FFC0000001FF80
FFC0000001FF80
FFC0000001FF80
FFC0000001FF80
FFC0000001FF80
FFC0000001FF80
FFC0000001FF80
FFC0000001FF80
FFC0000001FF80
FFC0000001FF80
FFC0000001FF80
FFC0000001FF80
FFC0000001FF80
FFC0000001FF80
FFC0000001FF80
FFC0000001FF80
FFC0000001FF80
FFC0000001FF80
FFC0000001FF80
FFC0000001FF80
FFC0000001FF80
FFC0000001FF80
FFC0000001FF80
FFC0000001FF80
FFC0000001FF80
FFC0000001FF80
FFC0000001FF80
FFC0000001FF80
FFC0000001FF80
FFC0000001FF80
FFC0000001FF80
FFFFFFFFFFFF80
7FFFFFFFFFFF80
7FFFFFFFFFFF80
7FFFFFFFFFFF80
7FFFFFFFFFFF80
3FFFFFFFFFFF00
3FFFFFFFFFFF00
1FFFFFFFFFFE00
0FFFFFFFFFFC00
01FFFFFFFFE000
ENDCHAR
STARTCHAR 0031
ENCODING 49
SWIDTH 416 0
DWIDTH 35 0
BBX 29 64 3 0
BITMAP
FFFFF000
FFFFF000
FFFFF000
FFFFF000
FFFFF000
FFFFF000
FFFFF000
FFFFF000
FFFFF000
FFFFF000
003FF000
003FF000
003FF000
003FF000
003FF000
003FF000
003FF000
003FF000
003FF000
003FF000
003FF000
003FF000
003FF000
003FF000
003FF000
003FF000
003FF000
003FF000
003FF000
003FF000
003FF000
003FF000
003FF000
003FF000
003FF000
003FF000
003FF000
003FF000
003FF000
003FF000
003FF000
003FF000
003FF000
003FF000
003FF000
003FF000
003FF000
003FF000
003FF000
003FF000
003FF000
003FF000
003FF000
003FF000
FFFFFFF8
FFFFFFF8
FFFFFFF8
FFFFFFF8
FFFFFFF8
FFFFFFF8
FFFFFFF8
FFFFFFF8
FFFFFFF8
FFFFFFF8
ENDCHAR
STARTCHAR 0032
ENCODING 50
SWIDTH 666 0
DWIDTH 56 0
BBX 49 64 3 0
BITMAP
FFFFFFFFFFE000
FFFFFFFFFFF800
FFFFFFFFFFFE00
FFFFFFFFFFFE00
FFFFFFFFFFFF00
FFFFFFFFFFFF80
FFFFFFFFFFFF80
FFFFFFFFFFFF80
FFFFFFFFFFFF80
FFFFFFFFFFFF80
0000000001FF80
0000000001FF80
0000000001FF80
0000000001FF80
0000000001FF80
0000000001FF80
0000000001FF80
0000000001FF80
0000000001FF80
0000000001FF80
0000000001FF80
0000000001FF80
0000000001FF80
0000000001FF80
0000000001FF80
01FFFFFFFFFF80
07FFFFFFFFFF80
0FFFFFFFFFFF80
1FFFFFFFFFFF80
3FFFFFFFFFFF00
7FFFFFFFFFFF00
7FFFFFFFFFFE00
7FFFFFFFFFFC00
7FFFFFFFFFF800
FFFFFFFFFFE000
FFC00000000000
FFC00000000000
FFC00000000000
FFC00000000000
FFC00000000000
FFC00000000000
FFC00000000000
FFC00000000000
FFC00000000000
FFC00000000000
FFC00000000000
FFC00000000000
FFC00000000000
FFC00000000000
FFC00000000000
FFC00000000000
FFC00000000000
FFC00000000000
FFC00000000000
FFFFFFFFFFFF80
FFFFFFFFFFFF80
FFFFFFFFFFFF80
FFFFFFFFFFFF80
FFFFFFFFFFFF80
FFFFFFFFFFFF80
FFFFFFFFFFFF80
FFFFFFFFFFFF80
FFFFFFFFFFFF80
FFFFFFFFFFFF80
ENDCHAR
STARTCHAR 0033
ENCODING 51
SWIDTH 666 0
DWIDTH 56 0
BBX 49 64 4 0
BITMAP
FFFFFFFFFFC000
FFFFFFFFFFF000
FFFFFFFFFFF800
FFFFFFFFFFFC00
FFFFFFFFFFFE00
FFFFFFFFFFFF00
FFFFFFFFFFFF00
FFFFFFFFFFFF00
FFFFFFFFFFFF80
FFFFFFFFFFFF80
0000000001FF80
0000000001FF80
0000000001FF80
0000000001FF80
0000000001FF80
0000000001FF80
0000000001FF80
0000000001FF80
0000000001FF80
0000000001FF80
0000000001FF80
0000000001FF80
0000000001FF80
0000000001FF80
0000000001FF80
7FFFFFFFFFFF00
7FFFFFFFFFFF00
7FFFFFFFFFFE00
7FFFFFFFFFFC00
7FFFFFFFFFF800
7FFFFFFFFFF000
7FFFFFFFFFFC00
7FFFFFFFFFFE00
7FFFFFFFFFFF00
7FFFFFFFFFFF00
0000000001FF80
0000000001FF80
0000000001FF80
0000000001FF80
0000000001FF80
0000000001FF80
0000000001FF80
0000000001FF80
0000000001FF80
0000000001FF80
0000000001FF80
0000000001FF80
0000000001FF80
0000000001FF80
0000000001FF80
0000000001FF80
0000000001FF80
0000000001FF80
0000000001FF80
FFFFFFFFFFFF80
FFFFFFFFFFFF80
FFFFFFFFFFFF80
FFFFFFFFFFFF00
FFFFFFFFFFFF00
FFFFFFFFFFFF00
FFFFFFFFFFFE00
FFFFFFFFFFFC00
FFFFFFFFFFF800
FFFFFFFFFFE000
ENDCHAR
STARTCHAR 0034
ENCODING 52
SWIDTH 714 0
DWIDTH 60 0
BBX 55 64 2 0
BITMAP
FFC0000001FF80
FFC0000001FF80
FFC0000001FF80
FFC0000001FF80
FFC0000001FF80
FFC0000001FF80
FFC0000001FF80
FFC0000001FF80
FFC0000001FF80
FFC0000001FF80
FFC0000001FF80
FFC0000001FF80
FFC0000001FF80
FFC0000001FF80
FFC0000001FF80
FFC0000001FF80
FFC0000001FF80
FFC0000001FF80
FFC0000001FF80
FFC0000001FF80
FFC0000001FF80
FFC0000001FF80
FFC0000001FF80
FFC0000001FF80
FFC0000001FF80
FFC0000001FF80
FFC0000001FF80
FFC0000001FF80
FFC0000001FF80
FFC0000001FF80
FFC0000001FF80
FFC0000001FF80
FFC0000001FF80
FFC0000001FF80
FFFFFFFFFFFFFE
FFFFFFFFFFFFFE
FFFFFFFFFFFFFE
FFFFFFFFFFFFFE
FFFFFFFFFFFFFE
FFFFFFFFFFFFFE
FFFFFFFFFFFFFE
FFFFFFFFFFFFFE
FFFFFFFFFFFFFE
FFFFFFFFFFFFFE
0000000001FF80
0000000001FF80
0000000001FF80
0000000001FF80
0000000001FF80
0000000001FF80
0000000001FF80
0000000001FF80
0000000001FF80
0000000001FF80
0000000001FF80
0000000001FF80
0000000001FF80
0000000001FF80
0000000001FF80
0000000001FF80
0000000001FF80
0000000001FF80
0000000001FF80
0000000001FF80
ENDCHAR
STARTCHAR 0035
ENCODING 53
SWIDTH 690 0
DWIDTH 58 0
BBX 49 64 4 0
BITMAP
FFFFFFFFFFFF80
FFFFFFFFFFFF80
FFFFFFFFFFFF80
FFFFFFFFFFFF80
FFFFFFFFFFFF80
FFFFFFFFFFFF80
FFFFFFFFFFFF80
FFFFFFFFFFFF80
FFFFFFFFFFFF80
FFFFFFFFFFFF80
FFC00000000000
FFC00000000000
FFC00000000000
FFC00000000000
FFC00000000000
FFC00000000000
FFC00000000000
FFC00000000000
FFC00000000000
FFC00000000000
FFC00000000000
FFC00000000000
FFC00000000000
FFC00000000000
FFC00000000000
FFFFFFFFFFC000
FFFFFFFFFFF000
FFFFFFFFFFFC00
FFFFFFFFFFFE00
FFFFFFFFFFFE00
FFFFFFFFFFFF00
FFFFFFFFFFFF80
FFFFFFFFFFFF80
FFFFFFFFFFFF80
FFFFFFFFFFFF80
0000000001FF80
0000000001FF80
0000000001FF80
0000000001FF80
0000000001FF80
0000000001FF80
0000000001FF80
0000000001FF80
0000000001FF80
0000000001FF80
0000000001FF80
0000000001FF80
0000000001FF80
0000000001FF80
0000000001FF80
0000000001FF80
0000000001FF80
0000000001FF80
0000000001FF80
FFFFFFFFFFFF80
FFFFFFFFFFFF80
FFFFFFFFFFFF80
FFFFFFFFFFFF80
FFFFFFFFFFFF00
FFFFFFFFFFFF00
FFFFFFFFFFFE00
FFFFFFFFFFFC00
FFFFFFFFFFF800
FFFFFFFFFFE000
ENDCHAR
STARTCHAR 0036
ENCODING 54
SWIDTH 690 0
DWIDTH 58 0
BBX 49 64 4 0
BITMAP
01FFFFFFFFFC00
07FFFFFFFFFC00
1FFFFFFFFFFC00
1FFFFFFFFFFC00
3FFFFFFFFFFC00
7FFFFFFFFFFC00
7FFFFFFFFFFC00
FFFFFFFFFFFC00
FFFFFFFFFFFC00
FFFFFFFFFFFC00
FFC00000000000
FFC00000000000
FFC00000000000
FFC00000000000
FFC00000000000
FFC00000000000
FFC00000000000
FFC00000000000
FFC00000000000
FFC00000000000
FFC00000000000
FFC00000000000
FFC00000000000
FFC00000000000
FFC00000000000
FFFFFFFFFFC000
FFFFFFFFFFF000
FFFFFFFFFFFC00
FFFFFFFFFFFE00
FFFFFFFFFFFE00
FFFFFFFFFFFF00
FFFFFFFFFFFF80
FFFFFFFFFFFF80
FFFFFFFFFFFF80
FFFFFFFFFFFF80
FFC0000001FF80
FFC0000001FF80
FFC0000001FF80
FFC0000001FF80
FFC0000001FF80
FFC0000001FF80
FFC0000001FF80
FFC0000001FF80
FFC0000001FF80
FFC0000001FF80
FFC0000001FF80
FFC0000001FF80
FFC0000001FF80
FFC0000001FF80
FFC0000001FF80
FFC0000001FF80
FFC0000001FF80
FFC0000001FF80
FFC0000001FF80
FFFFFFFFFFFF80
FFFFFFFFFFFF80
FFFFFFFFFFFF80
7FFFFFFFFFFF80
7FFFFFFFFFFF00
3FFFFFFFFFFF00
3FFFFFFFFFFE00
1FFFFFFFFFFC00
07FFFFFFFFF800
01FFFFFFFFE000
ENDCHAR
STARTCHAR 0037
ENCODING 55
SWIDTH 666 0
DWIDTH 56 0
BBX 49 64 3 0
BITMAP
FFFFFFFFFFFF80
FFFFFFFFFFFF80
FFFFFFFFFFFF80
FFFFFFFFFFFF80
FFFFFFFFFFFF80
FFFFFFFFFFFF80
FFFFFFFFFFFF80
FFFFFFFFFFFF80
FFFFFFFFFFFF80
FFFFFFFFFFFF80
0000000003FF80
0000000007FF00
000000000FFE00
000000000FFE00
000000001FFC00
000000001FFC00
000000003FF800
000000007FF000
000000007FF000
00000000FFE000
00000001FFE000
00000001FFC000
00000003FF8000
00000003FF8000
00000007FF0000
0000000FFF0000
0000000FFE0000
0000001FFC0000
0000003FFC0000
0000003FF80000
0000007FF00000
0000007FF00000
000000FFE00000
000001FFE00000
000001FFC00000
000003FF800000
000007FF800000
000007FF000000
00000FFF000000
00000FFE000000
00001FFC000000
00003FFC000000
00003FF8000000
00007FF8000000
0000FFF0000000
0000FFE0000000
0001FFE0000000
0001FFC0000000
0003FFC0000000
0007FF80000000
0007FF00000000
000FFF00000000
001FFE00000000
001FFC00000000
003FFC00000000
003FF800000000
007FF800000000
00FFF000000000
00FFE000000000
01FFE000000000
03FFC000000000
03FFC000000000
07FF8000000000
07FF0000000000
ENDCHAR
STARTCHAR 0038
ENCODING 56
SWIDTH 666 0
DWIDTH 56 0
BBX 49 64 4 0
BITMAP
03FFFFFFFFC000
0FFFFFFFFFF000
1FFFFFFFFFF800
3FFFFFFFFFFC00
7FFFFFFFFFFE00
7FFFFFFFFFFF00
FFFFFFFFFFFF00
FFFFFFFFFFFF00
FFFFFFFFFFFF80
FFFFFFFFFFFF80
FFC0000001FF80
FFC0000001FF80
FFC0000001FF80
FFC0000001FF80
FFC0000001FF80
FFC0000001FF80
FFC0000001FF80
FFC0000001FF80
FFC0000001FF80
FFC0000001FF80
FFC0000001FF80
FFC0000001FF80
FFC0000001FF80
FFC0000001FF80
FFC0000001FF80
FFFFFFFFFFFF00
7FFFFFFFFFFF00
7FFFFFFFFFFE00
3FFFFFFFFFFC00
1FFFFFFFFFF800
0FFFFFFFFFF000
1FFFFFFFFFFC00
3FFFFFFFFFFE00
7FFFFFFFFFFF00
FFFFFFFFFFFF00
FFC0000001FF80
FFC0000001FF80
FFC0000001FF80
FFC0000001FF80
FFC0000001FF80
FFC0000001FF80
FFC0000001FF80
FFC0000001FF80
FFC0000001FF80
FFC0000001FF80
FFC0000001FF80
FFC0000001FF80
FFC0000001FF80
FFC0000001FF80
FFC0000001FF80
FFC0000001FF80
FFC0000001FF80
FFC0000001FF80
FFC0000001FF80
FFFFFFFFFFFF80
FFFFFFFFFFFF80
FFFFFFFFFFFF80
FFFFFFFFFFFF00
FFFFFFFFFFFF00
7FFFFFFFFFFF00
7FFFFFFFFFFE00
3FFFFFFFFFFC00
0FFFFFFFFFF800
03FFFFFFFFE000
ENDCHAR
STARTCHAR 0039
ENCODING 57
SWIDTH 666 0
DWIDTH 56 0
BBX 49 64 4 0
BITMAP
03FFFFFFFFC000
0FFFFFFFFFF000
3FFFFFFFFFF800
7FFFFFFFFFFC00
7FFFFFFFFFFE00
FFFFFFFFFFFF00
FFFFFFFFFFFF00
FFFFFFFFFFFF00
FFFFFFFFFFFF00
FFFFFFFFFFFF80
FFC0000001FF80
FFC0000001FF80
FFC0000001FF80
FFC0000001FF80
FFC0000001FF80
FFC0000001FF80
FFC0000001FF80
FFC0000001FF80
FFC0000001FF80
FFC0000001FF80
FFC0000001FF80
FFC0000001FF80
FFC0000001FF80
FFC0000001FF80
FFC0000001FF80
FFFFFFFFFFFF80
FFFFFFFFFFFF80
FFFFFFFFFFFF80
FFFFFFFFFFFF80
7FFFFFFFFFFF80
7FFFFFFFFFFF80
3FFFFFFFFFFF80
1FFFFFFFFFFF80
0FFFFFFFFFFF80
03FFFFFFFFFF80
0000000001FF80
0000000001FF80
0000000001FF80
0000000001FF80
0000000001FF80
0000000001FF80
0000000001FF80
0000000001FF80
0000000001FF80
0000000001FF80
0000000001FF80
0000000001FF80
0000000001FF80
0000000001FF80
0000000001FF80
0000000001FF80
0000000001FF80
0000000001FF80
0000000001FF80
FFFFFFFFFFFF80
FFFFFFFFFFFF00
FFFFFFFFFFFF00
FFFFFFFFFFFF00
FFFFFFFFFFFF00
FFFFFFFFFFFE00
FFFFFFFFFFFC00
FFFFFFFFFFF800
FFFFFFFFFFF000
FFFFFFFFFFC000
ENDCHAR
STARTCHAR 003A
ENCODING 58
SWIDTH 214 0
DWIDTH 18 0
BBX 13 43 2 -2
BITMAP
0F80
1FE0
3FF0
7FF0
7FF8
FFF8
FFF8
FFF8
FFF8
7FF8
7FF0
3FF0
1FE0
0F80
0000
0000
0000
0000
0000
0000
0000
0000
0000
0000
0000
0000
0000
0000
0000
0F80
1FE0
3FF0
7FF0
7FF8
FFF8
FFF8
FFF8
FFF8
7FF8
7FF0
3FF0
1FE0
0F80
ENDCHAR
STARTCHAR 003B
ENCODING 59
SWIDTH 214 0
DWIDTH 18 0
BBX 13 49 3 -8
BITMAP
0F80
1FE0
3FF0
7FF0
7FF8
FFF8
FFF8
FFF8
FFF8
7FF8
7FF0
3FF0
1FE0
0F80
0000
0000
0000
0000
0000
0000
0000
0000
0000
0000
0000
0000
0000
0000
0000
0FC0
1FE0
3FF0
7FF8
7FF8
FFF8
FFF8
FFF8
FFF8
7FF8
7FF8
7FF8
3FF0
0FE0
0FE0
1FC0
3F00
7E00
7800
6000
ENDCHAR
STARTCHAR 003C
ENCODING 60
SWIDTH 404 0
DWIDTH 34 0
BBX 27 41 3 13
BITMAP
00000800
00001C00
00003E00
00007F00
0000FF80
0001FFC0
0003FFE0
0007FFE0
000FFFC0
001FFF80
003FFF00
007FFE00
00FFFC00
01FFF800
03FFF000
07FFE000
0FFFC000
1FFF8000
3FFF0000
7FFE0000
FFFC0000
7FFE0000
3FFF0000
1FFF8000
0FFFC000
07FFE000
03FFF000
01FFF800
00FFFC00
007FFE00
003FFF00
001FFF80
000FFFC0
0007FFE0
0003FFE0
0001FFC0
0000FF80
00007F00
00003E00
00001C00
00000800
ENDCHAR
STARTCHAR 003D
ENCODING 61
SWIDTH 416 0
DWIDTH 35 0
BBX 29 26 3 20
BITMAP
FFFFFFF8
FFFFFFF8
FFFFFFF8
FFFFFFF8
FFFFFFF8
FFFFFFF8
FFFFFFF8
FFFFFFF8
FFFFFFF8
FFFFFFF8
00000000
00000000
00000000
00000000
00000000
00000000
FFFFFFF8
FFFFFFF8
FFFFFFF8
FFFFFFF8
FFFFFFF8
FFFFFFF8
FFFFFFF8
FFFFFFF8
FFFFFFF8
FFFFFFF8
ENDCHAR
STARTCHAR 003E
ENCODING 62
SWIDTH 404 0
DWIDTH 34 0
BBX 27 41 3 13
BITMAP
02000000
07000000
0F800000
1FC00000
3FE00000
7FF00000
FFF80000
7FFC0000
3FFE0000
1FFF0000
0FFF8000
07FFC000
03FFE000
01FFF000
00FFF800
007FFC00
003FFE00
001FFF00
000FFF80
0007FFC0
0003FFE0
0007FFC0
000FFF80
001FFF00
003FFE00
007FFC00
00FFF800
01FFF000
03FFE000
07FFC000
0FFF8000
1FFF0000
3FFE0000
7FFC0000
FFF80000
7FF00000
3FE00000
1FC00000
0F800000
07000000
02000000
ENDCHAR
STARTCHAR 003F
ENCODING 63
SWIDTH 511 0
DWIDTH 43 0
BBX 38 66 2 -2
BITMAP
FFFFFFFF00
FFFFFFFFC0
FFFFFFFFF0
FFFFFFFFF0
FFFFFFFFF8
FFFFFFFFFC
FFFFFFFFFC
FFFFFFFFFC
FFFFFFFFFC
FFFFFFFFFC
0000000FFC
0000000FFC
0000000FFC
0000000FFC
0000000FFC
0000000FFC
0000000FFC
0000000FFC
0000000FFC
0000000FFC
0003FFFFFC
000FFFFFFC
003FFFFFFC
003FFFFFFC
007FFFFFF8
00FFFFFFF8
00FFFFFFF0
00FFFFFFE0
01FFFFFFC0
01FFFFFF00
01FF800000
01FF800000
01FF800000
01FF800000
01FF800000
01FF800000
01FF800000
01FF800000
01FF800000
01FF800000
01FF800000
01FF800000
01FF800000
01FF800000
01FF800000
01FF800000
01FF800000
0000000000
0000000000
0000000000
0000000000
0000000000
00F8000000
01FE000000
03FF000000
07FF800000
07FF800000
07FF800000
0FFF800000
0FFF800000
07FF800000
07FF800000
07FF800000
03FF000000
01FE000000
00F8000000
ENDCHAR
STARTCHAR 0040
ENCODING 64
SWIDTH 428 0
DWIDTH 36 0
BBX 27 35 4 9
BITMAP
FFFFFFE0
FFFFFFE0
FFFFFFE0
FFFFFFE0
FFFFFFE0
FC0007E0
FC0007E0
FC0007E0
FC0007E0
FC0007E0
FDFFF7E0
FDFFF7E0
FDFFF7E0
FDFFF7E0
FDFFF7E0
FDFBF7E0
FDFBF7E0
FDFBF7E0
FDF807E0
FDF807E0
FDFFFFE0
FDFFFFE0
FDFFFFE0
FDFFFFE0
FDFFFFE0
FC000000
FC000000
FC000000
FC000000
FC000000
FFFFFFE0
FFFFFFE0
FFFFFFE0
FFFFFFE0
FFFFFFE0
ENDCHAR
STARTCHAR 0041
ENCODING 65
SWIDTH 666 0
DWIDTH 56 0
BBX 49 64 3 0
BITMAP
01FFFFFFFFC000
07FFFFFFFFF000
1FFFFFFFFFF800
3FFFFFFFFFFC00
3FFFFFFFFFFE00
7FFFFFFFFFFF00
7FFFFFFFFFFF00
7FFFFFFFFFFF80
FFFFFFFFFFFF80
FFFFFFFFFFFF80
FFC0000001FF80
FFC0000001FF80
FFC0000001FF80
FFC0000001FF80
FFC0000001FF80
FFC0000001FF80
FFC0000001FF80
FFC0000001FF80
FFC0000001FF80
FFC0000001FF80
FFC0000001FF80
FFC0000001FF80
FFC0000001FF80
FFC0000001FF80
FFC0000001FF80
FFFFFFFFFFFF80
FFFFFFFFFFFF80
FFFFFFFFFFFF80
FFFFFFFFFFFF80
FFFFFFFFFFFF80
FFFFFFFFFFFF80
FFFFFFFFFFFF80
FFFFFFFFFFFF80
FFFFFFFFFFFF80
FFFFFFFFFFFF80
FFC0000001FF80
FFC0000001FF80
FFC0000001FF80
FFC0000001FF80
FFC0000001FF80
FFC0000001FF80
FFC0000001FF80
FFC0000001FF80
FFC0000001FF80
FFC0000001FF80
FFC0000001FF80
FFC0000001FF80
FFC0000001FF80
FFC0000001FF80
FFC0000001FF80
FFC0000001FF80
FFC0000001FF80
FFC0000001FF80
FFC0000001FF80
FFC0000001FF80
FFC0000001FF80
FFC0000001FF80
FFC0000001FF80
FFC0000001FF80
FFC0000001FF80
FFC0000001FF80
FFC0000001FF80
FFC0000001FF80
FFC0000001FF80
ENDCHAR
STARTCHAR 0042
ENCODING 66
SWIDTH 666 0
DWIDTH 56 0
BBX 49 64 3 0
BITMAP
FFFFFFFFFFE000
FFFFFFFFFFF800
FFFFFFFFFFFC00
FFFFFFFFFFFE00
FFFFFFFFFFFF00
FFFFFFFFFFFF00
FFFFFFFFFFFF80
FFFFFFFFFFFF80
FFFFFFFFFFFF80
FFFFFFFFFFFF80
FFC0000001FF80
FFC0000001FF80
FFC0000001FF80
FFC0000001FF80
FFC0000001FF80
FFC0000001FF80
FFC0000001FF80
FFC0000001FF80
FFC0000001FF80
FFC0000001FF80
FFC0000001FF80
FFC0000001FF80
FFC0000001FF80
FFC0000001FF80
FFC0000001FF80
FFFFFFFFFFFF80
FFFFFFFFFFFF80
FFFFFFFFFFFF80
FFFFFFFFFFFF00
FFFFFFFFFFFE00
FFFFFFFFFFF800
FFFFFFFFFFFE00
FFFFFFFFFFFF00
FFFFFFFFFFFF80
FFFFFFFFFFFF80
FFC0000001FF80
FFC0000001FF80
FFC0000001FF80
FFC0000001FF80
FFC0000001FF80
FFC0000001FF80
FFC0000001FF80
FFC0000001FF80
FFC0000001FF80
FFC0000001FF80
FFC0000001FF80
FFC0000001FF80
FFC0000001FF80
FFC0000001FF80
FFC0000001FF80
FFC0000001FF80
FFC0000001FF80
FFC0000001FF80
FFC0000001FF80
FFFFFFFFFFFF80
FFFFFFFFFFFF80
FFFFFFFFFFFF80
FFFFFFFFFFFF80
FFFFFFFFFFFF80
FFFFFFFFFFFF00
FFFFFFFFFFFF00
FFFFFFFFFFFE00
FFFFFFFFFFFC00
FFFFFFFFFFE000
ENDCHAR
STARTCHAR 0043
ENCODING 67
SWIDTH 666 0
DWIDTH 56 0
BBX 47 64 4 0
BITMAP
01FFFFFFFFFE
07FFFFFFFFFE
1FFFFFFFFFFE
3FFFFFFFFFFE
3FFFFFFFFFFE
7FFFFFFFFFFE
7FFFFFFFFFFE
FFFFFFFFFFFE
FFFFFFFFFFFE
FFFFFFFFFFFE
FFC000000000
FFC000000000
FFC000000000
FFC000000000
FFC000000000
FFC000000000
FFC000000000
FFC000000000
FFC000000000
FFC000000000
FFC000000000
FFC000000000
FFC000000000
FFC000000000
FFC000000000
FFC000000000
FFC000000000
FFC000000000
FFC000000000
FFC000000000
FFC000000000
FFC000000000
FFC000000000
FFC000000000
FFC000000000
FFC000000000
FFC000000000
FFC000000000
FFC000000000
FFC000000000
FFC000000000
FFC000000000
FFC000000000
FFC000000000
FFC000000000
FFC000000000
FFC000000000
FFC000000000
FFC000000000
FFC000000000
FFC000000000
FFC000000000
FFC000000000
FFC000000000
FFFFFFFFFFFE
FFFFFFFFFFFE
FFFFFFFFFFFE
FFFFFFFFFFFE
7FFFFFFFFFFE
7FFFFFFFFFFE
3FFFFFFFFFFE
3FFFFFFFFFFE
0FFFFFFFFFFE
03FFFFFFFFFE
ENDCHAR
STARTCHAR 0044
ENCODING 68
SWIDTH 666 0
DWIDTH 56 0
BBX 49 64 4 0
BITMAP
FFFFFFFFFFC000
FFFFFFFFFFF000
FFFFFFFFFFF800
FFFFFFFFFFFC00
FFFFFFFFFFFE00
FFFFFFFFFFFF00
FFFFFFFFFFFF00
FFFFFFFFFFFF00
FFFFFFFFFFFF80
FFFFFFFFFFFF80
FFC0000001FF80
FFC0000001FF80
FFC0000001FF80
FFC0000001FF80
FFC0000001FF80
FFC0000001FF80
FFC0000001FF80
FFC0000001FF80
FFC0000001FF80
FFC0000001FF80
FFC0000001FF80
FFC0000001FF80
FFC0000001FF80
FFC0000001FF80
FFC0000001FF80
FFC0000001FF80
FFC0000001FF80
FFC0000001FF80
FFC0000001FF80
FFC0000001FF80
FFC0000001FF80
FFC0000001FF80
FFC0000001FF80
FFC0000001FF80
FFC0000001FF80
FFC0000001FF80
FFC0000001FF80
FFC0000001FF80
FFC0000001FF80
FFC0000001FF80
FFC0000001FF80
FFC0000001FF80
FFC0000001FF80
FFC0000001FF80
FFC0000001FF80
FFC0000001FF80
FFC0000001FF80
FFC0000001FF80
FFC0000001FF80
FFC0000001FF80
FFC0000001FF80
FFC0000001FF80
FFC0000001FF80
FFC0000001FF80
FFFFFFFFFFFF80
FFFFFFFFFFFF80
FFFFFFFFFFFF80
FFFFFFFFFFFF00
FFFFFFFFFFFF00
FFFFFFFFFFFF00
FFFFFFFFFFFE00
FFFFFFFFFFFC00
FFFFFFFFFFF800
FFFFFFFFFFE000
ENDCHAR
STARTCHAR 0045
ENCODING 69
SWIDTH 571 0
DWIDTH 48 0
BBX 39 64 5 0
BITMAP
FFFFFFFFFE
FFFFFFFFFE
FFFFFFFFFE
FFFFFFFFFE
FFFFFFFFFE
FFFFFFFFFE
FFFFFFFFFE
FFFFFFFFFE
FFFFFFFFFE
FFFFFFFFFE
FFC0000000
FFC0000000
FFC0000000
FFC0000000
FFC0000000
FFC0000000
FFC0000000
FFC0000000
FFC0000000
FFC0000000
FFC0000000
FFC0000000
FFC0000000
FFC0000000
FFC0000000
FFFFFFFFE0
FFFFFFFFE0
FFFFFFFFE0
FFFFFFFFE0
FFFFFFFFE0
FFFFFFFFE0
FFFFFFFFE0
FFFFFFFFE0
FFFFFFFFE0
FFFFFFFFE0
FFC0000000
FFC0000000
FFC0000000
FFC0000000
FFC0000000
FFC0000000
FFC0000000
FFC0000000
FFC0000000
FFC0000000
FFC0000000
FFC0000000
FFC0000000
FFC0000000
FFC0000000
FFC0000000
FFC0000000
FFC0000000
FFC0000000
FFFFFFFFFE
FFFFFFFFFE
FFFFFFFFFE
FFFFFFFFFE
FFFFFFFFFE
FFFFFFFFFE
FFFFFFFFFE
FFFFFFFFFE
FFFFFFFFFE
FFFFFFFFFE
ENDCHAR
STARTCHAR 0046
ENCODING 70
SWIDTH 571 0
DWIDTH 48 0
BBX 39 64 5 0
BITMAP
FFFFFFFFFE
FFFFFFFFFE
FFFFFFFFFE
FFFFFFFFFE
FFFFFFFFFE
FFFFFFFFFE
FFFFFFFFFE
FFFFFFFFFE
FFFFFFFFFE
FFFFFFFFFE
FFC0000000
FFC0000000
FFC0000000
FFC0000000
FFC0000000
FFC0000000
FFC0000000
FFC0000000
FFC0000000
FFC0000000
FFC0000000
FFC0000000
FFC0000000
FFC0000000
FFC0000000
FFFFFFFFE0
FFFFFFFFE0
FFFFFFFFE0
FFFFFFFFE0
FFFFFFFFE0
FFFFFFFFE0
FFFFFFFFE0
FFFFFFFFE0
FFFFFFFFE0
FFFFFFFFE0
FFC0000000
FFC0000000
FFC0000000
FFC0000000
FFC0000000
FFC0000000
FFC0000000
FFC0000000
FFC0000000
FFC0000000
FFC0000000
FFC0000000
FFC0000000
FFC0000000
FFC0000000
FFC0000000
FFC0000000
FFC0000000
FFC0000000
FFC0000000
FFC0000000
FFC0000000
FFC0000000
FFC0000000
FFC0000000
FFC0000000
FFC0000000
FFC0000000
FFC0000000
ENDCHAR
STARTCHAR 0047
ENCODING 71
SWIDTH 690 0
DWIDTH 58 0
BBX 49 64 4 0
BITMAP
01FFFFFFFFFE00
07FFFFFFFFFE00
0FFFFFFFFFFE00
1FFFFFFFFFFE00
3FFFFFFFFFFE00
7FFFFFFFFFFE00
7FFFFFFFFFFE00
7FFFFFFFFFFE00
FFFFFFFFFFFE00
FFFFFFFFFFFE00
FFC00000000000
FFC00000000000
FFC00000000000
FFC00000000000
FFC00000000000
FFC00000000000
FFC00000000000
FFC00000000000
FFC00000000000
FFC00000000000
FFC00000000000
FFC00000000000
FFC00000000000
FFC00000000000
FFC00000000000
FFC00FFFFFFF80
FFC00FFFFFFF80
FFC00FFFFFFF80
FFC00FFFFFFF80
FFC00FFFFFFF80
FFC00FFFFFFF80
FFC00FFFFFFF80
FFC00FFFFFFF80
FFC00FFFFFFF80
FFC00FFFFFFF80
FFC0000001FF80
FFC0000001FF80
FFC0000001FF80
FFC0000001FF80
FFC0000001FF80
FFC0000001FF80
FFC0000001FF80
FFC0000001FF80
FFC0000001FF80
FFC0000001FF80
FFC0000001FF80
FFC0000001FF80
FFC0000001FF80
FFC0000001FF80
FFC0000001FF80
FFC0000001FF80
FFC0000001FF80
FFC0000001FF80
FFC0000001FF80
FFFFFFFFFFFF80
FFFFFFFFFFFF80
FFFFFFFFFFFF80
7FFFFFFFFFFF80
7FFFFFFFFFFF80
7FFFFFFFFFFF80
3FFFFFFFFFFF80
1FFFFFFFFFFF80
0FFFFFFFFFFF80
03FFFFFFFFFF80
ENDCHAR
STARTCHAR 0048
ENCODING 72
SWIDTH 666 0
DWIDTH 56 0
BBX 47 64 4 0
BITMAP
FFC0000007FE
FFC0000007FE
FFC0000007FE
FFC0000007FE
FFC0000007FE
FFC0000007FE
FFC0000007FE
FFC0000007FE
FFC0000007FE
FFC0000007FE
FFC0000007FE
FFC0000007FE
FFC0000007FE
FFC0000007FE
FFC0000007FE
FFC0000007FE
FFC0000007FE
FFC0000007FE
FFC0000007FE
FFC0000007FE
FFC0000007FE
FFC0000007FE
FFC0000007FE
FFC0000007FE
FFC0000007FE
FFFFFFFFFFFE
FFFFFFFFFFFE
FFFFFFFFFFFE
FFFFFFFFFFFE
FFFFFFFFFFFE
FFFFFFFFFFFE
FFFFFFFFFFFE
FFFFFFFFFFFE
FFFFFFFFFFFE
FFFFFFFFFFFE
FFC0000007FE
FFC0000007FE
FFC0000007FE
FFC0000007FE
FFC0000007FE
FFC0000007FE
FFC0000007FE
FFC0000007FE
FFC0000007FE
FFC0000007FE
FFC0000007FE
FFC0000007FE
FFC0000007FE
FFC0000007FE
FFC0000007FE
FFC0000007FE
FFC0000007FE
FFC0000007FE
FFC0000007FE
FFC0000007FE
FFC0000007FE
FFC0000007FE
FFC0000007FE
FFC0000007FE
FFC0000007FE
FFC0000007FE
FFC0000007FE
FFC0000007FE
FFC0000007FE
ENDCHAR
STARTCHAR 0049
ENCODING 73
SWIDTH 226 0
DWIDTH 19 0
BBX 10 64 5 0
BITMAP
FFC0
FFC0
FFC0
FFC0
FFC0
FFC0
FFC0
FFC0
FFC0
FFC0
FFC0
FFC0
FFC0
FFC0
FFC0
FFC0
FFC0
FFC0
FFC0
FFC0
FFC0
FFC0
FFC0
FFC0
FFC0
FFC0
FFC0
FFC0
FFC0
FFC0
FFC0
FFC0
FFC0
FFC0
FFC0
FFC0
FFC0
FFC0
FFC0
FFC0
FFC0
FFC0
FFC0
FFC0
FFC0
FFC0
FFC0
FFC0
FFC0
FFC0
FFC0
FFC0
FFC0
FFC0
FFC0
FFC0
FFC0
FFC0
FFC0
FFC0
FFC0
FFC0
FFC0
FFC0
ENDCHAR
STARTCHAR 004A
ENCODING 74
SWIDTH 690 0
DWIDTH 58 0
BBX 49 64 5 0
BITMAP
0000000001FF80
0000000001FF80
0000000001FF80
0000000001FF80
0000000001FF80
0000000001FF80
0000000001FF80
0000000001FF80
0000000001FF80
0000000001FF80
0000000001FF80
0000000001FF80
0000000001FF80
0000000001FF80
0000000001FF80
0000000001FF80
0000000001FF80
0000000001FF80
0000000001FF80
0000000001FF80
0000000001FF80
0000000001FF80
0000000001FF80
0000000001FF80
0000000001FF80
0000000001FF80
0000000001FF80
0000000001FF80
0000000001FF80
0000000001FF80
0000000001FF80
0000000001FF80
0000000001FF80
0000000001FF80
0000000001FF80
0000000001FF80
0000000001FF80
0000000001FF80
0000000001FF80
0000000001FF80
0000000001FF80
0000000001FF80
0000000001FF80
0000000001FF80
FFC0000001FF80
FFC0000001FF80
FFC0000001FF80
FFC0000001FF80
FFC0000001FF80
FFC0000001FF80
FFC0000001FF80
FFC0000001FF80
FFC0000001FF80
FFC0000001FF80
FFFFFFFFFFFF80
FFFFFFFFFFFF80
FFFFFFFFFFFF80
FFFFFFFFFFFF80
FFFFFFFFFFFF80
7FFFFFFFFFFF80
7FFFFFFFFFFF80
3FFFFFFFFFFF80
1FFFFFFFFFFF80
03FFFFFFFFFF80
ENDCHAR
STARTCHAR 004B
ENCODING 75
SWIDTH 642 0
DWIDTH 54 0
BBX 48 64 3 0
BITMAP
FFC000001FFF
FFC000003FFE
FFC000007FFC
FFC00000FFF8
FFC00001FFF0
FFC00003FFE0
FFC00007FFC0
FFC0000FFF80
FFC0001FFF00
FFC0003FFE00
FFC0007FFC00
FFC000FFF000
FFC001FFE000
FFC003FFC000
FFC007FF8000
FFC00FFF0000
FFC01FFE0000
FFC03FFC0000
FFC07FF80000
FFC0FFF00000
FFC1FFE00000
FFC3FFC00000
FFC7FF800000
FFCFFF000000
FFFFFE000000
FFFFFC000000
FFFFF0000000
FFFFE0000000
FFFFC0000000
FFFF80000000
FFFF00000000
FFFE00000000
FFFF00000000
FFFF80000000
FFFFC0000000
FFFFE0000000
FFFFF0000000
FFFFF8000000
FFFFFC000000
FFDFFE000000
FFCFFF000000
FFC7FF800000
FFC3FFC00000
FFC1FFE00000
FFC0FFF00000
FFC07FF80000
FFC03FFC0000
FFC01FFF0000
FFC00FFF8000
FFC007FFC000
FFC003FFE000
FFC001FFF000
FFC000FFF800
FFC0007FFC00
FFC0003FFE00
FFC0001FFF00
FFC0000FFF80
FFC00007FFC0
FFC00003FFE0
FFC00001FFF0
FFC00000FFF8
FFC000007FFC
FFC000003FFE
FFC000001FFF
ENDCHAR
STARTCHAR 004C
ENCODING 76
SWIDTH 535 0
DWIDTH 45 0
BBX 39 64 3 0
BITMAP
FFC0000000
FFC0000000
FFC0000000
FFC0000000
FFC0000000
FFC0000000
FFC0000000
FFC0000000
FFC0000000
FFC0000000
FFC0000000
FFC0000000
FFC0000000
FFC0000000
FFC0000000
FFC0000000
FFC0000000
FFC0000000
FFC0000000
FFC0000000
FFC0000000
FFC0000000
FFC0000000
FFC0000000
FFC0000000
FFC0000000
FFC0000000
FFC0000000
FFC0000000
FFC0000000
FFC0000000
FFC0000000
FFC0000000
FFC0000000
FFC0000000
FFC0000000
FFC0000000
FFC0000000
FFC0000000
FFC0000000
FFC0000000
FFC0000000
FFC0000000
FFC0000000
FFC0000000
FFC0000000
FFC0000000
FFC0000000
FFC0000000
FFC0000000
FFC0000000
FFC0000000
FFC0000000
FFC0000000
FFFFFFFFFE
FFFFFFFFFE
FFFFFFFFFE
FFFFFFFFFE
FFFFFFFFFE
FFFFFFFFFE
FFFFFFFFFE
FFFFFFFFFE
FFFFFFFFFE
FFFFFFFFFE
ENDCHAR
STARTCHAR 004D
ENCODING 77
SWIDTH 809 0
DWIDTH 68 0
BBX 59 64 5 0
BITMAP
FF00000000003FE0
FF80000000003FE0
FF80000000007FE0
FF80000000007FE0
FFC0000000007FE0
FFC000000000FFE0
FFE000000000FFE0
FFE000000000FFE0
FFE000000001FFE0
FFF000000001FFE0
FFF000000003FFE0
FFF000000003FFE0
FFF800000003FFE0
FFF800000007FFE0
FFFC00000007FFE0
FFFC0000000FFFE0
FFFC0000000FFFE0
FFFE0000000FFFE0
FFFE0000001FFFE0
FFFE0000001FFFE0
FFFF0000003FFFE0
FFFF0000003FFFE0
FFFF8000003FFFE0
FFFF8000007FFFE0
FFFF8000007FFFE0
FFFFC00000FF7FE0
FFFFC00000FF7FE0
FFDFC00000FF7FE0
FFDFE00001FE7FE0
FFDFE00001FE7FE0
FFCFF00001FE7FE0
FFCFF00003FC7FE0
FFCFF00003FC7FE0
FFC7F80007F87FE0
FFC7F80007F87FE0
FFC7FC0007F87FE0
FFC3FC000FF07FE0
FFC3FC000FF07FE0
FFC3FE001FF07FE0
FFC1FE001FE07FE0
FFC1FE001FE07FE0
FFC0FF003FE07FE0
FFC0FF003FC07FE0
FFC0FF807FC07FE0
FFC07F807F807FE0
FFC07F807F807FE0
FFC07FC0FF807FE0
FFC03FC0FF007FE0
FFC03FC1FF007FE0
FFC03FE1FF007FE0
FFC01FE1FE007FE0
FFC01FF3FE007FE0
FFC01FF3FC007FE0
FFC00FF3FC007FE0
FFC00FFFFC007FE0
FFC007FFF8007FE0
FFC007FFF8007FE0
FFC007FFF8007FE0
FFC003FFF0007FE0
FFC003FFF0007FE0
FFC003FFE0007FE0
FFC001FFE0007FE0
FFC001FFE0007FE0
FFC001FFC0007FE0
ENDCHAR
STARTCHAR 004E
ENCODING 78
SWIDTH 690 0
DWIDTH 58 0
BBX 49 64 5 0
BITMAP
F800000001FF80
FC00000001FF80
FE00000001FF80
FE00000001FF80
FF00000001FF80
FF80000001FF80
FFC0000001FF80
FFE0000001FF80
FFE0000001FF80
FFF0000001FF80
FFF8000001FF80
FFFC000001FF80
FFFC000001FF80
FFFE000001FF80
FFFF000001FF80
FFFF800001FF80
FFFF800001FF80
FFFFC00001FF80
FFFFE00001FF80
FFFFF00001FF80
FFFFF00001FF80
FFDFF80001FF80
FFDFFC0001FF80
FFCFFE0001FF80
FFC7FF0001FF80
FFC3FF0001FF80
FFC3FF8001FF80
FFC1FFC001FF80
FFC0FFE001FF80
FFC07FE001FF80
FFC03FF001FF80
FFC03FF801FF80
FFC01FFC01FF80
FFC00FFC01FF80
FFC007FE01FF80
FFC007FF01FF80
FFC003FF81FF80
FFC001FF81FF80
FFC000FFC1FF80
FFC000FFE1FF80
FFC0007FF1FF80
FFC0003FF9FF80
FFC0001FF9FF80
FFC0000FFDFF80
FFC0000FFFFF80
FFC00007FFFF80
FFC00003FFFF80
FFC00001FFFF80
FFC00001FFFF80
FFC00000FFFF80
FFC000007FFF80
FFC000003FFF80
FFC000003FFF80
FFC000001FFF80
FFC000000FFF80
FFC0000007FF80
FFC0000003FF80
FFC0000003FF80
FFC0000001FF80
FFC0000000FF80
FFC00000007F80
FFC00000007F80
FFC00000003F80
FFC00000001F80
ENDCHAR
STARTCHAR 004F
ENCODING 79
SWIDTH 654 0
DWIDTH 55 0
BBX 49 64 3 0
BITMAP
01FFFFFFFFE000
07FFFFFFFFF800
0FFFFFFFFFFC00
1FFFFFFFFFFE00
3FFFFFFFFFFF00
7FFFFFFFFFFF00
7FFFFFFFFFFF80
7FFFFFFFFFFF80
7FFFFFFFFFFF80
FFFFFFFFFFFF80
FFC0000001FF80
FFC0000001FF80
FFC0000001FF80
FFC0000001FF80
FFC0000001FF80
FFC0000001FF80
FFC0000001FF80
FFC0000001FF80
FFC0000001FF80
FFC0000001FF80
FFC0000001FF80
FFC0000001FF80
FFC0000001FF80
FFC0000001FF80
FFC0000001FF80
FFC0000001FF80
FFC0000001FF80
FFC0000001FF80
FFC0000001FF80
FFC0000001FF80
FFC0000001FF80
FFC0000001FF80
FFC0000001FF80
FFC0000001FF80
FFC0000001FF80
FFC0000001FF80
FFC0000001FF80
FFC0000001FF80
FFC0000001FF80
FFC0000001FF80
FFC0000001FF80
FFC0000001FF80
FFC0000001FF80
FFC0000001FF80
FFC0000001FF80
FFC0000001FF80
FFC0000001FF80
FFC0000001FF80
FFC0000001FF80
FFC0000001FF80
FFC0000001FF80
FFC0000001FF80
FFC0000001FF80
FFC0000001FF80
FFFFFFFFFFFF80
7FFFFFFFFFFF80
7FFFFFFFFFFF80
7FFFFFFFFFFF80
7FFFFFFFFFFF80
3FFFFFFFFFFF00
3FFFFFFFFFFF00
1FFFFFFFFFFE00
0FFFFFFFFFFC00
01FFFFFFFFE000
ENDCHAR
STARTCHAR 0050
ENCODING 80
SWIDTH 642 0
DWIDTH 54 0
BBX 48 64 3 0
BITMAP
FFFFFFFFFF80
FFFFFFFFFFE0
FFFFFFFFFFF8
FFFFFFFFFFFC
FFFFFFFFFFFC
FFFFFFFFFFFE
FFFFFFFFFFFE
FFFFFFFFFFFF
FFFFFFFFFFFF
FFFFFFFFFFFF
FFC0000003FF
FFC0000003FF
FFC0000003FF
FFC0000003FF
FFC0000003FF
FFC0000003FF
FFC0000003FF
FFC0000003FF
FFC0000003FF
FFC0000003FF
FFC0000003FF
FFC0000003FF
FFC0000003FF
FFC0000003FF
FFC0000003FF
FFFFFFFFFFFF
FFFFFFFFFFFF
FFFFFFFFFFFF
FFFFFFFFFFFF
FFFFFFFFFFFE
FFFFFFFFFFFE
FFFFFFFFFFFC
FFFFFFFFFFFC
FFFFFFFFFFF0
FFFFFFFFFFC0
FFC000000000
FFC000000000
FFC000000000
FFC000000000
FFC000000000
FFC000000000
FFC000000000
FFC000000000
FFC000000000
FFC000000000
FFC000000000
FFC000000000
FFC000000000
FFC000000000
FFC000000000
FFC000000000
FFC000000000
FFC000000000
FFC000000000
FFC000000000
FFC000000000
FFC000000000
FFC000000000
FFC000000000
FFC000000000
FFC000000000
FFC000000000
FFC000000000
FFC000000000
ENDCHAR
STARTCHAR 0051
ENCODING 81
SWIDTH 654 0
DWIDTH 55 0
BBX 49 74 3 -10
BITMAP
01FFFFFFFFE000
07FFFFFFFFF800
0FFFFFFFFFFC00
1FFFFFFFFFFE00
3FFFFFFFFFFF00
7FFFFFFFFFFF00
7FFFFFFFFFFF80
7FFFFFFFFFFF80
7FFFFFFFFFFF80
FFFFFFFFFFFF80
FFC0000001FF80
FFC0000001FF80
FFC0000001FF80
FFC0000001FF80
FFC0000001FF80
FFC0000001FF80
FFC0000001FF80
FFC0000001FF80
FFC0000001FF80
FFC0000001FF80
FFC0000001FF80
FFC0000001FF80
FFC0000001FF80
FFC0000001FF80
FFC0000001FF80
FFC0000001FF80
FFC0000001FF80
FFC0000001FF80
FFC0000001FF80
FFC0000001FF80
FFC0000001FF80
FFC0000001FF80
FFC0000001FF80
FFC0000001FF80
FFC0000001FF80
FFC0000001FF80
FFC0000001FF80
FFC0000001FF80
FFC0000001FF80
FFC0000001FF80
FFC0000001FF80
FFC0000001FF80
FFC0000001FF80
FFC0000001FF80
FFC0000001FF80
FFC0000001FF80
FFC0000001FF80
FFC0000001FF80
FFC0000001FF80
FFC0000001FF80
FFC0000001FF80
FFC0000001FF80
FFC0000001FF80
FFC0000001FF80
FFFFFFFFFFFF80
7FFFFFFFFFFF80
7FFFFFFFFFFF80
7FFFFFFFFFFF80
7FFFFFFFFFFF80
3FFFFFFFFFFF00
3FFFFFFFFFFF00
1FFFFFFFFFFE00
0FFFFFFFFFFC00
03FFFFFFFFE000
00001FF8000000
00001FF8000000
00001FF8000000
00001FF8000000
00001FF8000000
00001FF8000000
00001FF8000000
00001FF8000000
00001FF8000000
00001FF8000000
ENDCHAR
STARTCHAR 0052
ENCODING 82
SWIDTH 654 0
DWIDTH 55 0
BBX 49 64 3 0
BITMAP
FFFFFFFFFF0000
FFFFFFFFFFC000
FFFFFFFFFFF000
FFFFFFFFFFF800
FFFFFFFFFFFC00
FFFFFFFFFFFC00
FFFFFFFFFFFE00
FFFFFFFFFFFE00
FFFFFFFFFFFE00
FFFFFFFFFFFE00
FFC0000007FE00
FFC0000007FE00
FFC0000007FE00
FFC0000007FE00
FFC0000007FE00
FFC0000007FE00
FFC0000007FE00
FFC0000007FE00
FFC0000007FE00
FFC0000007FE00
FFC0000007FE00
FFC0000007FE00
FFC0000007FE00
FFC0000007FE00
FFC0000007FE00
FFFFFFFFFFFE00
FFFFFFFFFFFE00
FFFFFFFFFFFE00
FFFFFFFFFFFE00
FFFFFFFFFFFE00
FFFFFFFFFFFC00
FFFFFFFFFFFC00
FFFFFFFFFFF800
FFFFFFFFFFE000
FFFFFFFFFF8000
FFC7FE00000000
FFC3FF00000000
FFC1FF80000000
FFC1FFC0000000
FFC0FFE0000000
FFC07FF0000000
FFC03FF8000000
FFC01FFC000000
FFC00FFE000000
FFC007FF000000
FFC007FF000000
FFC003FF800000
FFC001FFC00000
FFC000FFE00000
FFC0007FF00000
FFC0003FF80000
FFC0001FFC0000
FFC0001FFE0000
FFC0000FFF0000
FFC00007FF0000
FFC00003FF8000
FFC00001FFC000
FFC00000FFE000
FFC000007FF000
FFC000007FF800
FFC000003FFC00
FFC000001FFE00
FFC000000FFF00
FFC0000007FF80
ENDCHAR
STARTCHAR 0053
ENCODING 83
SWIDTH 642 0
DWIDTH 54 0
BBX 46 64 5 0
BITMAP
03FFFFFFFFC0
0FFFFFFFFFC0
1FFFFFFFFFC0
3FFFFFFFFFC0
7FFFFFFFFFC0
7FFFFFFFFFC0
FFFFFFFFFFC0
FFFFFFFFFFC0
FFFFFFFFFFC0
FFFFFFFFFFC0
FFC000000000
FFC000000000
FFC000000000
FFC000000000
FFC000000000
FFC000000000
FFC000000000
FFC000000000
FFC000000000
FFC000000000
FFC000000000
FFC000000000
FFC000000000
FFC000000000
FFC000000000
FFFFFFFFFC00
FFFFFFFFFF80
FFFFFFFFFFC0
FFFFFFFFFFE0
FFFFFFFFFFF0
7FFFFFFFFFF0
3FFFFFFFFFF8
1FFFFFFFFFF8
0FFFFFFFFFF8
03FFFFFFFFFC
000000000FFC
000000000FFC
000000000FFC
000000000FFC
000000000FFC
000000000FFC
000000000FFC
000000000FFC
000000000FFC
000000000FFC
000000000FFC
000000000FFC
000000000FFC
000000000FFC
000000000FFC
000000000FFC
000000000FFC
000000000FFC
000000000FFC
FFFFFFFFFFFC
FFFFFFFFFFF8
FFFFFFFFFFF8
FFFFFFFFFFF8
FFFFFFFFFFF8
FFFFFFFFFFF0
FFFFFFFFFFE0
FFFFFFFFFFC0
FFFFFFFFFF80
FFFFFFFFFE00
ENDCHAR
STARTCHAR 0054
ENCODING 84
SWIDTH 654 0
DWIDTH 55 0
BBX 49 64 3 0
BITMAP
FFFFFFFFFFFF80
FFFFFFFFFFFF80
FFFFFFFFFFFF80
FFFFFFFFFFFF80
FFFFFFFFFFFF80
FFFFFFFFFFFF80
FFFFFFFFFFFF80
FFFFFFFFFFFF80
FFFFFFFFFFFF80
FFFFFFFFFFFF80
00001FF8000000
00001FF8000000
00001FF8000000
00001FF8000000
00001FF8000000
00001FF8000000
00001FF8000000
00001FF8000000
00001FF8000000
00001FF8000000
00001FF8000000
00001FF8000000
00001FF8000000
00001FF8000000
00001FF8000000
00001FF8000000
00001FF8000000
00001FF8000000
00001FF8000000
00001FF8000000
00001FF8000000
00001FF8000000
00001FF8000000
00001FF8000000
00001FF8000000
00001FF8000000
00001FF8000000
00001FF8000000
00001FF8000000
00001FF8000000
00001FF8000000
00001FF8000000
00001FF8000000
00001FF8000000
00001FF8000000
00001FF8000000
00001FF8000000
00001FF8000000
00001FF8000000
00001FF8000000
00001FF8000000
00001FF8000000
00001FF8000000
00001FF8000000
00001FF8000000
00001FF8000000
00001FF8000000
00001FF8000000
00001FF8000000
00001FF8000000
00001FF8000000
00001FF8000000
00001FF8000000
00001FF8000000
ENDCHAR
STARTCHAR 0055
ENCODING 85
SWIDTH 690 0
DWIDTH 58 0
BBX 49 64 5 0
BITMAP
FFC0000001FF80
FFC0000001FF80
FFC0000001FF80
FFC0000001FF80
FFC0000001FF80
FFC0000001FF80
FFC0000001FF80
FFC0000001FF80
FFC0000001FF80
FFC0000001FF80
FFC0000001FF80
FFC0000001FF80
FFC0000001FF80
FFC0000001FF80
FFC0000001FF80
FFC0000001FF80
FFC0000001FF80
FFC0000001FF80
FFC0000001FF80
FFC0000001FF80
FFC0000001FF80
FFC0000001FF80
FFC0000001FF80
FFC0000001FF80
FFC0000001FF80
FFC0000001FF80
FFC0000001FF80
FFC0000001FF80
FFC0000001FF80
FFC0000001FF80
FFC0000001FF80
FFC0000001FF80
FFC0000001FF80
FFC0000001FF80
FFC0000001FF80
FFC0000001FF80
FFC0000001FF80
FFC0000001FF80
FFC0000001FF80
FFC0000001FF80
FFC0000001FF80
FFC0000001FF80
FFC0000001FF80
FFC0000001FF80
FFC0000001FF80
FFC0000001FF80
FFC0000001FF80
FFC0000001FF80
FFC0000001FF80
FFC0000001FF80
FFC0000001FF80
FFC0000001FF80
FFC0000001FF80
FFC0000001FF80
FFFFFFFFFFFF80
FFFFFFFFFFFF00
FFFFFFFFFFFF00
FFFFFFFFFFFF00
FFFFFFFFFFFF00
7FFFFFFFFFFE00
3FFFFFFFFFFC00
1FFFFFFFFFF800
0FFFFFFFFFF000
03FFFFFFFFC000
ENDCHAR
STARTCHAR 0056
ENCODING 86
SWIDTH 642 0
DWIDTH 54 0
BBX 48 64 3 0
BITMAP
FFC0000003FF
FFC0000003FF
FFE0000003FF
7FE0000007FE
7FE0000007FE
7FE0000007FE
3FF0000007FE
3FF000000FFC
3FF000000FFC
1FF800000FFC
1FF800001FF8
1FF800001FF8
1FF800001FF8
0FFC00001FF0
0FFC00003FF0
0FFC00003FF0
07FC00003FE0
07FE00007FE0
07FE00007FE0
03FE00007FE0
03FF00007FC0
03FF0000FFC0
01FF0000FFC0
01FF0000FF80
01FF8000FF80
01FF8001FF80
00FF8001FF00
00FFC001FF00
00FFC003FF00
007FC003FF00
007FC003FE00
007FE003FE00
003FE007FE00
003FE007FC00
003FE007FC00
003FF00FFC00
001FF00FF800
001FF00FF800
001FF80FF800
000FF81FF000
000FF81FF000
000FF81FF000
0007FC1FF000
0007FC3FE000
0007FC3FE000
0003FE3FE000
0003FE7FC000
0003FE7FC000
0003FE7FC000
0001FF7F8000
0001FFFF8000
0001FFFF8000
0000FFFF8000
0000FFFF0000
0000FFFF0000
00007FFF0000
00007FFE0000
00007FFE0000
00007FFE0000
00003FFC0000
00003FFC0000
00003FFC0000
00001FF80000
00001FF80000
ENDCHAR
STARTCHAR 0057
ENCODING 87
SWIDTH 976 0
DWIDTH 82 0
BBX 78 64 2 0
BITMAP
FFC000001FE000000FFC
7FE000001FE000000FFC
7FE000001FE000001FF8
7FE000001FF000001FF8
7FF000003FF000001FF8
3FF000003FF000001FF0
3FF000003FF000003FF0
3FF000003FF000003FF0
1FF800003FF800003FF0
1FF800007FF800007FE0
1FF800007FF800007FE0
0FF800007FF800007FE0
0FFC00007FF800007FC0
0FFC00007FFC0000FFC0
07FC0000FFFC0000FFC0
07FE0000FFFC0000FF80
07FE0000FFFC0001FF80
07FE0000FFFE0001FF80
03FE0001FFFE0001FF80
03FF0001FFFE0001FF00
03FF0001FFFE0003FF00
01FF0001FFFE0003FF00
01FF0001FFFF0003FE00
01FF8003FFFF0007FE00
00FF8003FEFF0007FE00
00FF8003FEFF0007FC00
00FFC003FCFF0007FC00
00FFC003FCFF800FFC00
007FC007FC7F800FF800
007FC007FC7F800FF800
007FE007F87F800FF800
003FE007F87FC01FF800
003FE00FF87FC01FF000
003FF00FF83FC01FF000
001FF00FF03FC03FF000
001FF00FF03FC03FE000
001FF00FF03FE03FE000
000FF81FF01FE03FE000
000FF81FE01FE07FC000
000FF81FE01FE07FC000
000FF81FE01FE07FC000
0007FC1FE00FF0FFC000
0007FC3FC00FF0FF8000
0007FC3FC00FF0FF8000
0003FE3FC00FF0FF8000
0003FE3FC007F9FF0000
0003FE7FC007F9FF0000
0001FE7F8007F9FF0000
0001FF7F8007F9FE0000
0001FF7F8007FBFE0000
0001FF7F8003FFFE0000
0000FFFF0003FFFC0000
0000FFFF0003FFFC0000
0000FFFF0003FFFC0000
00007FFF0001FFFC0000
00007FFE0001FFF80000
00007FFE0001FFF80000
00003FFE0001FFF80000
00003FFE0000FFF00000
00003FFC0000FFF00000
00001FFC0000FFF00000
00001FFC0000FFE00000
00001FFC00007FE00000
00001FF800007FE00000
ENDCHAR
STARTCHAR 0058
ENCODING 88
SWIDTH 761 0
DWIDTH 64 0
BBX 58 64 3 0
BITMAP
FFF000000003FFC0
7FF800000003FF80
3FF800000007FF80
1FFC0000000FFF00
1FFE0000000FFE00
0FFF0000001FFC00
07FF0000003FFC00
03FF8000003FF800
03FFC000007FF000
01FFC00000FFE000
00FFE00001FFE000
00FFF00001FFC000
007FF00003FF8000
003FF80007FF8000
001FFC0007FF0000
001FFC000FFE0000
000FFE001FFC0000
0007FF001FFC0000
0003FF803FF80000
0003FF807FF00000
0001FFC07FE00000
0000FFE0FFE00000
00007FE1FFC00000
00007FF3FF800000
00003FFBFF000000
00001FFFFF000000
00000FFFFE000000
00000FFFFC000000
000007FFF8000000
000003FFF8000000
000001FFF0000000
000001FFE0000000
000001FFF0000000
000003FFF0000000
000007FFF8000000
000007FFFC000000
00000FFFFE000000
00001FFFFE000000
00003FFFFF000000
00003FF3FF800000
00007FF1FFC00000
0000FFE1FFC00000
0001FFC0FFE00000
0001FFC07FF00000
0003FF807FF00000
0007FF003FF80000
0007FF001FFC0000
000FFE000FFE0000
001FFC000FFE0000
003FFC0007FF0000
003FF80003FF8000
007FF00003FF8000
00FFF00001FFC000
00FFE00000FFE000
01FFC00000FFF000
03FFC000007FF000
07FF8000003FF800
07FF0000003FFC00
0FFE0000001FFE00
1FFE0000000FFE00
3FFC0000000FFF00
3FF800000007FF80
7FF800000003FF80
FFF000000003FFC0
ENDCHAR
STARTCHAR 0059
ENCODING 89
SWIDTH 654 0
DWIDTH 55 0
BBX 49 64 3 0
BITMAP
FFE0000001FF80
7FE0000003FF00
7FF0000003FF00
3FF0000007FE00
3FF8000007FE00
1FF800000FFC00
1FFC00000FFC00
0FFC00001FF800
07FE00001FF800
07FE00003FF000
03FE00003FE000
03FF00007FE000
01FF00007FC000
01FF8000FFC000
00FF8000FF8000
00FFC001FF8000
007FC001FF0000
007FE003FF0000
003FE003FE0000
003FF007FE0000
001FF007FC0000
001FF80FFC0000
000FF80FF80000
000FFC1FF80000
0007FC1FF00000
0007FE3FE00000
0003FE3FE00000
0003FF3FC00000
0001FF7FC00000
0001FFFF800000
0000FFFF800000
0000FFFF000000
00007FFF000000
00007FFE000000
00003FFE000000
00003FFC000000
00001FFC000000
00001FF8000000
00001FF8000000
00001FF8000000
00001FF8000000
00001FF8000000
00001FF8000000
00001FF8000000
00001FF8000000
00001FF8000000
00001FF8000000
00001FF8000000
00001FF8000000
00001FF8000000
00001FF8000000
00001FF8000000
00001FF8000000
00001FF8000000
00001FF8000000
00001FF8000000
00001FF8000000
00001FF8000000
00001FF8000000
00001FF8000000
00001FF8000000
00001FF8000000
00001FF8000000
00001FF8000000
ENDCHAR
STARTCHAR 005A
ENCODING 90
SWIDTH 666 0
DWIDTH 56 0
BBX 48 64 4 0
BITMAP
FFFFFFFFFFFF
FFFFFFFFFFFF
FFFFFFFFFFFF
FFFFFFFFFFFF
FFFFFFFFFFFF
FFFFFFFFFFFF
FFFFFFFFFFFE
FFFFFFFFFFFE
FFFFFFFFFFFC
FFFFFFFFFFF8
000000007FF0
000000007FF0
00000000FFE0
00000001FFC0
00000001FFC0
00000003FF80
00000007FF00
0000000FFF00
0000000FFE00
0000001FFC00
0000003FF800
0000003FF800
0000007FF000
000000FFE000
000000FFE000
000001FFC000
000003FF8000
000007FF8000
000007FF0000
00000FFE0000
00001FFE0000
00001FFC0000
00003FF80000
00007FF00000
00007FF00000
0000FFE00000
0001FFC00000
0001FFC00000
0003FF800000
0007FF000000
000FFF000000
000FFE000000
001FFC000000
003FF8000000
003FF8000000
007FF0000000
00FFE0000000
00FFE0000000
01FFC0000000
03FF80000000
07FF80000000
07FF00000000
0FFE00000000
1FFC00000000
1FFFFFFFFFFF
3FFFFFFFFFFF
7FFFFFFFFFFF
7FFFFFFFFFFF
FFFFFFFFFFFF
FFFFFFFFFFFF
FFFFFFFFFFFF
FFFFFFFFFFFF
FFFFFFFFFFFF
FFFFFFFFFFFF
ENDCHAR
STARTCHAR 005B
ENCODING 91
SWIDTH 297 0
DWIDTH 25 0
BBX 20 75 3 -10
BITMAP
FFFFF0
FFFFF0
FFFFF0
FFFFF0
FFFFF0
FFFFF0
FFFFF0
FFFFF0
FFFFF0
FFFFF0
FFC000
FFC000
FFC000
FFC000
FFC000
FFC000
FFC000
FFC000
FFC000
FFC000
FFC000
FFC000
FFC000
FFC000
FFC000
FFC000
FFC000
FFC000
FFC000
FFC000
FFC000
FFC000
FFC000
FFC000
FFC000
FFC000
FFC000
FFC000
FFC000
FFC000
FFC000
FFC000
FFC000
FFC000
FFC000
FFC000
FFC000
FFC000
FFC000
FFC000
FFC000
FFC000
FFC000
FFC000
FFC000
FFC000
FFC000
FFC000
FFC000
FFC000
FFC000
FFC000
FFC000
FFC000
FFC000
FFFFF0
FFFFF0
FFFFF0
FFFFF0
FFFFF0
FFFFF0
FFFFF0
FFFFF0
FFFFF0
FFFFF0
ENDCHAR
STARTCHAR 005C
ENCODING 92
SWIDTH 511 0
DWIDTH 43 0
BBX 40 64 2 0
BITMAP
FE00000000
FF00000000
7F00000000
7F80000000
3F80000000
3FC0000000
1FC0000000
1FE0000000
0FE0000000
0FF0000000
07F0000000
07F8000000
03F8000000
03FC000000
01FC000000
01FE000000
00FF000000
00FF000000
007F800000
007F800000
003FC00000
003FC00000
001FE00000
001FE00000
000FF00000
000FF00000
0007F80000
0003F80000
0003FC0000
0001FC0000
0001FE0000
0000FE0000
0000FF0000
00007F0000
00007F8000
00003F8000
00003FC000
00001FC000
00001FE000
00000FE000
00000FF000
000007F000
000007F800
000003F800
000003FC00
000001FC00
000001FE00
000000FE00
000000FF00
0000007F00
0000007F80
0000003F80
0000003FC0
0000001FC0
0000001FE0
0000000FE0
0000000FF0
00000007F0
00000007F8
00000003FC
00000003FC
00000001FE
00000001FE
00000000FF
ENDCHAR
STARTCHAR 005D
ENCODING 93
SWIDTH 345 0
DWIDTH 29 0
BBX 19 75 5 -10
BITMAP
FFFFE0
FFFFE0
FFFFE0
FFFFE0
FFFFE0
FFFFE0
FFFFE0
FFFFE0
FFFFE0
FFFFE0
007FE0
007FE0
007FE0
007FE0
007FE0
007FE0
007FE0
007FE0
007FE0
007FE0
007FE0
007FE0
007FE0
007FE0
007FE0
007FE0
007FE0
007FE0
007FE0
007FE0
007FE0
007FE0
007FE0
007FE0
007FE0
007FE0
007FE0
007FE0
007FE0
007FE0
007FE0
007FE0
007FE0
007FE0
007FE0
007FE0
007FE0
007FE0
007FE0
007FE0
007FE0
007FE0
007FE0
007FE0
007FE0
007FE0
007FE0
007FE0
007FE0
007FE0
007FE0
007FE0
007FE0
007FE0
007FE0
FFFFE0
FFFFE0
FFFFE0
FFFFE0
FFFFE0
FFFFE0
FFFFE0
FFFFE0
FFFFE0
FFFFE0
ENDCHAR
STARTCHAR 005F
ENCODING 95
SWIDTH 583 0
DWIDTH 49 0
BBX 49 10 0 -16
BITMAP
FFFFFFFFFFFF80
FFFFFFFFFFFF80
FFFFFFFFFFFF80
FFFFFFFFFFFF80
FFFFFFFFFFFF80
FFFFFFFFFFFF80
FFFFFFFFFFFF80
FFFFFFFFFFFF80
FFFFFFFFFFFF80
FFFFFFFFFFFF80
ENDCHAR
STARTCHAR 0060
ENCODING 96
SWIDTH 500 0
DWIDTH 42 0
BBX 15 9 16 54
BITMAP
FF80
7F80
3FC0
1FE0
0FF0
07F8
03F8
01FC
00FE
ENDCHAR
STARTCHAR 0061
ENCODING 97
SWIDTH 690 0
DWIDTH 58 0
BBX 49 49 4 0
BITMAP
FFFFFFFFFFE000
FFFFFFFFFFF800
FFFFFFFFFFFC00
FFFFFFFFFFFE00
FFFFFFFFFFFF00
FFFFFFFFFFFF00
FFFFFFFFFFFF80
FFFFFFFFFFFF80
FFFFFFFFFFFF80
FFFFFFFFFFFF80
0000000001FF80
0000000001FF80
0000000001FF80
0000000001FF80
0000000001FF80
0000000001FF80
0000000001FF80
0000000001FF80
0000000001FF80
01FFFFFFFFFF80
07FFFFFFFFFF80
0FFFFFFFFFFF80
1FFFFFFFFFFF80
3FFFFFFFFFFF80
7FFFFFFFFFFF80
7FFFFFFFFFFF80
7FFFFFFFFFFF80
7FFFFFFFFFFF80
FFFFFFFFFFFF80
FFC0000001FF80
FFC0000001FF80
FFC0000001FF80
FFC0000001FF80
FFC0000001FF80
FFC0000001FF80
FFC0000001FF80
FFC0000001FF80
FFC0000001FF80
FFC0000001FF80
FFFFFFFFFFFF80
7FFFFFFFFFFF80
7FFFFFFFFFFF80
7FFFFFFFFFFF80
7FFFFFFFFFFF80
3FFFFFFFFFFF80
1FFFFFFFFFFF80
0FFFFFFFFFFF80
07FFFFFFFFFF80
01FFFFFFFFFF80
ENDCHAR
STARTCHAR 0062
ENCODING 98
SWIDTH 690 0
DWIDTH 58 0
BBX 49 64 4 0
BITMAP
FFC00000000000
FFC00000000000
FFC00000000000
FFC00000000000
FFC00000000000
FFC00000000000
FFC00000000000
FFC00000000000
FFC00000000000
FFC00000000000
FFC00000000000
FFC00000000000
FFC00000000000
FFC00000000000
FFC00000000000
FFFFFFFFFFC000
FFFFFFFFFFF000
FFFFFFFFFFFC00
FFFFFFFFFFFE00
FFFFFFFFFFFF00
FFFFFFFFFFFF00
FFFFFFFFFFFF80
FFFFFFFFFFFF80
FFFFFFFFFFFF80
FFFFFFFFFFFF80
FFC0000001FF80
FFC0000001FF80
FFC0000001FF80
FFC0000001FF80
FFC0000001FF80
FFC0000001FF80
FFC0000001FF80
FFC0000001FF80
FFC0000001FF80
FFC0000001FF80
FFC0000001FF80
FFC0000001FF80
FFC0000001FF80
FFC0000001FF80
FFC0000001FF80
FFC0000001FF80
FFC0000001FF80
FFC0000001FF80
FFC0000001FF80
FFC0000001FF80
FFC0000001FF80
FFC0000001FF80
FFC0000001FF80
FFC0000001FF80
FFC0000001FF80
FFC0000001FF80
FFC0000001FF80
FFC0000001FF80
FFC0000001FF80
FFFFFFFFFFFF80
FFFFFFFFFFFF80
FFFFFFFFFFFF80
FFFFFFFFFFFF80
FFFFFFFFFFFF00
FFFFFFFFFFFF00
FFFFFFFFFFFE00
FFFFFFFFFFFC00
FFFFFFFFFFF800
FFFFFFFFFFE000
ENDCHAR
STARTCHAR 0063
ENCODING 99
SWIDTH 666 0
DWIDTH 56 0
BBX 47 49 4 0
BITMAP
01FFFFFFFFFE
07FFFFFFFFFE
1FFFFFFFFFFE
3FFFFFFFFFFE
3FFFFFFFFFFE
7FFFFFFFFFFE
7FFFFFFFFFFE
FFFFFFFFFFFE
FFFFFFFFFFFE
FFFFFFFFFFFE
FFC000000000
FFC000000000
FFC000000000
FFC000000000
FFC000000000
FFC000000000
FFC000000000
FFC000000000
FFC000000000
FFC000000000
FFC000000000
FFC000000000
FFC000000000
FFC000000000
FFC000000000
FFC000000000
FFC000000000
FFC000000000
FFC000000000
FFC000000000
FFC000000000
FFC000000000
FFC000000000
FFC000000000
FFC000000000
FFC000000000
FFC000000000
FFC000000000
FFC000000000
FFFFFFFFFFFE
FFFFFFFFFFFE
FFFFFFFFFFFE
FFFFFFFFFFFE
7FFFFFFFFFFE
7FFFFFFFFFFE
3FFFFFFFFFFE
3FFFFFFFFFFE
0FFFFFFFFFFE
03FFFFFFFFFE
ENDCHAR
STARTCHAR 0064
ENCODING 100
SWIDTH 666 0
DWIDTH 56 0
BBX 48 64 4 0
BITMAP
0000000003FF
0000000003FF
0000000003FF
0000000003FF
0000000003FF
0000000003FF
0000000003FF
0000000003FF
0000000003FF
0000000003FF
0000000003FF
0000000003FF
0000000003FF
0000000003FF
0000000003FF
01FFFFFFFFFF
0FFFFFFFFFFF
1FFFFFFFFFFF
3FFFFFFFFFFF
7FFFFFFFFFFF
7FFFFFFFFFFF
FFFFFFFFFFFF
FFFFFFFFFFFF
FFFFFFFFFFFF
FFFFFFFFFFFF
FFC0000003FF
FFC0000003FF
FFC0000003FF
FFC0000003FF
FFC0000003FF
FFC0000003FF
FFC0000003FF
FFC0000003FF
FFC0000003FF
FFC0000003FF
FFC0000003FF
FFC0000003FF
FFC0000003FF
FFC0000003FF
FFC0000003FF
FFC0000003FF
FFC0000003FF
FFC0000003FF
FFC0000003FF
FFC0000003FF
FFC0000003FF
FFC0000003FF
FFC0000003FF
FFC0000003FF
FFC0000003FF
FFC0000003FF
FFC0000003FF
FFC0000003FF
FFC0000003FF
FFFFFFFFFFFF
FFFFFFFFFFFF
FFFFFFFFFFFF
FFFFFFFFFFFF
7FFFFFFFFFFF
7FFFFFFFFFFF
3FFFFFFFFFFF
1FFFFFFFFFFF
0FFFFFFFFFFF
03FFFFFFFFFF
ENDCHAR
STARTCHAR 0065
ENCODING 101
SWIDTH 690 0
DWIDTH 58 0
BBX 49 49 4 0
BITMAP
01FFFFFFFFE000
07FFFFFFFFF800
1FFFFFFFFFFC00
3FFFFFFFFFFE00
3FFFFFFFFFFF00
7FFFFFFFFFFF00
7FFFFFFFFFFF80
7FFFFFFFFFFF80
7FFFFFFFFFFF80
FFFFFFFFFFFF80
FFC0000001FF80
FFC0000001FF80
FFC0000001FF80
FFC0000001FF80
FFC0000001FF80
FFC0000001FF80
FFC0000001FF80
FFC0000001FF80
FFC0000001FF80
FFFFFFFFFFFF80
FFFFFFFFFFFF80
FFFFFFFFFFFF80
FFFFFFFFFFFF80
FFFFFFFFFFFF80
FFFFFFFFFFFF00
FFFFFFFFFFFE00
FFFFFFFFFFFC00
FFFFFFFFFFF800
FFFFFFFFFFE000
FFC00000000000
FFC00000000000
FFC00000000000
FFC00000000000
FFC00000000000
FFC00000000000
FFC00000000000
FFC00000000000
FFC00000000000
FFC00000000000
FFFFFFFFFFFE00
7FFFFFFFFFFE00
7FFFFFFFFFFE00
7FFFFFFFFFFE00
7FFFFFFFFFFE00
3FFFFFFFFFFE00
1FFFFFFFFFFE00
0FFFFFFFFFFE00
07FFFFFFFFFE00
01FFFFFFFFFE00
ENDCHAR
STARTCHAR 0066
ENCODING 102
SWIDTH 321 0
DWIDTH 27 0
BBX 23 64 2 0
BITMAP
001FFE
007FFE
01FFFE
03FFFE
03FFFE
07FFFE
07FFFE
07FFFE
0FFFFE
0FFFFE
0FFC00
0FFC00
0FFC00
0FFC00
0FFC00
FFFFF0
FFFFF0
FFFFF0
FFFFF0
FFFFF0
FFFFF0
FFFFF0
FFFFF0
FFFFF0
FFFFF0
0FFC00
0FFC00
0FFC00
0FFC00
0FFC00
0FFC00
0FFC00
0FFC00
0FFC00
0FFC00
0FFC00
0FFC00
0FFC00
0FFC00
0FFC00
0FFC00
0FFC00
0FFC00
0FFC00
0FFC00
0FFC00
0FFC00
0FFC00
0FFC00
0FFC00
0FFC00
0FFC00
0FFC00
0FFC00
0FFC00
0FFC00
0FFC00
0FFC00
0FFC00
0FFC00
0FFC00
0FFC00
0FFC00
0FFC00
ENDCHAR
STARTCHAR 0067
ENCODING 103
SWIDTH 690 0
DWIDTH 58 0
BBX 49 65 5 -16
BITMAP
03FFFFFFFFFF80
0FFFFFFFFFFF80
1FFFFFFFFFFF80
3FFFFFFFFFFF80
7FFFFFFFFFFF80
7FFFFFFFFFFF80
FFFFFFFFFFFF80
FFFFFFFFFFFF80
FFFFFFFFFFFF80
FFFFFFFFFFFF80
FFC0000001FF80
FFC0000001FF80
FFC0000001FF80
FFC0000001FF80
FFC0000001FF80
FFC0000001FF80
FFC0000001FF80
FFC0000001FF80
FFC0000001FF80
FFC0000001FF80
FFC0000001FF80
FFC0000001FF80
FFC0000001FF80
FFC0000001FF80
FFC0000001FF80
FFC0000001FF80
FFC0000001FF80
FFC0000001FF80
FFC0000001FF80
FFC0000001FF80
FFC0000001FF80
FFC0000001FF80
FFC0000001FF80
FFC0000001FF80
FFC0000001FF80
FFC0000001FF80
FFC0000001FF80
FFC0000001FF80
FFC0000001FF80
FFFFFFFFFFFF80
FFFFFFFFFFFF80
FFFFFFFFFFFF80
FFFFFFFFFFFF80
7FFFFFFFFFFF80
7FFFFFFFFFFF80
3FFFFFFFFFFF80
1FFFFFFFFFFF80
0FFFFFFFFFFF80
01FFFFFFFFFF80
0000000001FF80
0000000001FF80
0000000001FF80
0000000001FF80
0000000001FF80
0000000001FF80
0000FFFFFFFF80
0000FFFFFFFF80
0000FFFFFFFF80
0000FFFFFFFF00
0000FFFFFFFF00
0000FFFFFFFF00
0000FFFFFFFE00
0000FFFFFFFC00
0000FFFFFFF800
0000FFFFFFE000
ENDCHAR
STARTCHAR 0068
ENCODING 104
SWIDTH 690 0
DWIDTH 58 0
BBX 49 64 4 0
BITMAP
FFC00000000000
FFC00000000000
FFC00000000000
FFC00000000000
FFC00000000000
FFC00000000000
FFC00000000000
FFC00000000000
FFC00000000000
FFC00000000000
FFC00000000000
FFC00000000000
FFC00000000000
FFC00000000000
FFC00000000000
FFFFFFFFFFE000
FFFFFFFFFFFC00
FFFFFFFFFFFE00
FFFFFFFFFFFF00
FFFFFFFFFFFF00
FFFFFFFFFFFF80
FFFFFFFFFFFF80
FFFFFFFFFFFF80
FFFFFFFFFFFF80
FFFFFFFFFFFF80
FFC0000001FF80
FFC0000001FF80
FFC0000001FF80
FFC0000001FF80
FFC0000001FF80
FFC0000001FF80
FFC0000001FF80
FFC0000001FF80
FFC0000001FF80
FFC0000001FF80
FFC0000001FF80
FFC0000001FF80
FFC0000001FF80
FFC0000001FF80
FFC0000001FF80
FFC0000001FF80
FFC0000001FF80
FFC0000001FF80
FFC0000001FF80
FFC0000001FF80
FFC0000001FF80
FFC0000001FF80
FFC0000001FF80
FFC0000001FF80
FFC0000001FF80
FFC0000001FF80
FFC0000001FF80
FFC0000001FF80
FFC0000001FF80
FFC0000001FF80
FFC0000001FF80
FFC0000001FF80
FFC0000001FF80
FFC0000001FF80
FFC0000001FF80
FFC0000001FF80
FFC0000001FF80
FFC0000001FF80
FFC0000001FF80
ENDCHAR
STARTCHAR 0069
ENCODING 105
SWIDTH 226 0
DWIDTH 19 0
BBX 10 49 5 0
BITMAP
FFC0
FFC0
FFC0
FFC0
FFC0
FFC0
FFC0
FFC0
FFC0
FFC0
FFC0
FFC0
FFC0
FFC0
FFC0
FFC0
FFC0
FFC0
FFC0
FFC0
FFC0
FFC0
FFC0
FFC0
FFC0
FFC0
FFC0
FFC0
FFC0
FFC0
FFC0
FFC0
FFC0
FFC0
FFC0
FFC0
FFC0
FFC0
FFC0
FFC0
FFC0
FFC0
FFC0
FFC0
FFC0
FFC0
FFC0
FFC0
FFC0
ENDCHAR
STARTCHAR 006A
ENCODING 106
SWIDTH 333 0
DWIDTH 28 0
BBX 19 65 4 -16
BITMAP
007FE0
007FE0
007FE0
007FE0
007FE0
007FE0
007FE0
007FE0
007FE0
007FE0
007FE0
007FE0
007FE0
007FE0
007FE0
007FE0
007FE0
007FE0
007FE0
007FE0
007FE0
007FE0
007FE0
007FE0
007FE0
007FE0
007FE0
007FE0
007FE0
007FE0
007FE0
007FE0
007FE0
007FE0
007FE0
007FE0
007FE0
007FE0
007FE0
007FE0
007FE0
007FE0
007FE0
007FE0
007FE0
007FE0
007FE0
007FE0
007FE0
007FE0
007FE0
007FE0
007FE0
007FE0
007FE0
FFFFE0
FFFFE0
FFFFE0
FFFFE0
FFFFC0
FFFFC0
FFFF80
FFFF00
FFFE00
FFF800
ENDCHAR
STARTCHAR 006B
ENCODING 107
SWIDTH 642 0
DWIDTH 54 0
BBX 48 49 3 0
BITMAP
FFC000007FFF
FFC00000FFFE
FFC00001FFF8
FFC00007FFF0
FFC0000FFFC0
FFC0001FFF80
FFC0007FFE00
FFC000FFFC00
FFC003FFF000
FFC007FFE000
FFC00FFFC000
FFC03FFF0000
FFC07FFE0000
FFC0FFF80000
FFC3FFF00000
FFC7FFC00000
FFDFFF800000
FFFFFE000000
FFFFFC000000
FFFFF8000000
FFFFE0000000
FFFFC0000000
FFFF00000000
FFFE00000000
FFF800000000
FFFE00000000
FFFF00000000
FFFFC0000000
FFFFE0000000
FFFFF0000000
FFFFFC000000
FFFFFE000000
FFCFFF800000
FFC7FFC00000
FFC1FFF00000
FFC0FFF80000
FFC07FFE0000
FFC01FFF0000
FFC00FFFC000
FFC007FFE000
FFC001FFF000
FFC000FFFC00
FFC0007FFE00
FFC0001FFF80
FFC0000FFFC0
FFC00007FFF0
FFC00001FFF8
FFC00000FFFE
FFC000003FFF
ENDCHAR
STARTCHAR 006C
ENCODING 108
SWIDTH 226 0
DWIDTH 19 0
BBX 10 64 5 0
BITMAP
FFC0
FFC0
FFC0
FFC0
FFC0
FFC0
FFC0
FFC0
FFC0
FFC0
FFC0
FFC0
FFC0
FFC0
FFC0
FFC0
FFC0
FFC0
FFC0
FFC0
FFC0
FFC0
FFC0
FFC0
FFC0
FFC0
FFC0
FFC0
FFC0
FFC0
FFC0
FFC0
FFC0
FFC0
FFC0
FFC0
FFC0
FFC0
FFC0
FFC0
FFC0
FFC0
FFC0
FFC0
FFC0
FFC0
FFC0
FFC0
FFC0
FFC0
FFC0
FFC0
FFC0
FFC0
FFC0
FFC0
FFC0
FFC0
FFC0
FFC0
FFC0
FFC0
FFC0
FFC0
ENDCHAR
STARTCHAR 006D
ENCODING 109
SWIDTH 940 0
DWIDTH 79 0
BBX 68 49 5 0
BITMAP
FFFFFFFFFFFFFFFC00
FFFFFFFFFFFFFFFF00
FFFFFFFFFFFFFFFF80
FFFFFFFFFFFFFFFFC0
FFFFFFFFFFFFFFFFE0
FFFFFFFFFFFFFFFFE0
FFFFFFFFFFFFFFFFF0
FFFFFFFFFFFFFFFFF0
FFFFFFFFFFFFFFFFF0
FFFFFFFFFFFFFFFFF0
FFC00007FE00003FF0
FFC00007FE00003FF0
FFC00007FE00003FF0
FFC00007FE00003FF0
FFC00007FE00003FF0
FFC00007FE00003FF0
FFC00007FE00003FF0
FFC00007FE00003FF0
FFC00007FE00003FF0
FFC00007FE00003FF0
FFC00007FE00003FF0
FFC00007FE00003FF0
FFC00007FE00003FF0
FFC00007FE00003FF0
FFC00007FE00003FF0
FFC00007FE00003FF0
FFC00007FE00003FF0
FFC00007FE00003FF0
FFC00007FE00003FF0
FFC00007FE00003FF0
FFC00007FE00003FF0
FFC00007FE00003FF0
FFC00007FE00003FF0
FFC00007FE00003FF0
FFC00007FE00003FF0
FFC00007FE00003FF0
FFC00007FE00003FF0
FFC00007FE00003FF0
FFC00007FE00003FF0
FFC00007FE00003FF0
FFC00007FE00003FF0
FFC00007FE00003FF0
FFC00007FE00003FF0
FFC00007FE00003FF0
FFC00007FE00003FF0
FFC00007FE00003FF0
FFC00007FE00003FF0
FFC00007FE00003FF0
FFC00007FE00003FF0
ENDCHAR
STARTCHAR 006E
ENCODING 110
SWIDTH 642 0
DWIDTH 54 0
BBX 46 49 4 0
BITMAP
FFFFFFFFFF00
FFFFFFFFFFE0
FFFFFFFFFFF0
FFFFFFFFFFF8
FFFFFFFFFFF8
FFFFFFFFFFFC
FFFFFFFFFFFC
FFFFFFFFFFFC
FFFFFFFFFFFC
FFFFFFFFFFFC
FFC000000FFC
FFC000000FFC
FFC000000FFC
FFC000000FFC
FFC000000FFC
FFC000000FFC
FFC000000FFC
FFC000000FFC
FFC000000FFC
FFC000000FFC
FFC000000FFC
FFC000000FFC
FFC000000FFC
FFC000000FFC
FFC000000FFC
FFC000000FFC
FFC000000FFC
FFC000000FFC
FFC000000FFC
FFC000000FFC
FFC000000FFC
FFC000000FFC
FFC000000FFC
FFC000000FFC
FFC000000FFC
FFC000000FFC
FFC000000FFC
FFC000000FFC
FFC000000FFC
FFC000000FFC
FFC000000FFC
FFC000000FFC
FFC000000FFC
FFC000000FFC
FFC000000FFC
FFC000000FFC
FFC000000FFC
FFC000000FFC
FFC000000FFC
ENDCHAR
STARTCHAR 006F
ENCODING 111
SWIDTH 654 0
DWIDTH 55 0
BBX 49 49 3 0
BITMAP
01FFFFFFFFE000
07FFFFFFFFF800
0FFFFFFFFFFC00
1FFFFFFFFFFE00
3FFFFFFFFFFF00
7FFFFFFFFFFF00
7FFFFFFFFFFF80
7FFFFFFFFFFF80
7FFFFFFFFFFF80
FFFFFFFFFFFF80
FFC0000001FF80
FFC0000001FF80
FFC0000001FF80
FFC0000001FF80
FFC0000001FF80
FFC0000001FF80
FFC0000001FF80
FFC0000001FF80
FFC0000001FF80
FFC0000001FF80
FFC0000001FF80
FFC0000001FF80
FFC0000001FF80
FFC0000001FF80
FFC0000001FF80
FFC0000001FF80
FFC0000001FF80
FFC0000001FF80
FFC0000001FF80
FFC0000001FF80
FFC0000001FF80
FFC0000001FF80
FFC0000001FF80
FFC0000001FF80
FFC0000001FF80
FFC0000001FF80
FFC0000001FF80
FFC0000001FF80
FFC0000001FF80
FFFFFFFFFFFF80
7FFFFFFFFFFF80
7FFFFFFFFFFF80
7FFFFFFFFFFF80
7FFFFFFFFFFF80
3FFFFFFFFFFF00
3FFFFFFFFFFF00
1FFFFFFFFFFE00
0FFFFFFFFFFC00
01FFFFFFFFE000
ENDCHAR
STARTCHAR 0070
ENCODING 112
SWIDTH 690 0
DWIDTH 58 0
BBX 49 65 4 -16
BITMAP
FFFFFFFFFFE000
FFFFFFFFFFF800
FFFFFFFFFFFC00
FFFFFFFFFFFE00
FFFFFFFFFFFF00
FFFFFFFFFFFF80
FFFFFFFFFFFF80
FFFFFFFFFFFF80
FFFFFFFFFFFF80
FFFFFFFFFFFF80
FFC0000001FF80
FFC0000001FF80
FFC0000001FF80
FFC0000001FF80
FFC0000001FF80
FFC0000001FF80
FFC0000001FF80
FFC0000001FF80
FFC0000001FF80
FFC0000001FF80
FFC0000001FF80
FFC0000001FF80
FFC0000001FF80
FFC0000001FF80
FFC0000001FF80
FFC0000001FF80
FFC0000001FF80
FFC0000001FF80
FFC0000001FF80
FFC0000001FF80
FFC0000001FF80
FFC0000001FF80
FFC0000001FF80
FFC0000001FF80
FFC0000001FF80
FFC0000001FF80
FFC0000001FF80
FFC0000001FF80
FFC0000001FF80
FFFFFFFFFFFF80
FFFFFFFFFFFF80
FFFFFFFFFFFF80
FFFFFFFFFFFF80
FFFFFFFFFFFF80
FFFFFFFFFFFF00
FFFFFFFFFFFE00
FFFFFFFFFFFC00
FFFFFFFFFFF800
FFFFFFFFFFE000
FFC00000000000
FFC00000000000
FFC00000000000
FFC00000000000
FFC00000000000
FFC00000000000
FFC00000000000
FFC00000000000
FFC00000000000
FFC00000000000
FFC00000000000
FFC00000000000
FFC00000000000
FFC00000000000
FFC00000000000
FFC00000000000
ENDCHAR
STARTCHAR 0071
ENCODING 113
SWIDTH 690 0
DWIDTH 58 0
BBX 49 65 5 -16
BITMAP
03FFFFFFFFFF80
0FFFFFFFFFFF80
1FFFFFFFFFFF80
3FFFFFFFFFFF80
7FFFFFFFFFFF80
7FFFFFFFFFFF80
FFFFFFFFFFFF80
FFFFFFFFFFFF80
FFFFFFFFFFFF80
FFFFFFFFFFFF80
FFC0000001FF80
FFC0000001FF80
FFC0000001FF80
FFC0000001FF80
FFC0000001FF80
FFC0000001FF80
FFC0000001FF80
FFC0000001FF80
FFC0000001FF80
FFC0000001FF80
FFC0000001FF80
FFC0000001FF80
FFC0000001FF80
FFC0000001FF80
FFC0000001FF80
FFC0000001FF80
FFC0000001FF80
FFC0000001FF80
FFC0000001FF80
FFC0000001FF80
FFC0000001FF80
FFC0000001FF80
FFC0000001FF80
FFC0000001FF80
FFC0000001FF80
FFC0000001FF80
FFC0000001FF80
FFC0000001FF80
FFC0000001FF80
FFFFFFFFFFFF80
FFFFFFFFFFFF80
FFFFFFFFFFFF80
FFFFFFFFFFFF80
7FFFFFFFFFFF80
7FFFFFFFFFFF80
3FFFFFFFFFFF80
1FFFFFFFFFFF80
0FFFFFFFFFFF80
01FFFFFFFFFF80
0000000001FF80
0000000001FF80
0000000001FF80
0000000001FF80
0000000001FF80
0000000001FF80
0000000001FF80
0000000001FF80
0000000001FF80
0000000001FF80
0000000001FF80
0000000001FF80
0000000001FF80
0000000001FF80
0000000001FF80
0000000001FF80
ENDCHAR
STARTCHAR 0072
ENCODING 114
SWIDTH 619 0
DWIDTH 52 0
BBX 45 49 4 0
BITMAP
FFFFFFFFFE00
FFFFFFFFFF80
FFFFFFFFFFC0
FFFFFFFFFFE0
FFFFFFFFFFF0
FFFFFFFFFFF0
FFFFFFFFFFF8
FFFFFFFFFFF8
FFFFFFFFFFF8
FFFFFFFFFFF8
FFC000001FF8
FFC000001FF8
FFC000001FF8
FFC000001FF8
FFC000001FF8
FFC000001FF8
FFC000001FF8
FFC000001FF8
FFC000001FF8
FFC000001FF8
FFC000000000
FFC000000000
FFC000000000
FFC000000000
FFC000000000
FFC000000000
FFC000000000
FFC000000000
FFC000000000
FFC000000000
FFC000000000
FFC000000000
FFC000000000
FFC000000000
FFC000000000
FFC000000000
FFC000000000
FFC000000000
FFC000000000
FFC000000000
FFC000000000
FFC000000000
FFC000000000
FFC000000000
FFC000000000
FFC000000000
FFC000000000
FFC000000000
FFC000000000
ENDCHAR
STARTCHAR 0073
ENCODING 115
SWIDTH 642 0
DWIDTH 54 0
BBX 46 49 5 0
BITMAP
03FFFFFFFFC0
0FFFFFFFFFC0
1FFFFFFFFFC0
3FFFFFFFFFC0
7FFFFFFFFFC0
7FFFFFFFFFC0
FFFFFFFFFFC0
FFFFFFFFFFC0
FFFFFFFFFFC0
FFFFFFFFFFC0
FFC000000000
FFC000000000
FFC000000000
FFC000000000
FFC000000000
FFC000000000
FFC000000000
FFC000000000
FFC000000000
FFFFFFFFF000
FFFFFFFFFF00
FFFFFFFFFFC0
FFFFFFFFFFE0
FFFFFFFFFFF0
7FFFFFFFFFF0
3FFFFFFFFFF8
1FFFFFFFFFF8
0FFFFFFFFFF8
03FFFFFFFFFC
000000000FFC
000000000FFC
000000000FFC
000000000FFC
000000000FFC
000000000FFC
000000000FFC
000000000FFC
000000000FFC
000000000FFC
FFFFFFFFFFFC
FFFFFFFFFFF8
FFFFFFFFFFF8
FFFFFFFFFFF8
FFFFFFFFFFF8
FFFFFFFFFFF0
FFFFFFFFFFE0
FFFFFFFFFFC0
FFFFFFFFFF80
FFFFFFFFFE00
ENDCHAR
STARTCHAR 0074
ENCODING 116
SWIDTH 309 0
DWIDTH 26 0
BBX 20 63 3 0
BITMAP
FFC000
FFC000
FFC000
FFC000
FFC000
FFC000
FFC000
FFC000
FFC000
FFC000
FFC000
FFC000
FFC000
FFC000
FFFFF0
FFFFF0
FFFFF0
FFFFF0
FFFFF0
FFFFF0
FFFFF0
FFFFF0
FFFFF0
FFFFF0
FFC000
FFC000
FFC000
FFC000
FFC000
FFC000
FFC000
FFC000
FFC000
FFC000
FFC000
FFC000
FFC000
FFC000
FFC000
FFC000
FFC000
FFC000
FFC000
FFC000
FFC000
FFC000
FFC000
FFC000
FFC000
FFC000
FFC000
FFC000
FFC000
FFFFF0
FFFFF0
FFFFF0
FFFFF0
7FFFF0
7FFFF0
3FFFF0
1FFFF0
0FFFF0
03FFF0
ENDCHAR
STARTCHAR 0075
ENCODING 117
SWIDTH 690 0
DWIDTH 58 0
BBX 49 49 5 0
BITMAP
FFC0000001FF80
FFC0000001FF80
FFC0000001FF80
FFC0000001FF80
FFC0000001FF80
FFC0000001FF80
FFC0000001FF80
FFC0000001FF80
FFC0000001FF80
FFC0000001FF80
FFC0000001FF80
FFC0000001FF80
FFC0000001FF80
FFC0000001FF80
FFC0000001FF80
FFC0000001FF80
FFC0000001FF80
FFC0000001FF80
FFC0000001FF80
FFC0000001FF80
FFC0000001FF80
FFC0000001FF80
FFC0000001FF80
FFC0000001FF80
FFC0000001FF80
FFC0000001FF80
FFC0000001FF80
FFC0000001FF80
FFC0000001FF80
FFC0000001FF80
FFC0000001FF80
FFC0000001FF80
FFC0000001FF80
FFC0000001FF80
FFC0000001FF80
FFC0000001FF80
FFC0000001FF80
FFC0000001FF80
FFC0000001FF80
FFFFFFFFFFFF80
FFFFFFFFFFFF00
FFFFFFFFFFFF00
FFFFFFFFFFFF00
FFFFFFFFFFFF00
7FFFFFFFFFFE00
3FFFFFFFFFFC00
1FFFFFFFFFF800
0FFFFFFFFFF000
03FFFFFFFFC000
ENDCHAR
STARTCHAR 0076
ENCODING 118
SWIDTH 642 0
DWIDTH 54 0
BBX 48 49 3 0
BITMAP
FFC0000003FF
FFC0000003FF
7FE0000007FF
7FE0000007FE
7FF0000007FE
3FF000000FFC
3FF000000FFC
1FF800001FFC
1FF800001FF8
1FF800001FF8
0FFC00003FF0
0FFC00003FF0
07FE00003FF0
07FE00007FE0
07FE00007FE0
03FF00007FC0
03FF0000FFC0
01FF0000FFC0
01FF8001FF80
01FF8001FF80
00FFC001FF00
00FFC003FF00
007FC003FF00
007FE003FE00
007FE007FE00
003FE007FC00
003FF00FFC00
001FF00FFC00
001FF80FF800
001FF81FF800
000FF81FF000
000FFC1FF000
0007FC3FF000
0007FC3FE000
0007FE7FE000
0003FE7FC000
0003FF7FC000
0001FFFFC000
0001FFFF8000
0001FFFF8000
0000FFFF0000
0000FFFF0000
00007FFF0000
00007FFE0000
00007FFE0000
00003FFC0000
00003FFC0000
00001FFC0000
00001FF80000
ENDCHAR
STARTCHAR 0077
ENCODING 119
SWIDTH 976 0
DWIDTH 82 0
BBX 78 49 2 0
BITMAP
FFC000001FE000000FFC
7FE000001FE000001FFC
7FE000001FE000001FF8
7FE000003FF000001FF8
3FF000003FF000003FF0
3FF000003FF000003FF0
1FF800003FF800003FF0
1FF800007FF800007FE0
1FF800007FF800007FE0
0FFC00007FF800007FC0
0FFC0000FFFC0000FFC0
07FC0000FFFC0000FFC0
07FE0000FFFC0001FF80
07FE0000FFFE0001FF80
03FF0001FFFE0001FF00
03FF0001FFFE0003FF00
01FF0001FFFE0003FF00
01FF8003FFFF0003FE00
01FF8003FFFF0007FE00
00FF8003FFFF0007FC00
00FFC003FFFF8007FC00
007FC007FCFF800FFC00
007FC007FCFF800FF800
007FE007FCFF801FF800
003FE007F87FC01FF000
003FF00FF87FC01FF000
001FF00FF87FC03FF000
001FF00FF03FE03FE000
001FF81FF03FE03FE000
000FF81FF03FE07FC000
000FF81FE01FE07FC000
0007FC1FE01FF0FFC000
0007FC3FE01FF0FF8000
0007FC3FE00FF0FF8000
0003FE3FC00FF9FF0000
0003FE7FC00FF9FF0000
0001FF7FC007F9FF0000
0001FF7F8007FBFE0000
0001FF7F8007FFFE0000
0000FFFF8003FFFC0000
0000FFFF0003FFFC0000
00007FFF0003FFFC0000
00007FFF0001FFF80000
00007FFE0001FFF80000
00003FFE0001FFF00000
00003FFE0000FFF00000
00001FFC0000FFF00000
00001FFC0000FFE00000
00001FFC00007FE00000
ENDCHAR
STARTCHAR 0078
ENCODING 120
SWIDTH 761 0
DWIDTH 64 0
BBX 58 49 3 0
BITMAP
FFF000000003FFC0
7FF800000007FF80
3FFC0000000FFF00
1FFE0000001FFE00
0FFF0000003FFC00
07FF8000007FF800
03FFC00000FFF000
01FFE00001FFE000
00FFF00003FFC000
007FF80007FF8000
003FFC000FFF8000
001FFE001FFF0000
000FFF003FFE0000
0007FF807FFC0000
0003FFC07FF80000
0001FFE0FFF00000
0000FFF1FFE00000
00007FFBFFC00000
00003FFFFF800000
00001FFFFF000000
00000FFFFE000000
00000FFFFC000000
000007FFF8000000
000003FFF0000000
000001FFE0000000
000003FFF0000000
000007FFF8000000
000007FFFC000000
00000FFFFE000000
00001FFFFF000000
00003FFFFF800000
00007FFBFFC00000
0000FFF1FFE00000
0001FFE0FFF00000
0003FFC07FF80000
0007FF803FFC0000
000FFF001FFE0000
001FFE000FFF0000
003FFC0007FF0000
007FF80003FF8000
00FFF00001FFC000
01FFE00000FFE000
03FFC000007FF000
07FF8000007FF800
0FFF0000003FFC00
1FFE0000001FFE00
3FFC0000000FFF00
7FF800000007FF80
FFF000000003FFC0
ENDCHAR
STARTCHAR 0079
ENCODING 121
SWIDTH 630 0
DWIDTH 53 0
BBX 49 69 2 -20
BITMAP
FFC0000001FF80
7FE0000003FF00
7FE0000003FF00
3FF0000003FF00
3FF0000007FE00
3FF0000007FE00
1FF800000FFC00
1FF800000FFC00
0FF800000FFC00
0FFC00001FF800
0FFC00001FF800
07FC00001FF800
07FE00003FF000
03FE00003FF000
03FF00007FE000
03FF00007FE000
01FF00007FE000
01FF8000FFC000
00FF8000FFC000
00FF8000FF8000
00FFC001FF8000
007FC001FF8000
007FE001FF0000
007FE003FF0000
003FE003FE0000
003FF007FE0000
001FF007FE0000
001FF007FC0000
001FF80FFC0000
000FF80FFC0000
000FF80FF80000
0007FC1FF80000
0007FC1FF00000
0007FE3FF00000
0003FE3FF00000
0003FE3FE00000
0001FF7FE00000
0001FF7FC00000
0001FF7FC00000
0000FFFFC00000
0000FFFF800000
00007FFF800000
00007FFF000000
00007FFF000000
00003FFF000000
00003FFE000000
00001FFE000000
00001FFE000000
00001FFC000000
00000FFC000000
00001FF8000000
00001FF8000000
00003FF8000000
00003FF0000000
00003FF0000000
00007FE0000000
00007FE0000000
00007FE0000000
0000FFC0000000
0000FFC0000000
0001FF80000000
0001FF80000000
0001FF80000000
0003FF00000000
0003FF00000000
0003FE00000000
0007FE00000000
0007FE00000000
0007FC00000000
ENDCHAR
STARTCHAR 007A
ENCODING 122
SWIDTH 666 0
DWIDTH 56 0
BBX 48 49 4 0
BITMAP
FFFFFFFFFFFF
FFFFFFFFFFFF
FFFFFFFFFFFF
FFFFFFFFFFFF
FFFFFFFFFFFF
FFFFFFFFFFFF
FFFFFFFFFFFE
FFFFFFFFFFFC
FFFFFFFFFFF8
FFFFFFFFFFF0
00000000FFE0
00000001FFC0
00000003FF80
00000007FF00
0000000FFE00
0000001FFC00
0000003FF800
0000007FF000
000000FFE000
000001FFC000
000003FF8000
000007FF0000
00000FFF0000
00001FFE0000
00003FFC0000
00007FF80000
0000FFF00000
0001FFE00000
0003FFC00000
0007FF800000
000FFF000000
000FFE000000
001FFC000000
003FF8000000
007FF0000000
00FFE0000000
01FFC0000000
03FF80000000
07FF00000000
0FFFFFFFFFFF
1FFFFFFFFFFF
3FFFFFFFFFFF
7FFFFFFFFFFF
FFFFFFFFFFFF
FFFFFFFFFFFF
FFFFFFFFFFFF
FFFFFFFFFFFF
FFFFFFFFFFFF
FFFFFFFFFFFF
ENDCHAR
STARTCHAR 007C
ENCODING 124
SWIDTH 214 0
DWIDTH 18 0
BBX 8 75 5 -13
BITMAP
FF
FF
FF
FF
FF
FF
FF
FF
FF
FF
FF
FF
FF
FF
FF
FF
FF
FF
FF
FF
FF
FF
FF
FF
FF
FF
FF
FF
FF
FF
FF
FF
FF
FF
FF
FF
FF
FF
FF
FF
FF
FF
FF
FF
FF
FF
FF
FF
FF
FF
FF
FF
FF
FF
FF
FF
FF
FF
FF
FF
FF
FF
FF
FF
FF
FF
FF
FF
FF
FF
FF
FF
FF
FF
FF
ENDCHAR
STARTCHAR 00A1
ENCODING 161
SWIDTH 285 0
DWIDTH 24 0
BBX 13 65 5 -32
BITMAP
0F80
3FE0
7FF0
7FF8
FFF8
FFF8
FFF8
FFF8
FFF8
7FF8
7FF0
3FE0
0F80
0000
0000
0000
0F80
0F80
0F80
0FC0
0FC0
0FC0
0FC0
1FC0
1FC0
1FC0
1FC0
1FE0
1FE0
1FE0
1FE0
3FE0
3FE0
3FE0
3FE0
3FF0
3FF0
3FF0
3FF0
3FF0
3FF0
3FF0
3FF0
3FF0
3FF0
3FF0
3FF0
3FF0
3FF0
3FF0
3FF0
3FF0
3FF0
3FF0
3FF0
3FF0
3FF0
3FF0
3FF0
3FF0
3FF0
3FF0
3FF0
3FF0
3FF0
ENDCHAR
STARTCHAR 00A3
ENCODING 163
SWIDTH 297 0
DWIDTH 25 0
BBX 0 0 0 0
BITMAP
ENDCHAR
STARTCHAR 00A4
ENCODING 164
SWIDTH 297 0
DWIDTH 25 0
BBX 0 0 0 0
BITMAP
ENDCHAR
STARTCHAR 00A7
ENCODING 167
SWIDTH 297 0
DWIDTH 25 0
BBX 0 0 0 0
BITMAP
ENDCHAR
STARTCHAR 00A8
ENCODING 168
SWIDTH 571 0
DWIDTH 48 0
BBX 23 7 18 55
BITMAP
3C00F0
FF03FC
FF03FC
FF83FE
FF03FC
FF03FC
3C00F8
ENDCHAR
STARTCHAR 00AA
ENCODING 170
SWIDTH 297 0
DWIDTH 25 0
BBX 0 0 0 0
BITMAP
ENDCHAR
STARTCHAR 00AB
ENCODING 171
SWIDTH 297 0
DWIDTH 25 0
BBX 0 0 0 0
BITMAP
ENDCHAR
STARTCHAR 00AC
ENCODING 172
SWIDTH 297 0
DWIDTH 25 0
BBX 0 0 0 0
BITMAP
ENDCHAR
STARTCHAR 00AF
ENCODING 175
SWIDTH 297 0
DWIDTH 25 0
BBX 0 0 0 0
BITMAP
ENDCHAR
STARTCHAR 00B1
ENCODING 177
SWIDTH 297 0
DWIDTH 25 0
BBX 0 0 0 0
BITMAP
ENDCHAR
STARTCHAR 00B2
ENCODING 178
SWIDTH 297 0
DWIDTH 25 0
BBX 0 0 0 0
BITMAP
ENDCHAR
STARTCHAR 00B3
ENCODING 179
SWIDTH 297 0
DWIDTH 25 0
BBX 0 0 0 0
BITMAP
ENDCHAR
STARTCHAR 00B4
ENCODING 180
SWIDTH 500 0
DWIDTH 42 0
BBX 15 9 24 54
BITMAP
03FE
07FC
0FF8
1FF0
1FE0
3FC0
7F80
FF00
FE00
ENDCHAR
STARTCHAR 00B5
ENCODING 181
SWIDTH 297 0
DWIDTH 25 0
BBX 0 0 0 0
BITMAP
ENDCHAR
STARTCHAR 00B7
ENCODING 183
SWIDTH 297 0
DWIDTH 25 0
BBX 0 0 0 0
BITMAP
ENDCHAR
STARTCHAR 00B8
ENCODING 184
SWIDTH 511 0
DWIDTH 43 0
BBX 13 16 15 -14
BITMAP
01C0
0380
0300
0780
07E0
0FF0
1FF8
03F8
01F8
01F8
01F8
01F8
03F0
07E0
FFC0
FF00
ENDCHAR
STARTCHAR 00B9
ENCODING 185
SWIDTH 297 0
DWIDTH 25 0
BBX 0 0 0 0
BITMAP
ENDCHAR
STARTCHAR 00BB
ENCODING 187
SWIDTH 297 0
DWIDTH 25 0
BBX 0 0 0 0
BITMAP
ENDCHAR
STARTCHAR 00BC
ENCODING 188
SWIDTH 297 0
DWIDTH 25 0
BBX 0 0 0 0
BITMAP
ENDCHAR
STARTCHAR 00BD
ENCODING 189
SWIDTH 297 0
DWIDTH 25 0
BBX 0 0 0 0
BITMAP
ENDCHAR
STARTCHAR 00BE
ENCODING 190
SWIDTH 297 0
DWIDTH 25 0
BBX 0 0 0 0
BITMAP
ENDCHAR
STARTCHAR 00BF
ENCODING 191
SWIDTH 571 0
DWIDTH 48 0
BBX 38 65 3 -32
BITMAP
0000007C00
000001FE00
000001FF00
000003FF80
000007FFC0
000007FFC0
000007FFC0
000007FFC0
000007FFC0
000007FFC0
000003FF80
000003FF80
000001FF00
0000007C00
0000000000
0000000000
0000000000
0000000000
000007FE00
000007FE00
000007FE00
000007FE00
000007FE00
000007FE00
000007FE00
000007FE00
000007FE00
000007FE00
000007FE00
000007FE00
000007FE00
000007FE00
000007FE00
000007FE00
000007FE00
01FFFFFE00
0FFFFFFE00
1FFFFFFE00
3FFFFFFC00
3FFFFFFC00
7FFFFFFC00
7FFFFFF800
FFFFFFF000
FFFFFFE000
FFFFFF0000
FFC0000000
FFC0000000
FFC0000000
FFC0000000
FFC0000000
FFC0000000
FFC0000000
FFC0000000
FFC0000000
FFC0000000
FFFFFFFFFC
FFFFFFFFFC
FFFFFFFFFC
FFFFFFFFFC
7FFFFFFFFC
7FFFFFFFFC
3FFFFFFFFC
1FFFFFFFFC
0FFFFFFFFC
03FFFFFFFC
ENDCHAR
STARTCHAR 00C0
ENCODING 192
SWIDTH 738 0
DWIDTH 62 0
BBX 49 74 4 0
BITMAP
0007FC00000000
0003FE00000000
0001FF00000000
0000FF00000000
00007F80000000
00003FC0000000
00001FE0000000
00000FE0000000
000007F0000000
00000000000000
01FFFFFFFFC000
0FFFFFFFFFF000
1FFFFFFFFFF800
3FFFFFFFFFFC00
7FFFFFFFFFFE00
7FFFFFFFFFFF00
7FFFFFFFFFFF00
FFFFFFFFFFFF80
FFFFFFFFFFFF80
FFFFFFFFFFFF80
FFC0000001FF80
FFC0000001FF80
FFC0000001FF80
FFC0000001FF80
FFC0000001FF80
FFC0000001FF80
FFC0000001FF80
FFC0000001FF80
FFC0000001FF80
FFC0000001FF80
FFC0000001FF80
FFC0000001FF80
FFC0000001FF80
FFC0000001FF80
FFC0000001FF80
FFFFFFFFFFFF80
FFFFFFFFFFFF80
FFFFFFFFFFFF80
FFFFFFFFFFFF80
FFFFFFFFFFFF80
FFFFFFFFFFFF80
FFFFFFFFFFFF80
FFFFFFFFFFFF80
FFFFFFFFFFFF80
FFFFFFFFFFFF80
FFC0000001FF80
FFC0000001FF80
FFC0000001FF80
FFC0000001FF80
FFC0000001FF80
FFC0000001FF80
FFC0000001FF80
FFC0000001FF80
FFC0000001FF80
FFC0000001FF80
FFC0000001FF80
FFC0000001FF80
FFC0000001FF80
FFC0000001FF80
FFC0000001FF80
FFC0000001FF80
FFC0000001FF80
FFC0000001FF80
FFC0000001FF80
FFC0000001FF80
FFC0000001FF80
FFC0000001FF80
FFC0000001FF80
FFC0000001FF80
FFC0000001FF80
FFC0000001FF80
FFC0000001FF80
FFC0000001FF80
FFC0000001FF80
ENDCHAR
STARTCHAR 00C1
ENCODING 193
SWIDTH 738 0
DWIDTH 62 0
BBX 49 74 4 0
BITMAP
0000003FE00000
0000007FC00000
000000FF800000
000001FF000000
000001FE000000
000003FC000000
000007F8000000
000007F0000000
00000FE0000000
00000000000000
01FFFFFFFFC000
0FFFFFFFFFF000
1FFFFFFFFFF800
3FFFFFFFFFFC00
7FFFFFFFFFFE00
7FFFFFFFFFFF00
7FFFFFFFFFFF00
FFFFFFFFFFFF80
FFFFFFFFFFFF80
FFFFFFFFFFFF80
FFC0000001FF80
FFC0000001FF80
FFC0000001FF80
FFC0000001FF80
FFC0000001FF80
FFC0000001FF80
FFC0000001FF80
FFC0000001FF80
FFC0000001FF80
FFC0000001FF80
FFC0000001FF80
FFC0000001FF80
FFC0000001FF80
FFC0000001FF80
FFC0000001FF80
FFFFFFFFFFFF80
FFFFFFFFFFFF80
FFFFFFFFFFFF80
FFFFFFFFFFFF80
FFFFFFFFFFFF80
FFFFFFFFFFFF80
FFFFFFFFFFFF80
FFFFFFFFFFFF80
FFFFFFFFFFFF80
FFFFFFFFFFFF80
FFC0000001FF80
FFC0000001FF80
FFC0000001FF80
FFC0000001FF80
FFC0000001FF80
FFC0000001FF80
FFC0000001FF80
FFC0000001FF80
FFC0000001FF80
FFC0000001FF80
FFC0000001FF80
FFC0000001FF80
FFC0000001FF80
FFC0000001FF80
FFC0000001FF80
FFC0000001FF80
FFC0000001FF80
FFC0000001FF80
FFC0000001FF80
FFC0000001FF80
FFC0000001FF80
FFC0000001FF80
FFC0000001FF80
FFC0000001FF80
FFC0000001FF80
FFC0000001FF80
FFC0000001FF80
FFC0000001FF80
FFC0000001FF80
ENDCHAR
STARTCHAR 00C2
ENCODING 194
SWIDTH 738 0
DWIDTH 62 0
BBX 49 74 4 0
BITMAP
00001FFC000000
00003FFE000000
00003FFF000000
00007FFF000000
0000FF7F800000
0000FE3FC00000
0001FC1FC00000
0003F80FE00000
0003F807F00000
00000000000000
01FFFFFFFFC000
0FFFFFFFFFF000
1FFFFFFFFFF800
3FFFFFFFFFFC00
7FFFFFFFFFFE00
7FFFFFFFFFFF00
7FFFFFFFFFFF00
FFFFFFFFFFFF80
FFFFFFFFFFFF80
FFFFFFFFFFFF80
FFC0000001FF80
FFC0000001FF80
FFC0000001FF80
FFC0000001FF80
FFC0000001FF80
FFC0000001FF80
FFC0000001FF80
FFC0000001FF80
FFC0000001FF80
FFC0000001FF80
FFC0000001FF80
FFC0000001FF80
FFC0000001FF80
FFC0000001FF80
FFC0000001FF80
FFFFFFFFFFFF80
FFFFFFFFFFFF80
FFFFFFFFFFFF80
FFFFFFFFFFFF80
FFFFFFFFFFFF80
FFFFFFFFFFFF80
FFFFFFFFFFFF80
FFFFFFFFFFFF80
FFFFFFFFFFFF80
FFFFFFFFFFFF80
FFC0000001FF80
FFC0000001FF80
FFC0000001FF80
FFC0000001FF80
FFC0000001FF80
FFC0000001FF80
FFC0000001FF80
FFC0000001FF80
FFC0000001FF80
FFC0000001FF80
FFC0000001FF80
FFC0000001FF80
FFC0000001FF80
FFC0000001FF80
FFC0000001FF80
FFC0000001FF80
FFC0000001FF80
FFC0000001FF80
FFC0000001FF80
FFC0000001FF80
FFC0000001FF80
FFC0000001FF80
FFC0000001FF80
FFC0000001FF80
FFC0000001FF80
FFC0000001FF80
FFC0000001FF80
FFC0000001FF80
FFC0000001FF80
ENDCHAR
STARTCHAR 00C3
ENCODING 195
SWIDTH 738 0
DWIDTH 62 0
BBX 49 74 4 0
BITMAP
0000FC00080000
0003FF00180000
0007FFC0180000
0007FFF0300000
000E3FFC300000
000C07FFF00000
000C03FFE00000
000800FFC00000
0008001F000000
00000000000000
01FFFFFFFFC000
0FFFFFFFFFF000
1FFFFFFFFFF800
3FFFFFFFFFFC00
7FFFFFFFFFFE00
7FFFFFFFFFFF00
7FFFFFFFFFFF00
FFFFFFFFFFFF80
FFFFFFFFFFFF80
FFFFFFFFFFFF80
FFC0000001FF80
FFC0000001FF80
FFC0000001FF80
FFC0000001FF80
FFC0000001FF80
FFC0000001FF80
FFC0000001FF80
FFC0000001FF80
FFC0000001FF80
FFC0000001FF80
FFC0000001FF80
FFC0000001FF80
FFC0000001FF80
FFC0000001FF80
FFC0000001FF80
FFFFFFFFFFFF80
FFFFFFFFFFFF80
FFFFFFFFFFFF80
FFFFFFFFFFFF80
FFFFFFFFFFFF80
FFFFFFFFFFFF80
FFFFFFFFFFFF80
FFFFFFFFFFFF80
FFFFFFFFFFFF80
FFFFFFFFFFFF80
FFC0000001FF80
FFC0000001FF80
FFC0000001FF80
FFC0000001FF80
FFC0000001FF80
FFC0000001FF80
FFC0000001FF80
FFC0000001FF80
FFC0000001FF80
FFC0000001FF80
FFC0000001FF80
FFC0000001FF80
FFC0000001FF80
FFC0000001FF80
FFC0000001FF80
FFC0000001FF80
FFC0000001FF80
FFC0000001FF80
FFC0000001FF80
FFC0000001FF80
FFC0000001FF80
FFC0000001FF80
FFC0000001FF80
FFC0000001FF80
FFC0000001FF80
FFC0000001FF80
FFC0000001FF80
FFC0000001FF80
FFC0000001FF80
ENDCHAR
STARTCHAR 00C4
ENCODING 196
SWIDTH 738 0
DWIDTH 62 0
BBX 49 73 4 0
BITMAP
0000F807C00000
0001FC0FE00000
0003FE1FF00000
0003FE1FF00000
0003FE1FF00000
0001FC0FE00000
0000F807C00000
00000000000000
00000000000000
01FFFFFFFFC000
0FFFFFFFFFF000
1FFFFFFFFFF800
3FFFFFFFFFFC00
7FFFFFFFFFFE00
7FFFFFFFFFFF00
7FFFFFFFFFFF00
FFFFFFFFFFFF80
FFFFFFFFFFFF80
FFFFFFFFFFFF80
FFC0000001FF80
FFC0000001FF80
FFC0000001FF80
FFC0000001FF80
FFC0000001FF80
FFC0000001FF80
FFC0000001FF80
FFC0000001FF80
FFC0000001FF80
FFC0000001FF80
FFC0000001FF80
FFC0000001FF80
FFC0000001FF80
FFC0000001FF80
FFC0000001FF80
FFFFFFFFFFFF80
FFFFFFFFFFFF80
FFFFFFFFFFFF80
FFFFFFFFFFFF80
FFFFFFFFFFFF80
FFFFFFFFFFFF80
FFFFFFFFFFFF80
FFFFFFFFFFFF80
FFFFFFFFFFFF80
FFFFFFFFFFFF80
FFC0000001FF80
FFC0000001FF80
FFC0000001FF80
FFC0000001FF80
FFC0000001FF80
FFC0000001FF80
FFC0000001FF80
FFC0000001FF80
FFC0000001FF80
FFC0000001FF80
FFC0000001FF80
FFC0000001FF80
FFC0000001FF80
FFC0000001FF80
FFC0000001FF80
FFC0000001FF80
FFC0000001FF80
FFC0000001FF80
FFC0000001FF80
FFC0000001FF80
FFC0000001FF80
FFC0000001FF80
FFC0000001FF80
FFC0000001FF80
FFC0000001FF80
FFC0000001FF80
FFC0000001FF80
FFC0000001FF80
FFC0000001FF80
ENDCHAR
STARTCHAR 00C5
ENCODING 197
SWIDTH 738 0
DWIDTH 62 0
BBX 49 76 4 0
BITMAP
000003F0000000
00000FFC000000
00001FFE000000
00003E1F000000
00007807000000
00007003800000
00007003800000
00007003800000
00007003800000
00007807000000
00003E1F000000
00001FFE000000
01FFFFFFFFC000
0FFFFFFFFFF000
1FFFFFFFFFF800
3FFFFFFFFFFC00
7FFFFFFFFFFE00
7FFFFFFFFFFF00
7FFFFFFFFFFF00
FFFFFFFFFFFF80
FFFFFFFFFFFF80
FFFFFFFFFFFF80
FFC0000001FF80
FFC0000001FF80
FFC0000001FF80
FFC0000001FF80
FFC0000001FF80
FFC0000001FF80
FFC0000001FF80
FFC0000001FF80
FFC0000001FF80
FFC0000001FF80
FFC0000001FF80
FFC0000001FF80
FFC0000001FF80
FFC0000001FF80
FFC0000001FF80
FFFFFFFFFFFF80
FFFFFFFFFFFF80
FFFFFFFFFFFF80
FFFFFFFFFFFF80
FFFFFFFFFFFF80
FFFFFFFFFFFF80
FFFFFFFFFFFF80
FFFFFFFFFFFF80
FFFFFFFFFFFF80
FFFFFFFFFFFF80
FFC0000001FF80
FFC0000001FF80
FFC0000001FF80
FFC0000001FF80
FFC0000001FF80
FFC0000001FF80
FFC0000001FF80
FFC0000001FF80
FFC0000001FF80
FFC0000001FF80
FFC0000001FF80
FFC0000001FF80
FFC0000001FF80
FFC0000001FF80
FFC0000001FF80
FFC0000001FF80
FFC0000001FF80
FFC0000001FF80
FFC0000001FF80
FFC0000001FF80
FFC0000001FF80
FFC0000001FF80
FFC0000001FF80
FFC0000001FF80
FFC0000001FF80
FFC0000001FF80
FFC0000001FF80
FFC0000001FF80
FFC0000001FF80
ENDCHAR
STARTCHAR 00C6
ENCODING 198
SWIDTH 738 0
DWIDTH 62 0
BBX 58 64 2 0
BITMAP
01FFFFFFFFFFFFC0
0FFFFFFFFFFFFFC0
1FFFFFFFFFFFFFC0
3FFFFFFFFFFFFFC0
3FFFFFFFFFFFFFC0
7FFFFFFFFFFFFFC0
7FFFFFFFFFFFFFC0
FFFFFFFFFFFFFFC0
FFFFFFFFFFFFFFC0
FFFFFFFFFFFFFFC0
FFC0003FF0000000
FFC0003FF0000000
FFC0003FF0000000
FFC0003FF0000000
FFC0003FF0000000
FFC0003FF0000000
FFC0003FF0000000
FFC0003FF0000000
FFC0003FF0000000
FFC0003FF0000000
FFFFFFFFFFFFFFC0
FFFFFFFFFFFFFFC0
FFFFFFFFFFFFFFC0
FFFFFFFFFFFFFFC0
FFFFFFFFFFFFFFC0
FFFFFFFFFFFFFFC0
FFFFFFFFFFFFFFC0
FFFFFFFFFFFFFFC0
FFFFFFFFFFFFFFC0
FFFFFFFFFFFFFFC0
FFC0003FF0000000
FFC0003FF0000000
FFC0003FF0000000
FFC0003FF0000000
FFC0003FF0000000
FFC0003FF0000000
FFC0003FF0000000
FFC0003FF0000000
FFC0003FF0000000
FFC0003FF0000000
FFC0003FF0000000
FFC0003FF0000000
FFC0003FF0000000
FFC0003FF0000000
FFC0003FF0000000
FFC0003FF0000000
FFC0003FF0000000
FFC0003FF0000000
FFC0003FF0000000
FFC0003FF0000000
FFC0003FF0000000
FFC0003FF0000000
FFC0003FF0000000
FFC0003FF0000000
FFC0003FFFFFFFC0
FFC0003FFFFFFFC0
FFC0003FFFFFFFC0
FFC0003FFFFFFFC0
FFC0003FFFFFFFC0
FFC0003FFFFFFFC0
FFC0003FFFFFFFC0
FFC0003FFFFFFFC0
FFC0003FFFFFFFC0
FFC0003FFFFFFFC0
ENDCHAR
STARTCHAR 00C7
ENCODING 199
SWIDTH 630 0
DWIDTH 53 0
BBX 47 78 3 -14
BITMAP
01FFFFFFFFFE
07FFFFFFFFFE
1FFFFFFFFFFE
3FFFFFFFFFFE
3FFFFFFFFFFE
7FFFFFFFFFFE
7FFFFFFFFFFE
FFFFFFFFFFFE
FFFFFFFFFFFE
FFFFFFFFFFFE
FFC000000000
FFC000000000
FFC000000000
FFC000000000
FFC000000000
FFC000000000
FFC000000000
FFC000000000
FFC000000000
FFC000000000
FFC000000000
FFC000000000
FFC000000000
FFC000000000
FFC000000000
FFC000000000
FFC000000000
FFC000000000
FFC000000000
FFC000000000
FFC000000000
FFC000000000
FFC000000000
FFC000000000
FFC000000000
FFC000000000
FFC000000000
FFC000000000
FFC000000000
FFC000000000
FFC000000000
FFC000000000
FFC000000000
FFC000000000
FFC000000000
FFC000000000
FFC000000000
FFC000000000
FFC000000000
FFC000000000
FFC000000000
FFC000000000
FFC000000000
FFC000000000
FFFFFFFFFFFE
FFFFFFFFFFFE
FFFFFFFFFFFE
FFFFFFFFFFFE
7FFFFFFFFFFE
7FFFFFFFFFFE
3FFFFFFFFFFE
3FFFFFFFFFFE
0FFFFFFFFFFE
03FFFFFFFFFE
000000E00000
000000F00000
000001FC0000
000001FE0000
000003FE0000
0000007F0000
0000003F0000
0000003F0000
0000003F0000
0000007E0000
0000007E0000
000001FC0000
00001FF80000
00001FC00000
ENDCHAR
STARTCHAR 00C8
ENCODING 200
SWIDTH 630 0
DWIDTH 53 0
BBX 39 74 5 0
BITMAP
001FF00000
000FF80000
0007FC0000
0003FC0000
0001FE0000
0000FF0000
00007F8000
00003F8000
00001FC000
0000000000
FFFFFFFFFE
FFFFFFFFFE
FFFFFFFFFE
FFFFFFFFFE
FFFFFFFFFE
FFFFFFFFFE
FFFFFFFFFE
FFFFFFFFFE
FFFFFFFFFE
FFFFFFFFFE
FFC0000000
FFC0000000
FFC0000000
FFC0000000
FFC0000000
FFC0000000
FFC0000000
FFC0000000
FFC0000000
FFC0000000
FFC0000000
FFC0000000
FFC0000000
FFC0000000
FFC0000000
FFFFFFFFF0
FFFFFFFFF0
FFFFFFFFF0
FFFFFFFFF0
FFFFFFFFF0
FFFFFFFFF0
FFFFFFFFF0
FFFFFFFFF0
FFFFFFFFF0
FFFFFFFFF0
FFC0000000
FFC0000000
FFC0000000
FFC0000000
FFC0000000
FFC0000000
FFC0000000
FFC0000000
FFC0000000
FFC0000000
FFC0000000
FFC0000000
FFC0000000
FFC0000000
FFC0000000
FFC0000000
FFC0000000
FFC0000000
FFC0000000
FFFFFFFFFE
FFFFFFFFFE
FFFFFFFFFE
FFFFFFFFFE
FFFFFFFFFE
FFFFFFFFFE
FFFFFFFFFE
FFFFFFFFFE
FFFFFFFFFE
FFFFFFFFFE
ENDCHAR
STARTCHAR 00C9
ENCODING 201
SWIDTH 630 0
DWIDTH 53 0
BBX 39 74 5 0
BITMAP
000003FE00
000007FC00
00000FF800
00000FF000
00001FE000
00003FC000
00003F8000
00007F0000
0000FE0000
0000000000
FFFFFFFFFE
FFFFFFFFFE
FFFFFFFFFE
FFFFFFFFFE
FFFFFFFFFE
FFFFFFFFFE
FFFFFFFFFE
FFFFFFFFFE
FFFFFFFFFE
FFFFFFFFFE
FFC0000000
FFC0000000
FFC0000000
FFC0000000
FFC0000000
FFC0000000
FFC0000000
FFC0000000
FFC0000000
FFC0000000
FFC0000000
FFC0000000
FFC0000000
FFC0000000
FFC0000000
FFFFFFFFF0
FFFFFFFFF0
FFFFFFFFF0
FFFFFFFFF0
FFFFFFFFF0
FFFFFFFFF0
FFFFFFFFF0
FFFFFFFFF0
FFFFFFFFF0
FFFFFFFFF0
FFC0000000
FFC0000000
FFC0000000
FFC0000000
FFC0000000
FFC0000000
FFC0000000
FFC0000000
FFC0000000
FFC0000000
FFC0000000
FFC0000000
FFC0000000
FFC0000000
FFC0000000
FFC0000000
FFC0000000
FFC0000000
FFC0000000
FFFFFFFFFE
FFFFFFFFFE
FFFFFFFFFE
FFFFFFFFFE
FFFFFFFFFE
FFFFFFFFFE
FFFFFFFFFE
FFFFFFFFFE
FFFFFFFFFE
FFFFFFFFFE
ENDCHAR
STARTCHAR 00CA
ENCODING 202
SWIDTH 630 0
DWIDTH 53 0
BBX 39 74 5 0
BITMAP
0001FFE000
0001FFE000
0003FFF000
0007FFF800
0007F3F800
000FE3FC00
001FC1FE00
003FC0FE00
003F807F00
0000000000
FFFFFFFFFE
FFFFFFFFFE
FFFFFFFFFE
FFFFFFFFFE
FFFFFFFFFE
FFFFFFFFFE
FFFFFFFFFE
FFFFFFFFFE
FFFFFFFFFE
FFFFFFFFFE
FFC0000000
FFC0000000
FFC0000000
FFC0000000
FFC0000000
FFC0000000
FFC0000000
FFC0000000
FFC0000000
FFC0000000
FFC0000000
FFC0000000
FFC0000000
FFC0000000
FFC0000000
FFFFFFFFF0
FFFFFFFFF0
FFFFFFFFF0
FFFFFFFFF0
FFFFFFFFF0
FFFFFFFFF0
FFFFFFFFF0
FFFFFFFFF0
FFFFFFFFF0
FFFFFFFFF0
FFC0000000
FFC0000000
FFC0000000
FFC0000000
FFC0000000
FFC0000000
FFC0000000
FFC0000000
FFC0000000
FFC0000000
FFC0000000
FFC0000000
FFC0000000
FFC0000000
FFC0000000
FFC0000000
FFC0000000
FFC0000000
FFC0000000
FFFFFFFFFE
FFFFFFFFFE
FFFFFFFFFE
FFFFFFFFFE
FFFFFFFFFE
FFFFFFFFFE
FFFFFFFFFE
FFFFFFFFFE
FFFFFFFFFE
FFFFFFFFFE
ENDCHAR
STARTCHAR 00CB
ENCODING 203
SWIDTH 630 0
DWIDTH 53 0
BBX 39 73 5 0
BITMAP
000F803E00
001FC07F00
003FE0FF80
003FE0FF80
003FE0FF80
001FC07F00
000F803E00
0000000000
0000000000
FFFFFFFFFE
FFFFFFFFFE
FFFFFFFFFE
FFFFFFFFFE
FFFFFFFFFE
FFFFFFFFFE
FFFFFFFFFE
FFFFFFFFFE
FFFFFFFFFE
FFFFFFFFFE
FFC0000000
FFC0000000
FFC0000000
FFC0000000
FFC0000000
FFC0000000
FFC0000000
FFC0000000
FFC0000000
FFC0000000
FFC0000000
FFC0000000
FFC0000000
FFC0000000
FFC0000000
FFFFFFFFF0
FFFFFFFFF0
FFFFFFFFF0
FFFFFFFFF0
FFFFFFFFF0
FFFFFFFFF0
FFFFFFFFF0
FFFFFFFFF0
FFFFFFFFF0
FFFFFFFFF0
FFC0000000
FFC0000000
FFC0000000
FFC0000000
FFC0000000
FFC0000000
FFC0000000
FFC0000000
FFC0000000
FFC0000000
FFC0000000
FFC0000000
FFC0000000
FFC0000000
FFC0000000
FFC0000000
FFC0000000
FFC0000000
FFC0000000
FFFFFFFFFE
FFFFFFFFFE
FFFFFFFFFE
FFFFFFFFFE
FFFFFFFFFE
FFFFFFFFFE
FFFFFFFFFE
FFFFFFFFFE
FFFFFFFFFE
FFFFFFFFFE
ENDCHAR
STARTCHAR 00CC
ENCODING 204
SWIDTH 261 0
DWIDTH 22 0
BBX 16 74 -1 0
BITMAP
FF80
7FC0
3FE0
1FF0
0FF0
07F8
03FC
01FC
00FE
0000
03FF
03FF
03FF
03FF
03FF
03FF
03FF
03FF
03FF
03FF
03FF
03FF
03FF
03FF
03FF
03FF
03FF
03FF
03FF
03FF
03FF
03FF
03FF
03FF
03FF
03FF
03FF
03FF
03FF
03FF
03FF
03FF
03FF
03FF
03FF
03FF
03FF
03FF
03FF
03FF
03FF
03FF
03FF
03FF
03FF
03FF
03FF
03FF
03FF
03FF
03FF
03FF
03FF
03FF
03FF
03FF
03FF
03FF
03FF
03FF
03FF
03FF
03FF
03FF
ENDCHAR
STARTCHAR 00CD
ENCODING 205
SWIDTH 250 0
DWIDTH 21 0
BBX 16 74 5 0
BITMAP
01FF
03FE
03FC
07F8
0FF0
0FE0
1FC0
3FC0
7F80
0000
FFC0
FFC0
FFC0
FFC0
FFC0
FFC0
FFC0
FFC0
FFC0
FFC0
FFC0
FFC0
FFC0
FFC0
FFC0
FFC0
FFC0
FFC0
FFC0
FFC0
FFC0
FFC0
FFC0
FFC0
FFC0
FFC0
FFC0
FFC0
FFC0
FFC0
FFC0
FFC0
FFC0
FFC0
FFC0
FFC0
FFC0
FFC0
FFC0
FFC0
FFC0
FFC0
FFC0
FFC0
FFC0
FFC0
FFC0
FFC0
FFC0
FFC0
FFC0
FFC0
FFC0
FFC0
FFC0
FFC0
FFC0
FFC0
FFC0
FFC0
FFC0
FFC0
FFC0
FFC0
ENDCHAR
STARTCHAR 00CE
ENCODING 206
SWIDTH 261 0
DWIDTH 22 0
BBX 23 74 -1 0
BITMAP
03FF80
07FFC0
0FFFC0
0FFFE0
1FEFF0
3FC7F8
3F83F8
7F01FC
FE00FE
000000
03FF00
03FF00
03FF00
03FF00
03FF00
03FF00
03FF00
03FF00
03FF00
03FF00
03FF00
03FF00
03FF00
03FF00
03FF00
03FF00
03FF00
03FF00
03FF00
03FF00
03FF00
03FF00
03FF00
03FF00
03FF00
03FF00
03FF00
03FF00
03FF00
03FF00
03FF00
03FF00
03FF00
03FF00
03FF00
03FF00
03FF00
03FF00
03FF00
03FF00
03FF00
03FF00
03FF00
03FF00
03FF00
03FF00
03FF00
03FF00
03FF00
03FF00
03FF00
03FF00
03FF00
03FF00
03FF00
03FF00
03FF00
03FF00
03FF00
03FF00
03FF00
03FF00
03FF00
03FF00
ENDCHAR
STARTCHAR 00CF
ENCODING 207
SWIDTH 250 0
DWIDTH 21 0
BBX 23 73 -1 0
BITMAP
3C00F0
FF03FC
FF03FC
FF83FE
FF03FC
FF03FC
3C00F0
000000
000000
03FF00
03FF00
03FF00
03FF00
03FF00
03FF00
03FF00
03FF00
03FF00
03FF00
03FF00
03FF00
03FF00
03FF00
03FF00
03FF00
03FF00
03FF00
03FF00
03FF00
03FF00
03FF00
03FF00
03FF00
03FF00
03FF00
03FF00
03FF00
03FF00
03FF00
03FF00
03FF00
03FF00
03FF00
03FF00
03FF00
03FF00
03FF00
03FF00
03FF00
03FF00
03FF00
03FF00
03FF00
03FF00
03FF00
03FF00
03FF00
03FF00
03FF00
03FF00
03FF00
03FF00
03FF00
03FF00
03FF00
03FF00
03FF00
03FF00
03FF00
03FF00
03FF00
03FF00
03FF00
ENDCHAR
STARTCHAR 00D1
ENCODING 209
SWIDTH 761 0
DWIDTH 64 0
BBX 49 74 5 0
BITMAP
0003F000600000
000FFC00600000
001FFF00600000
001FFFC0C00000
0038FFF1C00000
00303FFF800000
00200FFF800000
006003FF000000
0060007C000000
00000000000000
FC00000001FF80
FC00000001FF80
FE00000001FF80
FF00000001FF80
FF80000001FF80
FF80000001FF80
FFC0000001FF80
FFE0000001FF80
FFF0000001FF80
FFF0000001FF80
FFF8000001FF80
FFFC000001FF80
FFFE000001FF80
FFFF000001FF80
FFFF000001FF80
FFFF800001FF80
FFFFC00001FF80
FFFFE00001FF80
FFFFE00001FF80
FFFFF00001FF80
FFFFF80001FF80
FFDFFC0001FF80
FFCFFC0001FF80
FFC7FE0001FF80
FFC7FF0001FF80
FFC3FF8001FF80
FFC1FF8001FF80
FFC0FFC001FF80
FFC0FFE001FF80
FFC07FF001FF80
FFC03FF001FF80
FFC01FF801FF80
FFC01FFC01FF80
FFC00FFE01FF80
FFC007FF01FF80
FFC003FF01FF80
FFC001FF81FF80
FFC001FFC1FF80
FFC000FFE1FF80
FFC0007FE1FF80
FFC0003FF1FF80
FFC0003FF9FF80
FFC0001FFDFF80
FFC0000FFDFF80
FFC00007FFFF80
FFC00007FFFF80
FFC00003FFFF80
FFC00001FFFF80
FFC00000FFFF80
FFC000007FFF80
FFC000007FFF80
FFC000003FFF80
FFC000001FFF80
FFC000000FFF80
FFC000000FFF80
FFC0000007FF80
FFC0000003FF80
FFC0000001FF80
FFC0000001FF80
FFC0000000FF80
FFC00000007F80
FFC00000003F80
FFC00000001F80
FFC00000001F80
ENDCHAR
STARTCHAR 00D2
ENCODING 210
SWIDTH 738 0
DWIDTH 62 0
BBX 49 74 4 0
BITMAP
000FF800000000
0007FC00000000
0003FE00000000
0001FE00000000
0000FF00000000
00007F80000000
00003FC0000000
00001FC0000000
00000FE0000000
00000000000000
01FFFFFFFFC000
07FFFFFFFFF000
1FFFFFFFFFFC00
3FFFFFFFFFFE00
3FFFFFFFFFFE00
7FFFFFFFFFFF00
7FFFFFFFFFFF00
FFFFFFFFFFFF80
FFFFFFFFFFFF80
FFFFFFFFFFFF80
FFC0000001FF80
FFC0000001FF80
FFC0000001FF80
FFC0000001FF80
FFC0000001FF80
FFC0000001FF80
FFC0000001FF80
FFC0000001FF80
FFC0000001FF80
FFC0000001FF80
FFC0000001FF80
FFC0000001FF80
FFC0000001FF80
FFC0000001FF80
FFC0000001FF80
FFC0000001FF80
FFC0000001FF80
FFC0000001FF80
FFC0000001FF80
FFC0000001FF80
FFC0000001FF80
FFC0000001FF80
FFC0000001FF80
FFC0000001FF80
FFC0000001FF80
FFC0000001FF80
FFC0000001FF80
FFC0000001FF80
FFC0000001FF80
FFC0000001FF80
FFC0000001FF80
FFC0000001FF80
FFC0000001FF80
FFC0000001FF80
FFC0000001FF80
FFC0000001FF80
FFC0000001FF80
FFC0000001FF80
FFC0000001FF80
FFC0000001FF80
FFC0000001FF80
FFC0000001FF80
FFC0000001FF80
FFC0000001FF80
FFFFFFFFFFFF80
FFFFFFFFFFFF80
FFFFFFFFFFFF80
FFFFFFFFFFFF80
7FFFFFFFFFFF00
7FFFFFFFFFFF00
3FFFFFFFFFFE00
1FFFFFFFFFFE00
0FFFFFFFFFF800
03FFFFFFFFE000
ENDCHAR
STARTCHAR 00D3
ENCODING 211
SWIDTH 738 0
DWIDTH 62 0
BBX 49 74 4 0
BITMAP
0000003FE00000
0000003FC00000
0000007F800000
000000FF000000
000001FE000000
000001FC000000
000003F8000000
000007F0000000
00000FF0000000
00000000000000
01FFFFFFFFC000
07FFFFFFFFF000
1FFFFFFFFFFC00
3FFFFFFFFFFE00
3FFFFFFFFFFE00
7FFFFFFFFFFF00
7FFFFFFFFFFF00
FFFFFFFFFFFF80
FFFFFFFFFFFF80
FFFFFFFFFFFF80
FFC0000001FF80
FFC0000001FF80
FFC0000001FF80
FFC0000001FF80
FFC0000001FF80
FFC0000001FF80
FFC0000001FF80
FFC0000001FF80
FFC0000001FF80
FFC0000001FF80
FFC0000001FF80
FFC0000001FF80
FFC0000001FF80
FFC0000001FF80
FFC0000001FF80
FFC0000001FF80
FFC0000001FF80
FFC0000001FF80
FFC0000001FF80
FFC0000001FF80
FFC0000001FF80
FFC0000001FF80
FFC0000001FF80
FFC0000001FF80
FFC0000001FF80
FFC0000001FF80
FFC0000001FF80
FFC0000001FF80
FFC0000001FF80
FFC0000001FF80
FFC0000001FF80
FFC0000001FF80
FFC0000001FF80
FFC0000001FF80
FFC0000001FF80
FFC0000001FF80
FFC0000001FF80
FFC0000001FF80
FFC0000001FF80
FFC0000001FF80
FFC0000001FF80
FFC0000001FF80
FFC0000001FF80
FFC0000001FF80
FFFFFFFFFFFF80
FFFFFFFFFFFF80
FFFFFFFFFFFF80
FFFFFFFFFFFF80
7FFFFFFFFFFF00
7FFFFFFFFFFF00
3FFFFFFFFFFE00
1FFFFFFFFFFE00
0FFFFFFFFFF800
03FFFFFFFFE000
ENDCHAR
STARTCHAR 00D4
ENCODING 212
SWIDTH 738 0
DWIDTH 62 0
BBX 49 74 4 0
BITMAP
00001FFC000000
00003FFE000000
00007FFF000000
00007FFF000000
0000FF7F800000
0001FE3FC00000
0001FC1FC00000
0003F80FE00000
0007F807F00000
00000000000000
01FFFFFFFFC000
07FFFFFFFFF000
1FFFFFFFFFFC00
3FFFFFFFFFFE00
3FFFFFFFFFFE00
7FFFFFFFFFFF00
7FFFFFFFFFFF00
FFFFFFFFFFFF80
FFFFFFFFFFFF80
FFFFFFFFFFFF80
FFC0000001FF80
FFC0000001FF80
FFC0000001FF80
FFC0000001FF80
FFC0000001FF80
FFC0000001FF80
FFC0000001FF80
FFC0000001FF80
FFC0000001FF80
FFC0000001FF80
FFC0000001FF80
FFC0000001FF80
FFC0000001FF80
FFC0000001FF80
FFC0000001FF80
FFC0000001FF80
FFC0000001FF80
FFC0000001FF80
FFC0000001FF80
FFC0000001FF80
FFC0000001FF80
FFC0000001FF80
FFC0000001FF80
FFC0000001FF80
FFC0000001FF80
FFC0000001FF80
FFC0000001FF80
FFC0000001FF80
FFC0000001FF80
FFC0000001FF80
FFC0000001FF80
FFC0000001FF80
FFC0000001FF80
FFC0000001FF80
FFC0000001FF80
FFC0000001FF80
FFC0000001FF80
FFC0000001FF80
FFC0000001FF80
FFC0000001FF80
FFC0000001FF80
FFC0000001FF80
FFC0000001FF80
FFC0000001FF80
FFFFFFFFFFFF80
FFFFFFFFFFFF80
FFFFFFFFFFFF80
FFFFFFFFFFFF80
7FFFFFFFFFFF00
7FFFFFFFFFFF00
3FFFFFFFFFFE00
1FFFFFFFFFFE00
0FFFFFFFFFF800
03FFFFFFFFE000
ENDCHAR
STARTCHAR 00D5
ENCODING 213
SWIDTH 738 0
DWIDTH 62 0
BBX 49 74 4 0
BITMAP
00007C000C0000
0001FF800C0000
0003FFE0080000
0007FFF0180000
00071FFE380000
000607FFF00000
000C01FFF00000
000C007FE00000
000C001F800000
00000000000000
01FFFFFFFFC000
07FFFFFFFFF000
1FFFFFFFFFFC00
3FFFFFFFFFFE00
3FFFFFFFFFFE00
7FFFFFFFFFFF00
7FFFFFFFFFFF00
FFFFFFFFFFFF80
FFFFFFFFFFFF80
FFFFFFFFFFFF80
FFC0000001FF80
FFC0000001FF80
FFC0000001FF80
FFC0000001FF80
FFC0000001FF80
FFC0000001FF80
FFC0000001FF80
FFC0000001FF80
FFC0000001FF80
FFC0000001FF80
FFC0000001FF80
FFC0000001FF80
FFC0000001FF80
FFC0000001FF80
FFC0000001FF80
FFC0000001FF80
FFC0000001FF80
FFC0000001FF80
FFC0000001FF80
FFC0000001FF80
FFC0000001FF80
FFC0000001FF80
FFC0000001FF80
FFC0000001FF80
FFC0000001FF80
FFC0000001FF80
FFC0000001FF80
FFC0000001FF80
FFC0000001FF80
FFC0000001FF80
FFC0000001FF80
FFC0000001FF80
FFC0000001FF80
FFC0000001FF80
FFC0000001FF80
FFC0000001FF80
FFC0000001FF80
FFC0000001FF80
FFC0000001FF80
FFC0000001FF80
FFC0000001FF80
FFC0000001FF80
FFC0000001FF80
FFC0000001FF80
FFFFFFFFFFFF80
FFFFFFFFFFFF80
FFFFFFFFFFFF80
FFFFFFFFFFFF80
7FFFFFFFFFFF00
7FFFFFFFFFFF00
3FFFFFFFFFFE00
1FFFFFFFFFFE00
0FFFFFFFFFF800
03FFFFFFFFE000
ENDCHAR
STARTCHAR 00D6
ENCODING 214
SWIDTH 738 0
DWIDTH 62 0
BBX 49 73 4 0
BITMAP
0001F007C00000
0003F80FE00000
0007FC1FF00000
0007FC1FF00000
0007FC1FF00000
0003F80FE00000
0001F007C00000
00000000000000
00000000000000
01FFFFFFFFC000
07FFFFFFFFF000
1FFFFFFFFFFC00
3FFFFFFFFFFE00
3FFFFFFFFFFE00
7FFFFFFFFFFF00
7FFFFFFFFFFF00
FFFFFFFFFFFF80
FFFFFFFFFFFF80
FFFFFFFFFFFF80
FFC0000001FF80
FFC0000001FF80
FFC0000001FF80
FFC0000001FF80
FFC0000001FF80
FFC0000001FF80
FFC0000001FF80
FFC0000001FF80
FFC0000001FF80
FFC0000001FF80
FFC0000001FF80
FFC0000001FF80
FFC0000001FF80
FFC0000001FF80
FFC0000001FF80
FFC0000001FF80
FFC0000001FF80
FFC0000001FF80
FFC0000001FF80
FFC0000001FF80
FFC0000001FF80
FFC0000001FF80
FFC0000001FF80
FFC0000001FF80
FFC0000001FF80
FFC0000001FF80
FFC0000001FF80
FFC0000001FF80
FFC0000001FF80
FFC0000001FF80
FFC0000001FF80
FFC0000001FF80
FFC0000001FF80
FFC0000001FF80
FFC0000001FF80
FFC0000001FF80
FFC0000001FF80
FFC0000001FF80
FFC0000001FF80
FFC0000001FF80
FFC0000001FF80
FFC0000001FF80
FFC0000001FF80
FFC0000001FF80
FFFFFFFFFFFF80
FFFFFFFFFFFF80
FFFFFFFFFFFF80
FFFFFFFFFFFF80
7FFFFFFFFFFF00
7FFFFFFFFFFF00
3FFFFFFFFFFE00
1FFFFFFFFFFE00
0FFFFFFFFFF800
03FFFFFFFFE000
ENDCHAR
STARTCHAR 00D8
ENCODING 216
SWIDTH 726 0
DWIDTH 61 0
BBX 49 64 5 0
BITMAP
01FFFFFFFFC000
07FFFFFFFFF000
1FFFFFFFFFFC00
3FFFFFFFFFFE00
3FFFFFFFFFFE00
7FFFFFFFFFFF00
7FFFFFFFFFFF00
FFFFFFFFFFFF80
FFFFFFFFFFFF80
FFFFFFFFFFFF80
FFC000007FFF80
FFC000007FFF80
FFC00000FFFF80
FFC00000FDFF80
FFC00001FDFF80
FFC00001F9FF80
FFC00003F9FF80
FFC00007F1FF80
FFC00007F1FF80
FFC0000FE1FF80
FFC0000FC1FF80
FFC0001FC1FF80
FFC0001F81FF80
FFC0003F81FF80
FFC0007F01FF80
FFC0007F01FF80
FFC000FE01FF80
FFC000FC01FF80
FFC001FC01FF80
FFC003F801FF80
FFC003F801FF80
FFC007F001FF80
FFC007F001FF80
FFC00FE001FF80
FFC00FC001FF80
FFC01FC001FF80
FFC03F8001FF80
FFC03F8001FF80
FFC07F0001FF80
FFC07E0001FF80
FFC0FE0001FF80
FFC0FC0001FF80
FFC1FC0001FF80
FFC3F80001FF80
FFC3F80001FF80
FFC7F00001FF80
FFC7E00001FF80
FFCFE00001FF80
FFCFC00001FF80
FFDFC00001FF80
FFFF800001FF80
FFFF800001FF80
FFFF000001FF80
FFFE000001FF80
FFFFFFFFFFFF80
FFFFFFFFFFFF80
FFFFFFFFFFFF80
FFFFFFFFFFFF80
7FFFFFFFFFFF00
7FFFFFFFFFFF00
3FFFFFFFFFFE00
3FFFFFFFFFFE00
0FFFFFFFFFF800
03FFFFFFFFE000
ENDCHAR
STARTCHAR 00D9
ENCODING 217
SWIDTH 761 0
DWIDTH 64 0
BBX 49 74 5 0
BITMAP
0001FE00000000
0000FF00000000
00007F80000000
00007FC0000000
00003FC0000000
00001FE0000000
00000FF0000000
000007F8000000
000003F8000000
00000000000000
FFC0000001FF80
FFC0000001FF80
FFC0000001FF80
FFC0000001FF80
FFC0000001FF80
FFC0000001FF80
FFC0000001FF80
FFC0000001FF80
FFC0000001FF80
FFC0000001FF80
FFC0000001FF80
FFC0000001FF80
FFC0000001FF80
FFC0000001FF80
FFC0000001FF80
FFC0000001FF80
FFC0000001FF80
FFC0000001FF80
FFC0000001FF80
FFC0000001FF80
FFC0000001FF80
FFC0000001FF80
FFC0000001FF80
FFC0000001FF80
FFC0000001FF80
FFC0000001FF80
FFC0000001FF80
FFC0000001FF80
FFC0000001FF80
FFC0000001FF80
FFC0000001FF80
FFC0000001FF80
FFC0000001FF80
FFC0000001FF80
FFC0000001FF80
FFC0000001FF80
FFC0000001FF80
FFC0000001FF80
FFC0000001FF80
FFC0000001FF80
FFC0000001FF80
FFC0000001FF80
FFC0000001FF80
FFC0000001FF80
FFC0000001FF80
FFC0000001FF80
FFC0000001FF80
FFC0000001FF80
FFC0000001FF80
FFC0000001FF80
FFC0000001FF80
FFC0000001FF80
FFC0000001FF80
FFC0000001FF80
FFFFFFFFFFFF80
FFFFFFFFFFFF80
FFFFFFFFFFFF80
7FFFFFFFFFFF00
7FFFFFFFFFFF00
7FFFFFFFFFFF00
3FFFFFFFFFFE00
1FFFFFFFFFFC00
0FFFFFFFFFF800
01FFFFFFFFC000
ENDCHAR
STARTCHAR 00DA
ENCODING 218
SWIDTH 761 0
DWIDTH 64 0
BBX 49 74 5 0
BITMAP
0000007FC00000
000000FF800000
000000FF000000
000001FE000000
000003FC000000
000003F8000000
000007F0000000
00000FE0000000
00001FC0000000
00000000000000
FFC0000001FF80
FFC0000001FF80
FFC0000001FF80
FFC0000001FF80
FFC0000001FF80
FFC0000001FF80
FFC0000001FF80
FFC0000001FF80
FFC0000001FF80
FFC0000001FF80
FFC0000001FF80
FFC0000001FF80
FFC0000001FF80
FFC0000001FF80
FFC0000001FF80
FFC0000001FF80
FFC0000001FF80
FFC0000001FF80
FFC0000001FF80
FFC0000001FF80
FFC0000001FF80
FFC0000001FF80
FFC0000001FF80
FFC0000001FF80
FFC0000001FF80
FFC0000001FF80
FFC0000001FF80
FFC0000001FF80
FFC0000001FF80
FFC0000001FF80
FFC0000001FF80
FFC0000001FF80
FFC0000001FF80
FFC0000001FF80
FFC0000001FF80
FFC0000001FF80
FFC0000001FF80
FFC0000001FF80
FFC0000001FF80
FFC0000001FF80
FFC0000001FF80
FFC0000001FF80
FFC0000001FF80
FFC0000001FF80
FFC0000001FF80
FFC0000001FF80
FFC0000001FF80
FFC0000001FF80
FFC0000001FF80
FFC0000001FF80
FFC0000001FF80
FFC0000001FF80
FFC0000001FF80
FFC0000001FF80
FFFFFFFFFFFF80
FFFFFFFFFFFF80
FFFFFFFFFFFF80
7FFFFFFFFFFF00
7FFFFFFFFFFF00
7FFFFFFFFFFF00
3FFFFFFFFFFE00
1FFFFFFFFFFC00
0FFFFFFFFFF800
01FFFFFFFFC000
ENDCHAR
STARTCHAR 00DB
ENCODING 219
SWIDTH 761 0
DWIDTH 64 0
BBX 49 74 5 0
BITMAP
00001FFC000000
00003FFE000000
00007FFE000000
00007FFF000000
0000FE7F800000
0001FE3F800000
0001FC1FC00000
0003F81FE00000
0007F00FE00000
00000000000000
FFC0000001FF80
FFC0000001FF80
FFC0000001FF80
FFC0000001FF80
FFC0000001FF80
FFC0000001FF80
FFC0000001FF80
FFC0000001FF80
FFC0000001FF80
FFC0000001FF80
FFC0000001FF80
FFC0000001FF80
FFC0000001FF80
FFC0000001FF80
FFC0000001FF80
FFC0000001FF80
FFC0000001FF80
FFC0000001FF80
FFC0000001FF80
FFC0000001FF80
FFC0000001FF80
FFC0000001FF80
FFC0000001FF80
FFC0000001FF80
FFC0000001FF80
FFC0000001FF80
FFC0000001FF80
FFC0000001FF80
FFC0000001FF80
FFC0000001FF80
FFC0000001FF80
FFC0000001FF80
FFC0000001FF80
FFC0000001FF80
FFC0000001FF80
FFC0000001FF80
FFC0000001FF80
FFC0000001FF80
FFC0000001FF80
FFC0000001FF80
FFC0000001FF80
FFC0000001FF80
FFC0000001FF80
FFC0000001FF80
FFC0000001FF80
FFC0000001FF80
FFC0000001FF80
FFC0000001FF80
FFC0000001FF80
FFC0000001FF80
FFC0000001FF80
FFC0000001FF80
FFC0000001FF80
FFC0000001FF80
FFFFFFFFFFFF80
FFFFFFFFFFFF80
FFFFFFFFFFFF80
7FFFFFFFFFFF00
7FFFFFFFFFFF00
7FFFFFFFFFFF00
3FFFFFFFFFFE00
1FFFFFFFFFFC00
0FFFFFFFFFF800
01FFFFFFFFC000
ENDCHAR
STARTCHAR 00DC
ENCODING 220
SWIDTH 761 0
DWIDTH 64 0
BBX 49 73 5 0
BITMAP
0001F007C00000
0003F80FE00000
0007FC1FF00000
0007FC1FF00000
0007FC1FF00000
0003F80FE00000
0001F007C00000
00000000000000
00000000000000
FFC0000001FF80
FFC0000001FF80
FFC0000001FF80
FFC0000001FF80
FFC0000001FF80
FFC0000001FF80
FFC0000001FF80
FFC0000001FF80
FFC0000001FF80
FFC0000001FF80
FFC0000001FF80
FFC0000001FF80
FFC0000001FF80
FFC0000001FF80
FFC0000001FF80
FFC0000001FF80
FFC0000001FF80
FFC0000001FF80
FFC0000001FF80
FFC0000001FF80
FFC0000001FF80
FFC0000001FF80
FFC0000001FF80
FFC0000001FF80
FFC0000001FF80
FFC0000001FF80
FFC0000001FF80
FFC0000001FF80
FFC0000001FF80
FFC0000001FF80
FFC0000001FF80
FFC0000001FF80
FFC0000001FF80
FFC0000001FF80
FFC0000001FF80
FFC0000001FF80
FFC0000001FF80
FFC0000001FF80
FFC0000001FF80
FFC0000001FF80
FFC0000001FF80
FFC0000001FF80
FFC0000001FF80
FFC0000001FF80
FFC0000001FF80
FFC0000001FF80
FFC0000001FF80
FFC0000001FF80
FFC0000001FF80
FFC0000001FF80
FFC0000001FF80
FFC0000001FF80
FFC0000001FF80
FFC0000001FF80
FFFFFFFFFFFF80
FFFFFFFFFFFF80
FFFFFFFFFFFF80
7FFFFFFFFFFF00
7FFFFFFFFFFF00
7FFFFFFFFFFF00
3FFFFFFFFFFE00
1FFFFFFFFFFC00
0FFFFFFFFFF800
01FFFFFFFFC000
ENDCHAR
STARTCHAR 00DD
ENCODING 221
SWIDTH 595 0
DWIDTH 50 0
BBX 0 0 0 0
BITMAP
ENDCHAR
STARTCHAR 00DE
ENCODING 222
SWIDTH 297 0
DWIDTH 25 0
BBX 0 0 0 0
BITMAP
ENDCHAR
STARTCHAR 00DF
ENCODING 223
SWIDTH 630 0
DWIDTH 53 0
BBX 49 64 4 0
BITMAP
01FFFFFFFFC000
0FFFFFFFFFF000
1FFFFFFFFFF800
3FFFFFFFFFFC00
7FFFFFFFFFFE00
7FFFFFFFFFFF00
FFFFFFFFFFFF00
FFFFFFFFFFFF80
FFFFFFFFFFFF80
FFFFFFFFFFFF80
FFC0000001FF80
FFC0000001FF80
FFC0000001FF80
FFC0000001FF80
FFC0000001FF80
FFC0000001FF80
FFC0000001FF80
FFC0000001FF80
FFC0000001FF80
FFC0000001FF80
FFC0000001FF80
FFC0000001FF80
FFC0000001FF80
FFC0000001FF80
FFC0000001FF80
FFC01FFFFFFF00
FFC01FFFFFFF00
FFC01FFFFFFE00
FFC01FFFFFFC00
FFC01FFFFFF800
FFC01FFFFFF000
FFC01FFFFFFC00
FFC01FFFFFFE00
FFC01FFFFFFF00
FFC01FFFFFFF00
FFC0000001FF80
FFC0000001FF80
FFC0000001FF80
FFC0000001FF80
FFC0000001FF80
FFC0000001FF80
FFC0000001FF80
FFC0000001FF80
FFC0000001FF80
FFC0000001FF80
FFC0000001FF80
FFC0000001FF80
FFC0000001FF80
FFC0000001FF80
FFC0000001FF80
FFC0000001FF80
FFC0000001FF80
FFC0000001FF80
FFC0000001FF80
FFC01FFFFFFF80
FFC01FFFFFFF80
FFC01FFFFFFF80
FFC01FFFFFFF00
FFC01FFFFFFF00
FFC01FFFFFFF00
FFC01FFFFFFE00
FFC01FFFFFFC00
FFC01FFFFFF800
FFC01FFFFFE000
ENDCHAR
STARTCHAR 00E0
ENCODING 224
SWIDTH 773 0
DWIDTH 65 0
BBX 49 63 5 0
BITMAP
0007FC00000000
0003FE00000000
0001FE00000000
0000FF00000000
00007F80000000
00003FC0000000
00001FC0000000
00000FE0000000
000007F0000000
00000000000000
00000000000000
00000000000000
00000000000000
00000000000000
FFFFFFFFFFC000
FFFFFFFFFFF000
FFFFFFFFFFFC00
FFFFFFFFFFFE00
FFFFFFFFFFFE00
FFFFFFFFFFFF00
FFFFFFFFFFFF00
FFFFFFFFFFFF80
FFFFFFFFFFFF80
FFFFFFFFFFFF80
0000000001FF80
0000000001FF80
0000000001FF80
0000000001FF80
0000000001FF80
0000000001FF80
0000000001FF80
0000000001FF80
0000000001FF80
01FFFFFFFFFF80
0FFFFFFFFFFF80
1FFFFFFFFFFF80
3FFFFFFFFFFF80
7FFFFFFFFFFF80
7FFFFFFFFFFF80
7FFFFFFFFFFF80
FFFFFFFFFFFF80
FFFFFFFFFFFF80
FFFFFFFFFFFF80
FFC0000001FF80
FFC0000001FF80
FFC0000001FF80
FFC0000001FF80
FFC0000001FF80
FFC0000001FF80
FFC0000001FF80
FFC0000001FF80
FFC0000001FF80
FFC0000001FF80
FFFFFFFFFFFF80
FFFFFFFFFFFF80
FFFFFFFFFFFF80
7FFFFFFFFFFF80
7FFFFFFFFFFF80
3FFFFFFFFFFF80
3FFFFFFFFFFF80
1FFFFFFFFFFF80
0FFFFFFFFFFF80
01FFFFFFFFFF80
ENDCHAR
STARTCHAR 00E1
ENCODING 225
SWIDTH 773 0
DWIDTH 65 0
BBX 49 63 5 0
BITMAP
0000007FC00000
0000007F800000
000000FF000000
000001FE000000
000003FC000000
000003F8000000
000007F0000000
00000FE0000000
00001FE0000000
00000000000000
00000000000000
00000000000000
00000000000000
00000000000000
FFFFFFFFFFC000
FFFFFFFFFFF000
FFFFFFFFFFFC00
FFFFFFFFFFFE00
FFFFFFFFFFFE00
FFFFFFFFFFFF00
FFFFFFFFFFFF00
FFFFFFFFFFFF80
FFFFFFFFFFFF80
FFFFFFFFFFFF80
0000000001FF80
0000000001FF80
0000000001FF80
0000000001FF80
0000000001FF80
0000000001FF80
0000000001FF80
0000000001FF80
0000000001FF80
01FFFFFFFFFF80
0FFFFFFFFFFF80
1FFFFFFFFFFF80
3FFFFFFFFFFF80
7FFFFFFFFFFF80
7FFFFFFFFFFF80
7FFFFFFFFFFF80
FFFFFFFFFFFF80
FFFFFFFFFFFF80
FFFFFFFFFFFF80
FFC0000001FF80
FFC0000001FF80
FFC0000001FF80
FFC0000001FF80
FFC0000001FF80
FFC0000001FF80
FFC0000001FF80
FFC0000001FF80
FFC0000001FF80
FFC0000001FF80
FFFFFFFFFFFF80
FFFFFFFFFFFF80
FFFFFFFFFFFF80
7FFFFFFFFFFF80
7FFFFFFFFFFF80
3FFFFFFFFFFF80
3FFFFFFFFFFF80
1FFFFFFFFFFF80
0FFFFFFFFFFF80
01FFFFFFFFFF80
ENDCHAR
STARTCHAR 00E2
ENCODING 226
SWIDTH 773 0
DWIDTH 65 0
BBX 49 63 5 0
BITMAP
00003FF8000000
00007FFC000000
0000FFFE000000
0000FFFE000000
0001FEFF000000
0003FC7F800000
0003F83F800000
0007F01FC00000
000FE00FE00000
00000000000000
00000000000000
00000000000000
00000000000000
00000000000000
FFFFFFFFFFC000
FFFFFFFFFFF000
FFFFFFFFFFFC00
FFFFFFFFFFFE00
FFFFFFFFFFFE00
FFFFFFFFFFFF00
FFFFFFFFFFFF00
FFFFFFFFFFFF80
FFFFFFFFFFFF80
FFFFFFFFFFFF80
0000000001FF80
0000000001FF80
0000000001FF80
0000000001FF80
0000000001FF80
0000000001FF80
0000000001FF80
0000000001FF80
0000000001FF80
01FFFFFFFFFF80
0FFFFFFFFFFF80
1FFFFFFFFFFF80
3FFFFFFFFFFF80
7FFFFFFFFFFF80
7FFFFFFFFFFF80
7FFFFFFFFFFF80
FFFFFFFFFFFF80
FFFFFFFFFFFF80
FFFFFFFFFFFF80
FFC0000001FF80
FFC0000001FF80
FFC0000001FF80
FFC0000001FF80
FFC0000001FF80
FFC0000001FF80
FFC0000001FF80
FFC0000001FF80
FFC0000001FF80
FFC0000001FF80
FFFFFFFFFFFF80
FFFFFFFFFFFF80
FFFFFFFFFFFF80
7FFFFFFFFFFF80
7FFFFFFFFFFF80
3FFFFFFFFFFF80
3FFFFFFFFFFF80
1FFFFFFFFFFF80
0FFFFFFFFFFF80
01FFFFFFFFFF80
ENDCHAR
STARTCHAR 00E3
ENCODING 227
SWIDTH 773 0
DWIDTH 65 0
BBX 49 63 5 0
BITMAP
0003F000200000
0007FC00600000
000FFF00600000
001FFFC0600000
00187FF0C00000
00301FFFC00000
003007FF800000
003003FF000000
0020007C000000
00000000000000
00000000000000
00000000000000
00000000000000
00000000000000
FFFFFFFFFFC000
FFFFFFFFFFF000
FFFFFFFFFFFC00
FFFFFFFFFFFE00
FFFFFFFFFFFE00
FFFFFFFFFFFF00
FFFFFFFFFFFF00
FFFFFFFFFFFF80
FFFFFFFFFFFF80
FFFFFFFFFFFF80
0000000001FF80
0000000001FF80
0000000001FF80
0000000001FF80
0000000001FF80
0000000001FF80
0000000001FF80
0000000001FF80
0000000001FF80
01FFFFFFFFFF80
0FFFFFFFFFFF80
1FFFFFFFFFFF80
3FFFFFFFFFFF80
7FFFFFFFFFFF80
7FFFFFFFFFFF80
7FFFFFFFFFFF80
FFFFFFFFFFFF80
FFFFFFFFFFFF80
FFFFFFFFFFFF80
FFC0000001FF80
FFC0000001FF80
FFC0000001FF80
FFC0000001FF80
FFC0000001FF80
FFC0000001FF80
FFC0000001FF80
FFC0000001FF80
FFC0000001FF80
FFC0000001FF80
FFFFFFFFFFFF80
FFFFFFFFFFFF80
FFFFFFFFFFFF80
7FFFFFFFFFFF80
7FFFFFFFFFFF80
3FFFFFFFFFFF80
3FFFFFFFFFFF80
1FFFFFFFFFFF80
0FFFFFFFFFFF80
01FFFFFFFFFF80
ENDCHAR
STARTCHAR 00E4
ENCODING 228
SWIDTH 773 0
DWIDTH 65 0
BBX 49 62 5 0
BITMAP
0001F007C00000
0003F80FE00000
0007FC1FF00000
0007FC1FF00000
0007FC1FF00000
0003F80FE00000
0001F007C00000
00000000000000
00000000000000
00000000000000
00000000000000
00000000000000
00000000000000
FFFFFFFFFFC000
FFFFFFFFFFF000
FFFFFFFFFFFC00
FFFFFFFFFFFE00
FFFFFFFFFFFE00
FFFFFFFFFFFF00
FFFFFFFFFFFF00
FFFFFFFFFFFF80
FFFFFFFFFFFF80
FFFFFFFFFFFF80
0000000001FF80
0000000001FF80
0000000001FF80
0000000001FF80
0000000001FF80
0000000001FF80
0000000001FF80
0000000001FF80
0000000001FF80
01FFFFFFFFFF80
0FFFFFFFFFFF80
1FFFFFFFFFFF80
3FFFFFFFFFFF80
7FFFFFFFFFFF80
7FFFFFFFFFFF80
7FFFFFFFFFFF80
FFFFFFFFFFFF80
FFFFFFFFFFFF80
FFFFFFFFFFFF80
FFC0000001FF80
FFC0000001FF80
FFC0000001FF80
FFC0000001FF80
FFC0000001FF80
FFC0000001FF80
FFC0000001FF80
FFC0000001FF80
FFC0000001FF80
FFC0000001FF80
FFFFFFFFFFFF80
FFFFFFFFFFFF80
FFFFFFFFFFFF80
7FFFFFFFFFFF80
7FFFFFFFFFFF80
3FFFFFFFFFFF80
3FFFFFFFFFFF80
1FFFFFFFFFFF80
0FFFFFFFFFFF80
01FFFFFFFFFF80
ENDCHAR
STARTCHAR 00E5
ENCODING 229
SWIDTH 773 0
DWIDTH 65 0
BBX 49 66 5 0
BITMAP
000003E0000000
00000FF8000000
00001FFC000000
00003C3E000000
0000380E000000
00007007000000
00007007000000
00007007000000
00007007000000
00007007000000
0000380E000000
00003C1E000000
00001FFC000000
00000FF8000000
000003E0000000
00000000000000
00000000000000
FFFFFFFFFFC000
FFFFFFFFFFF000
FFFFFFFFFFFC00
FFFFFFFFFFFE00
FFFFFFFFFFFE00
FFFFFFFFFFFF00
FFFFFFFFFFFF00
FFFFFFFFFFFF80
FFFFFFFFFFFF80
FFFFFFFFFFFF80
0000000001FF80
0000000001FF80
0000000001FF80
0000000001FF80
0000000001FF80
0000000001FF80
0000000001FF80
0000000001FF80
0000000001FF80
01FFFFFFFFFF80
0FFFFFFFFFFF80
1FFFFFFFFFFF80
3FFFFFFFFFFF80
7FFFFFFFFFFF80
7FFFFFFFFFFF80
7FFFFFFFFFFF80
FFFFFFFFFFFF80
FFFFFFFFFFFF80
FFFFFFFFFFFF80
FFC0000001FF80
FFC0000001FF80
FFC0000001FF80
FFC0000001FF80
FFC0000001FF80
FFC0000001FF80
FFC0000001FF80
FFC0000001FF80
FFC0000001FF80
FFC0000001FF80
FFFFFFFFFFFF80
FFFFFFFFFFFF80
FFFFFFFFFFFF80
7FFFFFFFFFFF80
7FFFFFFFFFFF80
3FFFFFFFFFFF80
3FFFFFFFFFFF80
1FFFFFFFFFFF80
0FFFFFFFFFFF80
01FFFFFFFFFF80
ENDCHAR
STARTCHAR 00E6
ENCODING 230
SWIDTH 1154 0
DWIDTH 97 0
BBX 88 49 4 0
BITMAP
FFFFFFFFFFE3FFFFFFFFC0
FFFFFFFFFFFFFFFFFFFFF0
FFFFFFFFFFFFFFFFFFFFF8
FFFFFFFFFFFFFFFFFFFFFC
FFFFFFFFFFFFFFFFFFFFFE
FFFFFFFFFFFFFFFFFFFFFE
FFFFFFFFFFFFFFFFFFFFFF
FFFFFFFFFFFFFFFFFFFFFF
FFFFFFFFFFFFFFFFFFFFFF
FFFFFFFFFFFFFFFFFFFFFF
0000000001FF80000003FF
0000000001FF80000003FF
0000000001FF80000003FF
0000000001FF80000003FF
0000000001FF80000003FF
0000000001FF80000003FF
0000000001FF80000003FF
0000000001FF80000003FF
0000000001FF80000003FF
01FFFFFFFFFFFFFFFFFFFF
07FFFFFFFFFFFFFFFFFFFF
0FFFFFFFFFFFFFFFFFFFFF
1FFFFFFFFFFFFFFFFFFFFF
3FFFFFFFFFFFFFFFFFFFFF
7FFFFFFFFFFFFFFFFFFFFE
7FFFFFFFFFFFFFFFFFFFFE
7FFFFFFFFFFFFFFFFFFFFC
7FFFFFFFFFFFFFFFFFFFF8
FFFFFFFFFFFFFFFFFFFFE0
FFC0000001FF8000000000
FFC0000001FF8000000000
FFC0000001FF8000000000
FFC0000001FF8000000000
FFC0000001FF8000000000
FFC0000001FF8000000000
FFC0000001FF8000000000
FFC0000001FF8000000000
FFC0000001FF8000000000
FFC0000001FF8000000000
FFFFFFFFFFFFFFFFFFFFFC
7FFFFFFFFFFFFFFFFFFFFC
7FFFFFFFFFFFFFFFFFFFFC
7FFFFFFFFFFFFFFFFFFFFC
7FFFFFFFFFFFFFFFFFFFFC
3FFFFFFFFFFFFFFFFFFFFC
1FFFFFFFFFFFFFFFFFFFFC
0FFFFFFFFFFFFFFFFFFFFC
07FFFFFFFFFFFFFFFFFFFC
01FFFFFFFFFFFFFFFFFFFC
ENDCHAR
STARTCHAR 00E7
ENCODING 231
SWIDTH 630 0
DWIDTH 53 0
BBX 47 63 4 -14
BITMAP
01FFFFFFFFFE
07FFFFFFFFFE
1FFFFFFFFFFE
3FFFFFFFFFFE
3FFFFFFFFFFE
7FFFFFFFFFFE
7FFFFFFFFFFE
FFFFFFFFFFFE
FFFFFFFFFFFE
FFFFFFFFFFFE
FFC000000000
FFC000000000
FFC000000000
FFC000000000
FFC000000000
FFC000000000
FFC000000000
FFC000000000
FFC000000000
FFC000000000
FFC000000000
FFC000000000
FFC000000000
FFC000000000
FFC000000000
FFC000000000
FFC000000000
FFC000000000
FFC000000000
FFC000000000
FFC000000000
FFC000000000
FFC000000000
FFC000000000
FFC000000000
FFC000000000
FFC000000000
FFC000000000
FFC000000000
FFFFFFFFFFFE
FFFFFFFFFFFE
FFFFFFFFFFFE
FFFFFFFFFFFE
7FFFFFFFFFFE
7FFFFFFFFFFE
3FFFFFFFFFFE
3FFFFFFFFFFE
0FFFFFFFFFFE
03FFFFFFFFFE
000001C00000
000001E00000
000003F80000
000003FC0000
000007FC0000
000000FE0000
0000007E0000
0000007E0000
0000007E0000
0000007C0000
000000FC0000
000003F80000
00003FF00000
00003F800000
ENDCHAR
STARTCHAR 00E8
ENCODING 232
SWIDTH 773 0
DWIDTH 65 0
BBX 49 63 5 0
BITMAP
001FF000000000
000FF800000000
0007FC00000000
0003FC00000000
0001FE00000000
0000FF00000000
00007F80000000
00003F80000000
00001FC0000000
00000000000000
00000000000000
00000000000000
00000000000000
00000000000000
03FFFFFFFFC000
0FFFFFFFFFF000
1FFFFFFFFFFC00
3FFFFFFFFFFE00
7FFFFFFFFFFE00
7FFFFFFFFFFF00
FFFFFFFFFFFF00
FFFFFFFFFFFF80
FFFFFFFFFFFF80
FFFFFFFFFFFF80
FFC0000001FF80
FFC0000001FF80
FFC0000001FF80
FFC0000001FF80
FFC0000001FF80
FFC0000001FF80
FFC0000001FF80
FFC0000001FF80
FFC0000001FF80
FFFFFFFFFFFF80
FFFFFFFFFFFF80
FFFFFFFFFFFF80
FFFFFFFFFFFF00
FFFFFFFFFFFF00
FFFFFFFFFFFF00
FFFFFFFFFFFE00
FFFFFFFFFFFC00
FFFFFFFFFFF800
FFFFFFFFFFC000
FFC00000000000
FFC00000000000
FFC00000000000
FFC00000000000
FFC00000000000
FFC00000000000
FFC00000000000
FFC00000000000
FFC00000000000
FFC00000000000
FFFFFFFFFFFC00
FFFFFFFFFFFC00
FFFFFFFFFFFC00
7FFFFFFFFFFC00
7FFFFFFFFFFC00
7FFFFFFFFFFC00
3FFFFFFFFFFC00
1FFFFFFFFFFC00
0FFFFFFFFFFC00
01FFFFFFFFFC00
ENDCHAR
STARTCHAR 00E9
ENCODING 233
SWIDTH 773 0
DWIDTH 65 0
BBX 49 63 5 0
BITMAP
0000001FF00000
0000003FE00000
0000007FC00000
0000007F800000
000000FF000000
000001FE000000
000001FC000000
000003F8000000
000007F0000000
00000000000000
00000000000000
00000000000000
00000000000000
00000000000000
03FFFFFFFFC000
0FFFFFFFFFF000
1FFFFFFFFFFC00
3FFFFFFFFFFE00
7FFFFFFFFFFE00
7FFFFFFFFFFF00
FFFFFFFFFFFF00
FFFFFFFFFFFF80
FFFFFFFFFFFF80
FFFFFFFFFFFF80
FFC0000001FF80
FFC0000001FF80
FFC0000001FF80
FFC0000001FF80
FFC0000001FF80
FFC0000001FF80
FFC0000001FF80
FFC0000001FF80
FFC0000001FF80
FFFFFFFFFFFF80
FFFFFFFFFFFF80
FFFFFFFFFFFF80
FFFFFFFFFFFF00
FFFFFFFFFFFF00
FFFFFFFFFFFF00
FFFFFFFFFFFE00
FFFFFFFFFFFC00
FFFFFFFFFFF800
FFFFFFFFFFC000
FFC00000000000
FFC00000000000
FFC00000000000
FFC00000000000
FFC00000000000
FFC00000000000
FFC00000000000
FFC00000000000
FFC00000000000
FFC00000000000
FFFFFFFFFFFC00
FFFFFFFFFFFC00
FFFFFFFFFFFC00
7FFFFFFFFFFC00
7FFFFFFFFFFC00
7FFFFFFFFFFC00
3FFFFFFFFFFC00
1FFFFFFFFFFC00
0FFFFFFFFFFC00
01FFFFFFFFFC00
ENDCHAR
STARTCHAR 00EA
ENCODING 234
SWIDTH 773 0
DWIDTH 65 0
BBX 49 63 5 0
BITMAP
00003FF8000000
00007FFC000000
0000FFFE000000
0000FFFE000000
0001FEFF000000
0003FC7F800000
0003F83F800000
0007F01FC00000
000FE00FE00000
00000000000000
00000000000000
00000000000000
00000000000000
00000000000000
03FFFFFFFFC000
0FFFFFFFFFF000
1FFFFFFFFFFC00
3FFFFFFFFFFE00
7FFFFFFFFFFE00
7FFFFFFFFFFF00
FFFFFFFFFFFF00
FFFFFFFFFFFF80
FFFFFFFFFFFF80
FFFFFFFFFFFF80
FFC0000001FF80
FFC0000001FF80
FFC0000001FF80
FFC0000001FF80
FFC0000001FF80
FFC0000001FF80
FFC0000001FF80
FFC0000001FF80
FFC0000001FF80
FFFFFFFFFFFF80
FFFFFFFFFFFF80
FFFFFFFFFFFF80
FFFFFFFFFFFF00
FFFFFFFFFFFF00
FFFFFFFFFFFF00
FFFFFFFFFFFE00
FFFFFFFFFFFC00
FFFFFFFFFFF800
FFFFFFFFFFC000
FFC00000000000
FFC00000000000
FFC00000000000
FFC00000000000
FFC00000000000
FFC00000000000
FFC00000000000
FFC00000000000
FFC00000000000
FFC00000000000
FFFFFFFFFFFC00
FFFFFFFFFFFC00
FFFFFFFFFFFC00
7FFFFFFFFFFC00
7FFFFFFFFFFC00
7FFFFFFFFFFC00
3FFFFFFFFFFC00
1FFFFFFFFFFC00
0FFFFFFFFFFC00
01FFFFFFFFFC00
ENDCHAR
STARTCHAR 00EB
ENCODING 235
SWIDTH 773 0
DWIDTH 65 0
BBX 49 62 5 0
BITMAP
0003E00F800000
0007F01FC00000
000FF83FE00000
000FF83FE00000
000FF83FE00000
0007F01FC00000
0003E00F800000
00000000000000
00000000000000
00000000000000
00000000000000
00000000000000
00000000000000
03FFFFFFFFC000
0FFFFFFFFFF000
1FFFFFFFFFFC00
3FFFFFFFFFFE00
7FFFFFFFFFFE00
7FFFFFFFFFFF00
FFFFFFFFFFFF00
FFFFFFFFFFFF80
FFFFFFFFFFFF80
FFFFFFFFFFFF80
FFC0000001FF80
FFC0000001FF80
FFC0000001FF80
FFC0000001FF80
FFC0000001FF80
FFC0000001FF80
FFC0000001FF80
FFC0000001FF80
FFC0000001FF80
FFFFFFFFFFFF80
FFFFFFFFFFFF80
FFFFFFFFFFFF80
FFFFFFFFFFFF00
FFFFFFFFFFFF00
FFFFFFFFFFFF00
FFFFFFFFFFFE00
FFFFFFFFFFFC00
FFFFFFFFFFF800
FFFFFFFFFFC000
FFC00000000000
FFC00000000000
FFC00000000000
FFC00000000000
FFC00000000000
FFC00000000000
FFC00000000000
FFC00000000000
FFC00000000000
FFC00000000000
FFFFFFFFFFFC00
FFFFFFFFFFFC00
FFFFFFFFFFFC00
7FFFFFFFFFFC00
7FFFFFFFFFFC00
7FFFFFFFFFFC00
3FFFFFFFFFFC00
1FFFFFFFFFFC00
0FFFFFFFFFFC00
01FFFFFFFFFC00
ENDCHAR
STARTCHAR 00EC
ENCODING 236
SWIDTH 238 0
DWIDTH 20 0
BBX 17 63 -1 0
BITMAP
FF8000
7FC000
3FE000
1FF000
0FF000
07F800
03FC00
01FE00
00FE00
000000
000000
000000
000000
000000
01FF80
01FF80
01FF80
01FF80
01FF80
01FF80
01FF80
01FF80
01FF80
01FF80
01FF80
01FF80
01FF80
01FF80
01FF80
01FF80
01FF80
01FF80
01FF80
01FF80
01FF80
01FF80
01FF80
01FF80
01FF80
01FF80
01FF80
01FF80
01FF80
01FF80
01FF80
01FF80
01FF80
01FF80
01FF80
01FF80
01FF80
01FF80
01FF80
01FF80
01FF80
01FF80
01FF80
01FF80
01FF80
01FF80
01FF80
01FF80
01FF80
ENDCHAR
STARTCHAR 00ED
ENCODING 237
SWIDTH 226 0
DWIDTH 19 0
BBX 16 63 5 0
BITMAP
01FF
03FE
03FC
07F8
0FF0
1FE0
1FC0
3F80
7F00
0000
0000
0000
0000
0000
FFC0
FFC0
FFC0
FFC0
FFC0
FFC0
FFC0
FFC0
FFC0
FFC0
FFC0
FFC0
FFC0
FFC0
FFC0
FFC0
FFC0
FFC0
FFC0
FFC0
FFC0
FFC0
FFC0
FFC0
FFC0
FFC0
FFC0
FFC0
FFC0
FFC0
FFC0
FFC0
FFC0
FFC0
FFC0
FFC0
FFC0
FFC0
FFC0
FFC0
FFC0
FFC0
FFC0
FFC0
FFC0
FFC0
FFC0
FFC0
FFC0
ENDCHAR
STARTCHAR 00EE
ENCODING 238
SWIDTH 226 0
DWIDTH 19 0
BBX 23 63 -2 0
BITMAP
03FF80
07FFC0
0FFFE0
0FFFE0
1FEFF0
3FC7F8
3F83F8
7F01FC
FE00FE
000000
000000
000000
000000
000000
01FF80
01FF80
01FF80
01FF80
01FF80
01FF80
01FF80
01FF80
01FF80
01FF80
01FF80
01FF80
01FF80
01FF80
01FF80
01FF80
01FF80
01FF80
01FF80
01FF80
01FF80
01FF80
01FF80
01FF80
01FF80
01FF80
01FF80
01FF80
01FF80
01FF80
01FF80
01FF80
01FF80
01FF80
01FF80
01FF80
01FF80
01FF80
01FF80
01FF80
01FF80
01FF80
01FF80
01FF80
01FF80
01FF80
01FF80
01FF80
01FF80
ENDCHAR
STARTCHAR 00EF
ENCODING 239
SWIDTH 226 0
DWIDTH 19 0
BBX 23 62 -2 0
BITMAP
3E0078
7F01FE
FF83FE
FF83FE
FF83FE
7F81FE
3E00F8
000000
000000
000000
000000
000000
000000
01FF80
01FF80
01FF80
01FF80
01FF80
01FF80
01FF80
01FF80
01FF80
01FF80
01FF80
01FF80
01FF80
01FF80
01FF80
01FF80
01FF80
01FF80
01FF80
01FF80
01FF80
01FF80
01FF80
01FF80
01FF80
01FF80
01FF80
01FF80
01FF80
01FF80
01FF80
01FF80
01FF80
01FF80
01FF80
01FF80
01FF80
01FF80
01FF80
01FF80
01FF80
01FF80
01FF80
01FF80
01FF80
01FF80
01FF80
01FF80
01FF80
ENDCHAR
STARTCHAR 00F0
ENCODING 240
SWIDTH 297 0
DWIDTH 25 0
BBX 0 0 0 0
BITMAP
ENDCHAR
STARTCHAR 00F1
ENCODING 241
SWIDTH 726 0
DWIDTH 61 0
BBX 46 63 5 0
BITMAP
0003F0002000
0007FC006000
000FFF006000
001FFFC06000
00187FF0C000
00301FFFC000
003007FF8000
003003FF0000
0020007C0000
000000000000
000000000000
000000000000
000000000000
000000000000
FFFFFFFFFF00
FFFFFFFFFFC0
FFFFFFFFFFE0
FFFFFFFFFFF0
FFFFFFFFFFF8
FFFFFFFFFFF8
FFFFFFFFFFFC
FFFFFFFFFFFC
FFFFFFFFFFFC
FFFFFFFFFFFC
FFC000000FFC
FFC000000FFC
FFC000000FFC
FFC000000FFC
FFC000000FFC
FFC000000FFC
FFC000000FFC
FFC000000FFC
FFC000000FFC
FFC000000FFC
FFC000000FFC
FFC000000FFC
FFC000000FFC
FFC000000FFC
FFC000000FFC
FFC000000FFC
FFC000000FFC
FFC000000FFC
FFC000000FFC
FFC000000FFC
FFC000000FFC
FFC000000FFC
FFC000000FFC
FFC000000FFC
FFC000000FFC
FFC000000FFC
FFC000000FFC
FFC000000FFC
FFC000000FFC
FFC000000FFC
FFC000000FFC
FFC000000FFC
FFC000000FFC
FFC000000FFC
FFC000000FFC
FFC000000FFC
FFC000000FFC
FFC000000FFC
FFC000000FFC
ENDCHAR
STARTCHAR 00F2
ENCODING 242
SWIDTH 773 0
DWIDTH 65 0
BBX 49 63 4 0
BITMAP
0003FE00000000
0001FF00000000
0000FF00000000
00007F80000000
00003FC0000000
00001FE0000000
00000FE0000000
000007F0000000
000003F8000000
00000000000000
00000000000000
00000000000000
00000000000000
00000000000000
01FFFFFFFFC000
07FFFFFFFFF000
1FFFFFFFFFFC00
3FFFFFFFFFFE00
3FFFFFFFFFFE00
7FFFFFFFFFFF00
7FFFFFFFFFFF00
FFFFFFFFFFFF80
FFFFFFFFFFFF80
FFFFFFFFFFFF80
FFC0000001FF80
FFC0000001FF80
FFC0000001FF80
FFC0000001FF80
FFC0000001FF80
FFC0000001FF80
FFC0000001FF80
FFC0000001FF80
FFC0000001FF80
FFC0000001FF80
FFC0000001FF80
FFC0000001FF80
FFC0000001FF80
FFC0000001FF80
FFC0000001FF80
FFC0000001FF80
FFC0000001FF80
FFC0000001FF80
FFC0000001FF80
FFC0000001FF80
FFC0000001FF80
FFC0000001FF80
FFC0000001FF80
FFC0000001FF80
FFC0000001FF80
FFC0000001FF80
FFC0000001FF80
FFC0000001FF80
FFC0000001FF80
FFFFFFFFFFFF80
FFFFFFFFFFFF80
FFFFFFFFFFFF80
FFFFFFFFFFFF80
7FFFFFFFFFFF00
7FFFFFFFFFFF00
3FFFFFFFFFFE00
1FFFFFFFFFFE00
0FFFFFFFFFF800
03FFFFFFFFE000
ENDCHAR
STARTCHAR 00F3
ENCODING 243
SWIDTH 773 0
DWIDTH 65 0
BBX 49 63 4 0
BITMAP
0000003FE00000
0000003FC00000
0000007F800000
000000FF000000
000001FE000000
000001FC000000
000003F8000000
000007F0000000
00000FF0000000
00000000000000
00000000000000
00000000000000
00000000000000
00000000000000
01FFFFFFFFC000
07FFFFFFFFF000
1FFFFFFFFFFC00
3FFFFFFFFFFE00
3FFFFFFFFFFE00
7FFFFFFFFFFF00
7FFFFFFFFFFF00
FFFFFFFFFFFF80
FFFFFFFFFFFF80
FFFFFFFFFFFF80
FFC0000001FF80
FFC0000001FF80
FFC0000001FF80
FFC0000001FF80
FFC0000001FF80
FFC0000001FF80
FFC0000001FF80
FFC0000001FF80
FFC0000001FF80
FFC0000001FF80
FFC0000001FF80
FFC0000001FF80
FFC0000001FF80
FFC0000001FF80
FFC0000001FF80
FFC0000001FF80
FFC0000001FF80
FFC0000001FF80
FFC0000001FF80
FFC0000001FF80
FFC0000001FF80
FFC0000001FF80
FFC0000001FF80
FFC0000001FF80
FFC0000001FF80
FFC0000001FF80
FFC0000001FF80
FFC0000001FF80
FFC0000001FF80
FFFFFFFFFFFF80
FFFFFFFFFFFF80
FFFFFFFFFFFF80
FFFFFFFFFFFF80
7FFFFFFFFFFF00
7FFFFFFFFFFF00
3FFFFFFFFFFE00
1FFFFFFFFFFE00
0FFFFFFFFFF800
03FFFFFFFFE000
ENDCHAR
STARTCHAR 00F4
ENCODING 244
SWIDTH 773 0
DWIDTH 65 0
BBX 49 63 4 0
BITMAP
00001FFC000000
00003FFE000000
00007FFF000000
00007F7F000000
0000FF7F800000
0001FE3FC00000
0001FC1FC00000
0003F80FE00000
0007F007F00000
00000000000000
00000000000000
00000000000000
00000000000000
00000000000000
01FFFFFFFFC000
07FFFFFFFFF000
1FFFFFFFFFFC00
3FFFFFFFFFFE00
3FFFFFFFFFFE00
7FFFFFFFFFFF00
7FFFFFFFFFFF00
FFFFFFFFFFFF80
FFFFFFFFFFFF80
FFFFFFFFFFFF80
FFC0000001FF80
FFC0000001FF80
FFC0000001FF80
FFC0000001FF80
FFC0000001FF80
FFC0000001FF80
FFC0000001FF80
FFC0000001FF80
FFC0000001FF80
FFC0000001FF80
FFC0000001FF80
FFC0000001FF80
FFC0000001FF80
FFC0000001FF80
FFC0000001FF80
FFC0000001FF80
FFC0000001FF80
FFC0000001FF80
FFC0000001FF80
FFC0000001FF80
FFC0000001FF80
FFC0000001FF80
FFC0000001FF80
FFC0000001FF80
FFC0000001FF80
FFC0000001FF80
FFC0000001FF80
FFC0000001FF80
FFC0000001FF80
FFFFFFFFFFFF80
FFFFFFFFFFFF80
FFFFFFFFFFFF80
FFFFFFFFFFFF80
7FFFFFFFFFFF00
7FFFFFFFFFFF00
3FFFFFFFFFFE00
1FFFFFFFFFFE00
0FFFFFFFFFF800
03FFFFFFFFE000
ENDCHAR
STARTCHAR 00F5
ENCODING 245
SWIDTH 773 0
DWIDTH 65 0
BBX 49 63 4 0
BITMAP
0001F800100000
0003FE00300000
0007FF80300000
000FFFE0300000
000C3FF8600000
00180FFFE00000
001803FFC00000
001801FF800000
0010003E000000
00000000000000
00000000000000
00000000000000
00000000000000
00000000000000
01FFFFFFFFC000
07FFFFFFFFF000
1FFFFFFFFFFC00
3FFFFFFFFFFE00
3FFFFFFFFFFE00
7FFFFFFFFFFF00
7FFFFFFFFFFF00
FFFFFFFFFFFF80
FFFFFFFFFFFF80
FFFFFFFFFFFF80
FFC0000001FF80
FFC0000001FF80
FFC0000001FF80
FFC0000001FF80
FFC0000001FF80
FFC0000001FF80
FFC0000001FF80
FFC0000001FF80
FFC0000001FF80
FFC0000001FF80
FFC0000001FF80
FFC0000001FF80
FFC0000001FF80
FFC0000001FF80
FFC0000001FF80
FFC0000001FF80
FFC0000001FF80
FFC0000001FF80
FFC0000001FF80
FFC0000001FF80
FFC0000001FF80
FFC0000001FF80
FFC0000001FF80
FFC0000001FF80
FFC0000001FF80
FFC0000001FF80
FFC0000001FF80
FFC0000001FF80
FFC0000001FF80
FFFFFFFFFFFF80
FFFFFFFFFFFF80
FFFFFFFFFFFF80
FFFFFFFFFFFF80
7FFFFFFFFFFF00
7FFFFFFFFFFF00
3FFFFFFFFFFE00
1FFFFFFFFFFE00
0FFFFFFFFFF800
03FFFFFFFFE000
ENDCHAR
STARTCHAR 00F6
ENCODING 246
SWIDTH 773 0
DWIDTH 65 0
BBX 49 62 4 0
BITMAP
0000F803E00000
0001FC07F00000
0003FE0FF80000
0003FE0FF80000
0003FE0FF80000
0001FC07F00000
0000F803E00000
00000000000000
00000000000000
00000000000000
00000000000000
00000000000000
00000000000000
01FFFFFFFFC000
07FFFFFFFFF000
1FFFFFFFFFFC00
3FFFFFFFFFFE00
3FFFFFFFFFFE00
7FFFFFFFFFFF00
7FFFFFFFFFFF00
FFFFFFFFFFFF80
FFFFFFFFFFFF80
FFFFFFFFFFFF80
FFC0000001FF80
FFC0000001FF80
FFC0000001FF80
FFC0000001FF80
FFC0000001FF80
FFC0000001FF80
FFC0000001FF80
FFC0000001FF80
FFC0000001FF80
FFC0000001FF80
FFC0000001FF80
FFC0000001FF80
FFC0000001FF80
FFC0000001FF80
FFC0000001FF80
FFC0000001FF80
FFC0000001FF80
FFC0000001FF80
FFC0000001FF80
FFC0000001FF80
FFC0000001FF80
FFC0000001FF80
FFC0000001FF80
FFC0000001FF80
FFC0000001FF80
FFC0000001FF80
FFC0000001FF80
FFC0000001FF80
FFC0000001FF80
FFFFFFFFFFFF80
FFFFFFFFFFFF80
FFFFFFFFFFFF80
FFFFFFFFFFFF80
7FFFFFFFFFFF00
7FFFFFFFFFFF00
3FFFFFFFFFFE00
1FFFFFFFFFFE00
0FFFFFFFFFF800
03FFFFFFFFE000
ENDCHAR
STARTCHAR 00F8
ENCODING 248
SWIDTH 654 0
DWIDTH 55 0
BBX 49 49 3 0
BITMAP
01FFFFFFFFE000
07FFFFFFFFF800
0FFFFFFFFFFC00
1FFFFFFFFFFE00
3FFFFFFFFFFF00
7FFFFFFFFFFF00
7FFFFFFFFFFF80
7FFFFFFFFFFF80
7FFFFFFFFFFF80
FFFFFFFFFFFF80
FFC000003FFF80
FFC000007FFF80
FFC00000FFFF80
FFC00001FFFF80
FFC00003FFFF80
FFC00007FDFF80
FFC0000FF9FF80
FFC0001FF1FF80
FFC0001FE1FF80
FFC0003FC1FF80
FFC0007F81FF80
FFC000FF01FF80
FFC001FE01FF80
FFC003FC01FF80
FFC007F801FF80
FFC00FF001FF80
FFC01FE001FF80
FFC03FC001FF80
FFC07F8001FF80
FFC0FF0001FF80
FFC1FE0001FF80
FFC3FC0001FF80
FFC7F80001FF80
FFCFF80001FF80
FFDFF00001FF80
FFFFE00001FF80
FFFFC00001FF80
FFFF800001FF80
FFFF000001FF80
FFFFFFFFFFFF80
7FFFFFFFFFFF80
7FFFFFFFFFFF80
7FFFFFFFFFFF80
7FFFFFFFFFFF80
3FFFFFFFFFFF00
3FFFFFFFFFFF00
1FFFFFFFFFFE00
0FFFFFFFFFFC00
01FFFFFFFFE000
ENDCHAR
STARTCHAR 00F9
ENCODING 249
SWIDTH 761 0
DWIDTH 64 0
BBX 49 63 5 0
BITMAP
0007FC00000000
0003FE00000000
0001FE00000000
0000FF00000000
00007F80000000
00003FC0000000
00001FC0000000
00000FE0000000
000007F0000000
00000000000000
00000000000000
00000000000000
00000000000000
00000000000000
FFC0000001FF80
FFC0000001FF80
FFC0000001FF80
FFC0000001FF80
FFC0000001FF80
FFC0000001FF80
FFC0000001FF80
FFC0000001FF80
FFC0000001FF80
FFC0000001FF80
FFC0000001FF80
FFC0000001FF80
FFC0000001FF80
FFC0000001FF80
FFC0000001FF80
FFC0000001FF80
FFC0000001FF80
FFC0000001FF80
FFC0000001FF80
FFC0000001FF80
FFC0000001FF80
FFC0000001FF80
FFC0000001FF80
FFC0000001FF80
FFC0000001FF80
FFC0000001FF80
FFC0000001FF80
FFC0000001FF80
FFC0000001FF80
FFC0000001FF80
FFC0000001FF80
FFC0000001FF80
FFC0000001FF80
FFC0000001FF80
FFC0000001FF80
FFC0000001FF80
FFC0000001FF80
FFC0000001FF80
FFC0000001FF80
FFFFFFFFFFFF80
FFFFFFFFFFFF80
FFFFFFFFFFFF80
7FFFFFFFFFFF00
7FFFFFFFFFFF00
7FFFFFFFFFFF00
3FFFFFFFFFFE00
1FFFFFFFFFFC00
0FFFFFFFFFF800
01FFFFFFFFC000
ENDCHAR
STARTCHAR 00FA
ENCODING 250
SWIDTH 761 0
DWIDTH 64 0
BBX 49 63 5 0
BITMAP
0000007FC00000
000000FF800000
000000FF000000
000001FE000000
000003FC000000
000003F8000000
000007F0000000
00000FE0000000
00001FC0000000
00000000000000
00000000000000
00000000000000
00000000000000
00000000000000
FFC0000001FF80
FFC0000001FF80
FFC0000001FF80
FFC0000001FF80
FFC0000001FF80
FFC0000001FF80
FFC0000001FF80
FFC0000001FF80
FFC0000001FF80
FFC0000001FF80
FFC0000001FF80
FFC0000001FF80
FFC0000001FF80
FFC0000001FF80
FFC0000001FF80
FFC0000001FF80
FFC0000001FF80
FFC0000001FF80
FFC0000001FF80
FFC0000001FF80
FFC0000001FF80
FFC0000001FF80
FFC0000001FF80
FFC0000001FF80
FFC0000001FF80
FFC0000001FF80
FFC0000001FF80
FFC0000001FF80
FFC0000001FF80
FFC0000001FF80
FFC0000001FF80
FFC0000001FF80
FFC0000001FF80
FFC0000001FF80
FFC0000001FF80
FFC0000001FF80
FFC0000001FF80
FFC0000001FF80
FFC0000001FF80
FFFFFFFFFFFF80
FFFFFFFFFFFF80
FFFFFFFFFFFF80
7FFFFFFFFFFF00
7FFFFFFFFFFF00
7FFFFFFFFFFF00
3FFFFFFFFFFE00
1FFFFFFFFFFC00
0FFFFFFFFFF800
01FFFFFFFFC000
ENDCHAR
STARTCHAR 00FB
ENCODING 251
SWIDTH 761 0
DWIDTH 64 0
BBX 49 63 5 0
BITMAP
00003FF8000000
00007FFC000000
0000FFFE000000
0000FFFE000000
0001FEFF000000
0003FC7F800000
0003F83F800000
0007F01FC00000
000FE01FE00000
00000000000000
00000000000000
00000000000000
00000000000000
00000000000000
FFC0000001FF80
FFC0000001FF80
FFC0000001FF80
FFC0000001FF80
FFC0000001FF80
FFC0000001FF80
FFC0000001FF80
FFC0000001FF80
FFC0000001FF80
FFC0000001FF80
FFC0000001FF80
FFC0000001FF80
FFC0000001FF80
FFC0000001FF80
FFC0000001FF80
FFC0000001FF80
FFC0000001FF80
FFC0000001FF80
FFC0000001FF80
FFC0000001FF80
FFC0000001FF80
FFC0000001FF80
FFC0000001FF80
FFC0000001FF80
FFC0000001FF80
FFC0000001FF80
FFC0000001FF80
FFC0000001FF80
FFC0000001FF80
FFC0000001FF80
FFC0000001FF80
FFC0000001FF80
FFC0000001FF80
FFC0000001FF80
FFC0000001FF80
FFC0000001FF80
FFC0000001FF80
FFC0000001FF80
FFC0000001FF80
FFFFFFFFFFFF80
FFFFFFFFFFFF80
FFFFFFFFFFFF80
7FFFFFFFFFFF00
7FFFFFFFFFFF00
7FFFFFFFFFFF00
3FFFFFFFFFFE00
1FFFFFFFFFFC00
0FFFFFFFFFF800
01FFFFFFFFC000
ENDCHAR
STARTCHAR 00FC
ENCODING 252
SWIDTH 761 0
DWIDTH 64 0
BBX 49 62 5 0
BITMAP
0001F007C00000
0003F80FE00000
0007FC1FF00000
0007FC1FF00000
0007FC1FF00000
0003F80FE00000
0001F007C00000
00000000000000
00000000000000
00000000000000
00000000000000
00000000000000
00000000000000
FFC0000001FF80
FFC0000001FF80
FFC0000001FF80
FFC0000001FF80
FFC0000001FF80
FFC0000001FF80
FFC0000001FF80
FFC0000001FF80
FFC0000001FF80
FFC0000001FF80
FFC0000001FF80
FFC0000001FF80
FFC0000001FF80
FFC0000001FF80
FFC0000001FF80
FFC0000001FF80
FFC0000001FF80
FFC0000001FF80
FFC0000001FF80
FFC0000001FF80
FFC0000001FF80
FFC0000001FF80
FFC0000001FF80
FFC0000001FF80
FFC0000001FF80
FFC0000001FF80
FFC0000001FF80
FFC0000001FF80
FFC0000001FF80
FFC0000001FF80
FFC0000001FF80
FFC0000001FF80
FFC0000001FF80
FFC0000001FF80
FFC0000001FF80
FFC0000001FF80
FFC0000001FF80
FFC0000001FF80
FFC0000001FF80
FFFFFFFFFFFF80
FFFFFFFFFFFF80
FFFFFFFFFFFF80
7FFFFFFFFFFF00
7FFFFFFFFFFF00
7FFFFFFFFFFF00
3FFFFFFFFFFE00
1FFFFFFFFFFC00
0FFFFFFFFFF800
01FFFFFFFFC000
ENDCHAR
STARTCHAR 00FE
ENCODING 254
SWIDTH 297 0
DWIDTH 25 0
BBX 0 0 0 0
BITMAP
ENDCHAR
STARTCHAR 00FF
ENCODING 255
SWIDTH 702 0
DWIDTH 59 0
BBX 0 0 0 0
BITMAP
ENDCHAR
STARTCHAR 0100
ENCODING 256
SWIDTH 297 0
DWIDTH 25 0
BBX 0 0 0 0
BITMAP
ENDCHAR
STARTCHAR 0101
ENCODING 257
SWIDTH 297 0
DWIDTH 25 0
BBX 0 0 0 0
BITMAP
ENDCHAR
STARTCHAR 0102
ENCODING 258
SWIDTH 297 0
DWIDTH 25 0
BBX 0 0 0 0
BITMAP
ENDCHAR
STARTCHAR 0103
ENCODING 259
SWIDTH 297 0
DWIDTH 25 0
BBX 0 0 0 0
BITMAP
ENDCHAR
STARTCHAR 0104
ENCODING 260
SWIDTH 297 0
DWIDTH 25 0
BBX 0 0 0 0
BITMAP
ENDCHAR
STARTCHAR 0105
ENCODING 261
SWIDTH 297 0
DWIDTH 25 0
BBX 0 0 0 0
BITMAP
ENDCHAR
STARTCHAR 0106
ENCODING 262
SWIDTH 297 0
DWIDTH 25 0
BBX 0 0 0 0
BITMAP
ENDCHAR
STARTCHAR 0107
ENCODING 263
SWIDTH 297 0
DWIDTH 25 0
BBX 0 0 0 0
BITMAP
ENDCHAR
STARTCHAR 0108
ENCODING 264
SWIDTH 297 0
DWIDTH 25 0
BBX 0 0 0 0
BITMAP
ENDCHAR
STARTCHAR 0109
ENCODING 265
SWIDTH 297 0
DWIDTH 25 0
BBX 0 0 0 0
BITMAP
ENDCHAR
STARTCHAR 010A
ENCODING 266
SWIDTH 297 0
DWIDTH 25 0
BBX 0 0 0 0
BITMAP
ENDCHAR
STARTCHAR 010B
ENCODING 267
SWIDTH 297 0
DWIDTH 25 0
BBX 0 0 0 0
BITMAP
ENDCHAR
STARTCHAR 010C
ENCODING 268
SWIDTH 297 0
DWIDTH 25 0
BBX 0 0 0 0
BITMAP
ENDCHAR
STARTCHAR 010D
ENCODING 269
SWIDTH 297 0
DWIDTH 25 0
BBX 0 0 0 0
BITMAP
ENDCHAR
STARTCHAR 010E
ENCODING 270
SWIDTH 297 0
DWIDTH 25 0
BBX 0 0 0 0
BITMAP
ENDCHAR
STARTCHAR 010F
ENCODING 271
SWIDTH 297 0
DWIDTH 25 0
BBX 0 0 0 0
BITMAP
ENDCHAR
STARTCHAR 0110
ENCODING 272
SWIDTH 297 0
DWIDTH 25 0
BBX 0 0 0 0
BITMAP
ENDCHAR
STARTCHAR 0111
ENCODING 273
SWIDTH 297 0
DWIDTH 25 0
BBX 0 0 0 0
BITMAP
ENDCHAR
STARTCHAR 0112
ENCODING 274
SWIDTH 297 0
DWIDTH 25 0
BBX 0 0 0 0
BITMAP
ENDCHAR
STARTCHAR 0113
ENCODING 275
SWIDTH 297 0
DWIDTH 25 0
BBX 0 0 0 0
BITMAP
ENDCHAR
STARTCHAR 0114
ENCODING 276
SWIDTH 297 0
DWIDTH 25 0
BBX 0 0 0 0
BITMAP
ENDCHAR
STARTCHAR 0115
ENCODING 277
SWIDTH 297 0
DWIDTH 25 0
BBX 0 0 0 0
BITMAP
ENDCHAR
STARTCHAR 0116
ENCODING 278
SWIDTH 297 0
DWIDTH 25 0
BBX 0 0 0 0
BITMAP
ENDCHAR
STARTCHAR 0117
ENCODING 279
SWIDTH 297 0
DWIDTH 25 0
BBX 0 0 0 0
BITMAP
ENDCHAR
STARTCHAR 0118
ENCODING 280
SWIDTH 297 0
DWIDTH 25 0
BBX 0 0 0 0
BITMAP
ENDCHAR
STARTCHAR 0119
ENCODING 281
SWIDTH 297 0
DWIDTH 25 0
BBX 0 0 0 0
BITMAP
ENDCHAR
STARTCHAR 011A
ENCODING 282
SWIDTH 297 0
DWIDTH 25 0
BBX 0 0 0 0
BITMAP
ENDCHAR
STARTCHAR 011B
ENCODING 283
SWIDTH 297 0
DWIDTH 25 0
BBX 0 0 0 0
BITMAP
ENDCHAR
STARTCHAR 011C
ENCODING 284
SWIDTH 297 0
DWIDTH 25 0
BBX 0 0 0 0
BITMAP
ENDCHAR
STARTCHAR 011D
ENCODING 285
SWIDTH 297 0
DWIDTH 25 0
BBX 0 0 0 0
BITMAP
ENDCHAR
STARTCHAR 011E
ENCODING 286
SWIDTH 297 0
DWIDTH 25 0
BBX 0 0 0 0
BITMAP
ENDCHAR
STARTCHAR 011F
ENCODING 287
SWIDTH 297 0
DWIDTH 25 0
BBX 0 0 0 0
BITMAP
ENDCHAR
STARTCHAR 0120
ENCODING 288
SWIDTH 297 0
DWIDTH 25 0
BBX 0 0 0 0
BITMAP
ENDCHAR
STARTCHAR 0121
ENCODING 289
SWIDTH 297 0
DWIDTH 25 0
BBX 0 0 0 0
BITMAP
ENDCHAR
STARTCHAR 0122
ENCODING 290
SWIDTH 297 0
DWIDTH 25 0
BBX 0 0 0 0
BITMAP
ENDCHAR
STARTCHAR 0123
ENCODING 291
SWIDTH 297 0
DWIDTH 25 0
BBX 0 0 0 0
BITMAP
ENDCHAR
STARTCHAR 0124
ENCODING 292
SWIDTH 297 0
DWIDTH 25 0
BBX 0 0 0 0
BITMAP
ENDCHAR
STARTCHAR 0125
ENCODING 293
SWIDTH 297 0
DWIDTH 25 0
BBX 0 0 0 0
BITMAP
ENDCHAR
STARTCHAR 0126
ENCODING 294
SWIDTH 297 0
DWIDTH 25 0
BBX 0 0 0 0
BITMAP
ENDCHAR
STARTCHAR 0127
ENCODING 295
SWIDTH 297 0
DWIDTH 25 0
BBX 0 0 0 0
BITMAP
ENDCHAR
STARTCHAR 0128
ENCODING 296
SWIDTH 297 0
DWIDTH 25 0
BBX 0 0 0 0
BITMAP
ENDCHAR
STARTCHAR 0129
ENCODING 297
SWIDTH 297 0
DWIDTH 25 0
BBX 0 0 0 0
BITMAP
ENDCHAR
STARTCHAR 012A
ENCODING 298
SWIDTH 297 0
DWIDTH 25 0
BBX 0 0 0 0
BITMAP
ENDCHAR
STARTCHAR 012B
ENCODING 299
SWIDTH 297 0
DWIDTH 25 0
BBX 0 0 0 0
BITMAP
ENDCHAR
STARTCHAR 012C
ENCODING 300
SWIDTH 297 0
DWIDTH 25 0
BBX 0 0 0 0
BITMAP
ENDCHAR
STARTCHAR 012D
ENCODING 301
SWIDTH 297 0
DWIDTH 25 0
BBX 0 0 0 0
BITMAP
ENDCHAR
STARTCHAR 012E
ENCODING 302
SWIDTH 297 0
DWIDTH 25 0
BBX 0 0 0 0
BITMAP
ENDCHAR
STARTCHAR 012F
ENCODING 303
SWIDTH 297 0
DWIDTH 25 0
BBX 0 0 0 0
BITMAP
ENDCHAR
STARTCHAR 0130
ENCODING 304
SWIDTH 297 0
DWIDTH 25 0
BBX 0 0 0 0
BITMAP
ENDCHAR
STARTCHAR 0132
ENCODING 306
SWIDTH 297 0
DWIDTH 25 0
BBX 0 0 0 0
BITMAP
ENDCHAR
STARTCHAR 0133
ENCODING 307
SWIDTH 297 0
DWIDTH 25 0
BBX 0 0 0 0
BITMAP
ENDCHAR
STARTCHAR 0134
ENCODING 308
SWIDTH 297 0
DWIDTH 25 0
BBX 0 0 0 0
BITMAP
ENDCHAR
STARTCHAR 0135
ENCODING 309
SWIDTH 297 0
DWIDTH 25 0
BBX 0 0 0 0
BITMAP
ENDCHAR
STARTCHAR 0136
ENCODING 310
SWIDTH 297 0
DWIDTH 25 0
BBX 0 0 0 0
BITMAP
ENDCHAR
STARTCHAR 0137
ENCODING 311
SWIDTH 297 0
DWIDTH 25 0
BBX 0 0 0 0
BITMAP
ENDCHAR
STARTCHAR 0138
ENCODING 312
SWIDTH 297 0
DWIDTH 25 0
BBX 0 0 0 0
BITMAP
ENDCHAR
STARTCHAR 0139
ENCODING 313
SWIDTH 297 0
DWIDTH 25 0
BBX 0 0 0 0
BITMAP
ENDCHAR
STARTCHAR 013A
ENCODING 314
SWIDTH 297 0
DWIDTH 25 0
BBX 0 0 0 0
BITMAP
ENDCHAR
STARTCHAR 013B
ENCODING 315
SWIDTH 297 0
DWIDTH 25 0
BBX 0 0 0 0
BITMAP
ENDCHAR
STARTCHAR 013C
ENCODING 316
SWIDTH 297 0
DWIDTH 25 0
BBX 0 0 0 0
BITMAP
ENDCHAR
STARTCHAR 013D
ENCODING 317
SWIDTH 297 0
DWIDTH 25 0
BBX 0 0 0 0
BITMAP
ENDCHAR
STARTCHAR 013E
ENCODING 318
SWIDTH 297 0
DWIDTH 25 0
BBX 0 0 0 0
BITMAP
ENDCHAR
STARTCHAR 013F
ENCODING 319
SWIDTH 297 0
DWIDTH 25 0
BBX 0 0 0 0
BITMAP
ENDCHAR
STARTCHAR 0140
ENCODING 320
SWIDTH 297 0
DWIDTH 25 0
BBX 0 0 0 0
BITMAP
ENDCHAR
STARTCHAR 0141
ENCODING 321
SWIDTH 297 0
DWIDTH 25 0
BBX 0 0 0 0
BITMAP
ENDCHAR
STARTCHAR 0142
ENCODING 322
SWIDTH 297 0
DWIDTH 25 0
BBX 0 0 0 0
BITMAP
ENDCHAR
STARTCHAR 0143
ENCODING 323
SWIDTH 297 0
DWIDTH 25 0
BBX 0 0 0 0
BITMAP
ENDCHAR
STARTCHAR 0144
ENCODING 324
SWIDTH 297 0
DWIDTH 25 0
BBX 0 0 0 0
BITMAP
ENDCHAR
STARTCHAR 0145
ENCODING 325
SWIDTH 297 0
DWIDTH 25 0
BBX 0 0 0 0
BITMAP
ENDCHAR
STARTCHAR 0146
ENCODING 326
SWIDTH 297 0
DWIDTH 25 0
BBX 0 0 0 0
BITMAP
ENDCHAR
STARTCHAR 0147
ENCODING 327
SWIDTH 297 0
DWIDTH 25 0
BBX 0 0 0 0
BITMAP
ENDCHAR
STARTCHAR 0148
ENCODING 328
SWIDTH 297 0
DWIDTH 25 0
BBX 0 0 0 0
BITMAP
ENDCHAR
STARTCHAR 0149
ENCODING 329
SWIDTH 297 0
DWIDTH 25 0
BBX 0 0 0 0
BITMAP
ENDCHAR
STARTCHAR 014A
ENCODING 330
SWIDTH 297 0
DWIDTH 25 0
BBX 0 0 0 0
BITMAP
ENDCHAR
STARTCHAR 014B
ENCODING 331
SWIDTH 297 0
DWIDTH 25 0
BBX 0 0 0 0
BITMAP
ENDCHAR
STARTCHAR 014C
ENCODING 332
SWIDTH 297 0
DWIDTH 25 0
BBX 0 0 0 0
BITMAP
ENDCHAR
STARTCHAR 014D
ENCODING 333
SWIDTH 297 0
DWIDTH 25 0
BBX 0 0 0 0
BITMAP
ENDCHAR
STARTCHAR 014E
ENCODING 334
SWIDTH 297 0
DWIDTH 25 0
BBX 0 0 0 0
BITMAP
ENDCHAR
STARTCHAR 014F
ENCODING 335
SWIDTH 297 0
DWIDTH 25 0
BBX 0 0 0 0
BITMAP
ENDCHAR
STARTCHAR 0150
ENCODING 336
SWIDTH 297 0
DWIDTH 25 0
BBX 0 0 0 0
BITMAP
ENDCHAR
STARTCHAR 0151
ENCODING 337
SWIDTH 297 0
DWIDTH 25 0
BBX 0 0 0 0
BITMAP
ENDCHAR
STARTCHAR 0152
ENCODING 338
SWIDTH 1130 0
DWIDTH 95 0
BBX 88 64 3 0
BITMAP
01FFFFFFFFC3FFFFFFFF80
07FFFFFFFFFFFFFFFFFFF0
1FFFFFFFFFFFFFFFFFFFF8
3FFFFFFFFFFFFFFFFFFFFC
3FFFFFFFFFFFFFFFFFFFFE
7FFFFFFFFFFFFFFFFFFFFE
7FFFFFFFFFFFFFFFFFFFFF
FFFFFFFFFFFFFFFFFFFFFF
FFFFFFFFFFFFFFFFFFFFFF
FFFFFFFFFFFFFFFFFFFFFF
FFC0000001FF80000003FF
FFC0000001FF80000003FF
FFC0000001FF80000003FF
FFC0000001FF80000003FF
FFC0000001FF80000003FF
FFC0000001FF80000003FF
FFC0000001FF80000003FF
FFC0000001FF80000003FF
FFC0000001FF80000003FF
FFC0000001FF80000003FF
FFC0000001FFFFFFFFFFFF
FFC0000001FFFFFFFFFFFF
FFC0000001FFFFFFFFFFFF
FFC0000001FFFFFFFFFFFF
FFC0000001FFFFFFFFFFFE
FFC0000001FFFFFFFFFFFE
FFC0000001FFFFFFFFFFFC
FFC0000001FFFFFFFFFFF8
FFC0000001FFFFFFFFFFF0
FFC0000001FFFFFFFFFFC0
FFC0000001FF8000000000
FFC0000001FF8000000000
FFC0000001FF8000000000
FFC0000001FF8000000000
FFC0000001FF8000000000
FFC0000001FF8000000000
FFC0000001FF8000000000
FFC0000001FF8000000000
FFC0000001FF8000000000
FFC0000001FF8000000000
FFC0000001FF8000000000
FFC0000001FF8000000000
FFC0000001FF8000000000
FFC0000001FF8000000000
FFC0000001FF8000000000
FFC0000001FF8000000000
FFC0000001FF8000000000
FFC0000001FF8000000000
FFC0000001FF8000000000
FFC0000001FF8000000000
FFC0000001FF8000000000
FFC0000001FF8000000000
FFC0000001FF8000000000
FFC0000001FF8000000000
FFFFFFFFFFFFFFFFFFFFFC
FFFFFFFFFFFFFFFFFFFFFC
FFFFFFFFFFFFFFFFFFFFFC
FFFFFFFFFFFFFFFFFFFFFC
7FFFFFFFFFFFFFFFFFFFFC
7FFFFFFFFFFFFFFFFFFFFC
3FFFFFFFFFFFFFFFFFFFFC
1FFFFFFFFFFFFFFFFFFFFC
0FFFFFFFFFFFFFFFFFFFFC
03FFFFFFFFE3FFFFFFFFFC
ENDCHAR
STARTCHAR 0153
ENCODING 339
SWIDTH 1130 0
DWIDTH 95 0
BBX 88 49 3 0
BITMAP
01FFFFFFFFE7FFFFFFFF80
07FFFFFFFFFFFFFFFFFFF0
1FFFFFFFFFFFFFFFFFFFF8
3FFFFFFFFFFFFFFFFFFFFC
3FFFFFFFFFFFFFFFFFFFFE
7FFFFFFFFFFFFFFFFFFFFE
7FFFFFFFFFFFFFFFFFFFFF
FFFFFFFFFFFFFFFFFFFFFF
FFFFFFFFFFFFFFFFFFFFFF
FFFFFFFFFFFFFFFFFFFFFF
FFC0000001FF80000003FF
FFC0000001FF80000003FF
FFC0000001FF80000003FF
FFC0000001FF80000003FF
FFC0000001FF80000003FF
FFC0000001FF80000003FF
FFC0000001FF80000003FF
FFC0000001FF80000003FF
FFC0000001FF80000003FF
FFC0000001FFFFFFFFFFFF
FFC0000001FFFFFFFFFFFF
FFC0000001FFFFFFFFFFFF
FFC0000001FFFFFFFFFFFF
FFC0000001FFFFFFFFFFFE
FFC0000001FFFFFFFFFFFE
FFC0000001FFFFFFFFFFFC
FFC0000001FFFFFFFFFFF8
FFC0000001FFFFFFFFFFF0
FFC0000001FFFFFFFFFFC0
FFC0000001FF8000000000
FFC0000001FF8000000000
FFC0000001FF8000000000
FFC0000001FF8000000000
FFC0000001FF8000000000
FFC0000001FF8000000000
FFC0000001FF8000000000
FFC0000001FF8000000000
FFC0000001FF8000000000
FFC0000001FF8000000000
FFFFFFFFFFFFFFFFFFFFFC
FFFFFFFFFFFFFFFFFFFFFC
FFFFFFFFFFFFFFFFFFFFFC
FFFFFFFFFFFFFFFFFFFFFC
7FFFFFFFFFFFFFFFFFFFFC
7FFFFFFFFFFFFFFFFFFFFC
3FFFFFFFFFFFFFFFFFFFFC
1FFFFFFFFFFFFFFFFFFFFC
0FFFFFFFFFFFFFFFFFFFFC
03FFFFFFFFE3FFFFFFFFFC
ENDCHAR
STARTCHAR 0154
ENCODING 340
SWIDTH 297 0
DWIDTH 25 0
BBX 0 0 0 0
BITMAP
ENDCHAR
STARTCHAR 0155
ENCODING 341
SWIDTH 297 0
DWIDTH 25 0
BBX 0 0 0 0
BITMAP
ENDCHAR
STARTCHAR 0156
ENCODING 342
SWIDTH 297 0
DWIDTH 25 0
BBX 0 0 0 0
BITMAP
ENDCHAR
STARTCHAR 0157
ENCODING 343
SWIDTH 297 0
DWIDTH 25 0
BBX 0 0 0 0
BITMAP
ENDCHAR
STARTCHAR 0158
ENCODING 344
SWIDTH 297 0
DWIDTH 25 0
BBX 0 0 0 0
BITMAP
ENDCHAR
STARTCHAR 0159
ENCODING 345
SWIDTH 297 0
DWIDTH 25 0
BBX 0 0 0 0
BITMAP
ENDCHAR
STARTCHAR 015A
ENCODING 346
SWIDTH 297 0
DWIDTH 25 0
BBX 0 0 0 0
BITMAP
ENDCHAR
STARTCHAR 015B
ENCODING 347
SWIDTH 297 0
DWIDTH 25 0
BBX 0 0 0 0
BITMAP
ENDCHAR
STARTCHAR 015C
ENCODING 348
SWIDTH 297 0
DWIDTH 25 0
BBX 0 0 0 0
BITMAP
ENDCHAR
STARTCHAR 015D
ENCODING 349
SWIDTH 297 0
DWIDTH 25 0
BBX 0 0 0 0
BITMAP
ENDCHAR
STARTCHAR 015E
ENCODING 350
SWIDTH 297 0
DWIDTH 25 0
BBX 0 0 0 0
BITMAP
ENDCHAR
STARTCHAR 015F
ENCODING 351
SWIDTH 297 0
DWIDTH 25 0
BBX 0 0 0 0
BITMAP
ENDCHAR
STARTCHAR 0160
ENCODING 352
SWIDTH 297 0
DWIDTH 25 0
BBX 0 0 0 0
BITMAP
ENDCHAR
STARTCHAR 0161
ENCODING 353
SWIDTH 297 0
DWIDTH 25 0
BBX 0 0 0 0
BITMAP
ENDCHAR
STARTCHAR 0162
ENCODING 354
SWIDTH 297 0
DWIDTH 25 0
BBX 0 0 0 0
BITMAP
ENDCHAR
STARTCHAR 0163
ENCODING 355
SWIDTH 297 0
DWIDTH 25 0
BBX 0 0 0 0
BITMAP
ENDCHAR
STARTCHAR 0164
ENCODING 356
SWIDTH 297 0
DWIDTH 25 0
BBX 0 0 0 0
BITMAP
ENDCHAR
STARTCHAR 0165
ENCODING 357
SWIDTH 297 0
DWIDTH 25 0
BBX 0 0 0 0
BITMAP
ENDCHAR
STARTCHAR 0166
ENCODING 358
SWIDTH 297 0
DWIDTH 25 0
BBX 0 0 0 0
BITMAP
ENDCHAR
STARTCHAR 0167
ENCODING 359
SWIDTH 297 0
DWIDTH 25 0
BBX 0 0 0 0
BITMAP
ENDCHAR
STARTCHAR 0168
ENCODING 360
SWIDTH 297 0
DWIDTH 25 0
BBX 0 0 0 0
BITMAP
ENDCHAR
STARTCHAR 0169
ENCODING 361
SWIDTH 297 0
DWIDTH 25 0
BBX 0 0 0 0
BITMAP
ENDCHAR
STARTCHAR 016A
ENCODING 362
SWIDTH 297 0
DWIDTH 25 0
BBX 0 0 0 0
BITMAP
ENDCHAR
STARTCHAR 016B
ENCODING 363
SWIDTH 297 0
DWIDTH 25 0
BBX 0 0 0 0
BITMAP
ENDCHAR
STARTCHAR 016C
ENCODING 364
SWIDTH 297 0
DWIDTH 25 0
BBX 0 0 0 0
BITMAP
ENDCHAR
STARTCHAR 016D
ENCODING 365
SWIDTH 297 0
DWIDTH 25 0
BBX 0 0 0 0
BITMAP
ENDCHAR
STARTCHAR 016E
ENCODING 366
SWIDTH 297 0
DWIDTH 25 0
BBX 0 0 0 0
BITMAP
ENDCHAR
STARTCHAR 016F
ENCODING 367
SWIDTH 297 0
DWIDTH 25 0
BBX 0 0 0 0
BITMAP
ENDCHAR
STARTCHAR 0170
ENCODING 368
SWIDTH 297 0
DWIDTH 25 0
BBX 0 0 0 0
BITMAP
ENDCHAR
STARTCHAR 0171
ENCODING 369
SWIDTH 297 0
DWIDTH 25 0
BBX 0 0 0 0
BITMAP
ENDCHAR
STARTCHAR 0172
ENCODING 370
SWIDTH 297 0
DWIDTH 25 0
BBX 0 0 0 0
BITMAP
ENDCHAR
STARTCHAR 0173
ENCODING 371
SWIDTH 297 0
DWIDTH 25 0
BBX 0 0 0 0
BITMAP
ENDCHAR
STARTCHAR 0174
ENCODING 372
SWIDTH 297 0
DWIDTH 25 0
BBX 0 0 0 0
BITMAP
ENDCHAR
STARTCHAR 0175
ENCODING 373
SWIDTH 297 0
DWIDTH 25 0
BBX 0 0 0 0
BITMAP
ENDCHAR
STARTCHAR 0176
ENCODING 374
SWIDTH 297 0
DWIDTH 25 0
BBX 0 0 0 0
BITMAP
ENDCHAR
STARTCHAR 0177
ENCODING 375
SWIDTH 297 0
DWIDTH 25 0
BBX 0 0 0 0
BITMAP
ENDCHAR
STARTCHAR 0178
ENCODING 376
SWIDTH 726 0
DWIDTH 61 0
BBX 0 0 0 0
BITMAP
ENDCHAR
STARTCHAR 0179
ENCODING 377
SWIDTH 297 0
DWIDTH 25 0
BBX 0 0 0 0
BITMAP
ENDCHAR
STARTCHAR 017A
ENCODING 378
SWIDTH 297 0
DWIDTH 25 0
BBX 0 0 0 0
BITMAP
ENDCHAR
STARTCHAR 017B
ENCODING 379
SWIDTH 297 0
DWIDTH 25 0
BBX 0 0 0 0
BITMAP
ENDCHAR
STARTCHAR 017C
ENCODING 380
SWIDTH 297 0
DWIDTH 25 0
BBX 0 0 0 0
BITMAP
ENDCHAR
STARTCHAR 017D
ENCODING 381
SWIDTH 297 0
DWIDTH 25 0
BBX 0 0 0 0
BITMAP
ENDCHAR
STARTCHAR 017E
ENCODING 382
SWIDTH 297 0
DWIDTH 25 0
BBX 0 0 0 0
BITMAP
ENDCHAR
STARTCHAR 017F
ENCODING 383
SWIDTH 297 0
DWIDTH 25 0
BBX 0 0 0 0
BITMAP
ENDCHAR
STARTCHAR 0192
ENCODING 402
SWIDTH 297 0
DWIDTH 25 0
BBX 0 0 0 0
BITMAP
ENDCHAR
STARTCHAR 01FA
ENCODING 506
SWIDTH 297 0
DWIDTH 25 0
BBX 0 0 0 0
BITMAP
ENDCHAR
STARTCHAR 01FB
ENCODING 507
SWIDTH 297 0
DWIDTH 25 0
BBX 0 0 0 0
BITMAP
ENDCHAR
STARTCHAR 01FC
ENCODING 508
SWIDTH 297 0
DWIDTH 25 0
BBX 0 0 0 0
BITMAP
ENDCHAR
STARTCHAR 01FD
ENCODING 509
SWIDTH 297 0
DWIDTH 25 0
BBX 0 0 0 0
BITMAP
ENDCHAR
STARTCHAR 01FE
ENCODING 510
SWIDTH 297 0
DWIDTH 25 0
BBX 0 0 0 0
BITMAP
ENDCHAR
STARTCHAR 01FF
ENCODING 511
SWIDTH 297 0
DWIDTH 25 0
BBX 0 0 0 0
BITMAP
ENDCHAR
STARTCHAR 02C6
ENCODING 710
SWIDTH 583 0
DWIDTH 49 0
BBX 22 9 16 54
BITMAP
07FF80
07FFC0
0FFFC0
1FFFE0
1FCFF0
3F87F0
7F83F8
7F03FC
FE01FC
ENDCHAR
STARTCHAR 02C7
ENCODING 711
SWIDTH 297 0
DWIDTH 25 0
BBX 0 0 0 0
BITMAP
ENDCHAR
STARTCHAR 02C9
ENCODING 713
SWIDTH 297 0
DWIDTH 25 0
BBX 0 0 0 0
BITMAP
ENDCHAR
STARTCHAR 02D8
ENCODING 728
SWIDTH 297 0
DWIDTH 25 0
BBX 0 0 0 0
BITMAP
ENDCHAR
STARTCHAR 02D9
ENCODING 729
SWIDTH 297 0
DWIDTH 25 0
BBX 0 0 0 0
BITMAP
ENDCHAR
STARTCHAR 02DA
ENCODING 730
SWIDTH 559 0
DWIDTH 47 0
BBX 16 15 20 51
BITMAP
07C0
1FF0
3FFC
783C
F01E
E00E
E007
E007
E007
E00E
F01E
783C
3FFC
1FF8
07E0
ENDCHAR
STARTCHAR 02DB
ENCODING 731
SWIDTH 297 0
DWIDTH 25 0
BBX 0 0 0 0
BITMAP
ENDCHAR
STARTCHAR 02DC
ENCODING 732
SWIDTH 547 0
DWIDTH 46 0
BBX 25 8 14 55
BITMAP
0FC00080
3FF80180
3FFE0180
7FFFC300
61FFFF00
C03FFE00
C00FFC00
8001F800
ENDCHAR
STARTCHAR 02DD
ENCODING 733
SWIDTH 297 0
DWIDTH 25 0
BBX 0 0 0 0
BITMAP
ENDCHAR
STARTCHAR 0384
ENCODING 900
SWIDTH 297 0
DWIDTH 25 0
BBX 0 0 0 0
BITMAP
ENDCHAR
STARTCHAR 0385
ENCODING 901
SWIDTH 297 0
DWIDTH 25 0
BBX 0 0 0 0
BITMAP
ENDCHAR
STARTCHAR 0386
ENCODING 902
SWIDTH 297 0
DWIDTH 25 0
BBX 0 0 0 0
BITMAP
ENDCHAR
STARTCHAR 0387
ENCODING 903
SWIDTH 297 0
DWIDTH 25 0
BBX 0 0 0 0
BITMAP
ENDCHAR
STARTCHAR 0388
ENCODING 904
SWIDTH 297 0
DWIDTH 25 0
BBX 0 0 0 0
BITMAP
ENDCHAR
STARTCHAR 0389
ENCODING 905
SWIDTH 297 0
DWIDTH 25 0
BBX 0 0 0 0
BITMAP
ENDCHAR
STARTCHAR 038A
ENCODING 906
SWIDTH 297 0
DWIDTH 25 0
BBX 0 0 0 0
BITMAP
ENDCHAR
STARTCHAR 038C
ENCODING 908
SWIDTH 297 0
DWIDTH 25 0
BBX 0 0 0 0
BITMAP
ENDCHAR
STARTCHAR 038E
ENCODING 910
SWIDTH 297 0
DWIDTH 25 0
BBX 0 0 0 0
BITMAP
ENDCHAR
STARTCHAR 038F
ENCODING 911
SWIDTH 297 0
DWIDTH 25 0
BBX 0 0 0 0
BITMAP
ENDCHAR
STARTCHAR 0390
ENCODING 912
SWIDTH 297 0
DWIDTH 25 0
BBX 0 0 0 0
BITMAP
ENDCHAR
STARTCHAR 0391
ENCODING 913
SWIDTH 297 0
DWIDTH 25 0
BBX 0 0 0 0
BITMAP
ENDCHAR
STARTCHAR 0392
ENCODING 914
SWIDTH 297 0
DWIDTH 25 0
BBX 0 0 0 0
BITMAP
ENDCHAR
STARTCHAR 0393
ENCODING 915
SWIDTH 297 0
DWIDTH 25 0
BBX 0 0 0 0
BITMAP
ENDCHAR
STARTCHAR 0394
ENCODING 916
SWIDTH 297 0
DWIDTH 25 0
BBX 0 0 0 0
BITMAP
ENDCHAR
STARTCHAR 0395
ENCODING 917
SWIDTH 297 0
DWIDTH 25 0
BBX 0 0 0 0
BITMAP
ENDCHAR
STARTCHAR 0396
ENCODING 918
SWIDTH 297 0
DWIDTH 25 0
BBX 0 0 0 0
BITMAP
ENDCHAR
STARTCHAR 0397
ENCODING 919
SWIDTH 297 0
DWIDTH 25 0
BBX 0 0 0 0
BITMAP
ENDCHAR
STARTCHAR 0398
ENCODING 920
SWIDTH 297 0
DWIDTH 25 0
BBX 0 0 0 0
BITMAP
ENDCHAR
STARTCHAR 0399
ENCODING 921
SWIDTH 297 0
DWIDTH 25 0
BBX 0 0 0 0
BITMAP
ENDCHAR
STARTCHAR 039A
ENCODING 922
SWIDTH 297 0
DWIDTH 25 0
BBX 0 0 0 0
BITMAP
ENDCHAR
STARTCHAR 039B
ENCODING 923
SWIDTH 297 0
DWIDTH 25 0
BBX 0 0 0 0
BITMAP
ENDCHAR
STARTCHAR 039C
ENCODING 924
SWIDTH 297 0
DWIDTH 25 0
BBX 0 0 0 0
BITMAP
ENDCHAR
STARTCHAR 039D
ENCODING 925
SWIDTH 297 0
DWIDTH 25 0
BBX 0 0 0 0
BITMAP
ENDCHAR
STARTCHAR 039E
ENCODING 926
SWIDTH 297 0
DWIDTH 25 0
BBX 0 0 0 0
BITMAP
ENDCHAR
STARTCHAR 039F
ENCODING 927
SWIDTH 297 0
DWIDTH 25 0
BBX 0 0 0 0
BITMAP
ENDCHAR
STARTCHAR 03A0
ENCODING 928
SWIDTH 297 0
DWIDTH 25 0
BBX 0 0 0 0
BITMAP
ENDCHAR
STARTCHAR 03A1
ENCODING 929
SWIDTH 297 0
DWIDTH 25 0
BBX 0 0 0 0
BITMAP
ENDCHAR
STARTCHAR 03A3
ENCODING 931
SWIDTH 297 0
DWIDTH 25 0
BBX 0 0 0 0
BITMAP
ENDCHAR
STARTCHAR 03A4
ENCODING 932
SWIDTH 297 0
DWIDTH 25 0
BBX 0 0 0 0
BITMAP
ENDCHAR
STARTCHAR 03A5
ENCODING 933
SWIDTH 297 0
DWIDTH 25 0
BBX 0 0 0 0
BITMAP
ENDCHAR
STARTCHAR 03A6
ENCODING 934
SWIDTH 297 0
DWIDTH 25 0
BBX 0 0 0 0
BITMAP
ENDCHAR
STARTCHAR 03A7
ENCODING 935
SWIDTH 297 0
DWIDTH 25 0
BBX 0 0 0 0
BITMAP
ENDCHAR
STARTCHAR 03A8
ENCODING 936
SWIDTH 297 0
DWIDTH 25 0
BBX 0 0 0 0
BITMAP
ENDCHAR
STARTCHAR 03A9
ENCODING 937
SWIDTH 297 0
DWIDTH 25 0
BBX 0 0 0 0
BITMAP
ENDCHAR
STARTCHAR 03AA
ENCODING 938
SWIDTH 297 0
DWIDTH 25 0
BBX 0 0 0 0
BITMAP
ENDCHAR
STARTCHAR 03AB
ENCODING 939
SWIDTH 297 0
DWIDTH 25 0
BBX 0 0 0 0
BITMAP
ENDCHAR
STARTCHAR 03AC
ENCODING 940
SWIDTH 297 0
DWIDTH 25 0
BBX 0 0 0 0
BITMAP
ENDCHAR
STARTCHAR 03AD
ENCODING 941
SWIDTH 297 0
DWIDTH 25 0
BBX 0 0 0 0
BITMAP
ENDCHAR
STARTCHAR 03AE
ENCODING 942
SWIDTH 297 0
DWIDTH 25 0
BBX 0 0 0 0
BITMAP
ENDCHAR
STARTCHAR 03AF
ENCODING 943
SWIDTH 297 0
DWIDTH 25 0
BBX 0 0 0 0
BITMAP
ENDCHAR
STARTCHAR 03B0
ENCODING 944
SWIDTH 297 0
DWIDTH 25 0
BBX 0 0 0 0
BITMAP
ENDCHAR
STARTCHAR 03B1
ENCODING 945
SWIDTH 297 0
DWIDTH 25 0
BBX 0 0 0 0
BITMAP
ENDCHAR
STARTCHAR 03B2
ENCODING 946
SWIDTH 297 0
DWIDTH 25 0
BBX 0 0 0 0
BITMAP
ENDCHAR
STARTCHAR 03B3
ENCODING 947
SWIDTH 297 0
DWIDTH 25 0
BBX 0 0 0 0
BITMAP
ENDCHAR
STARTCHAR 03B4
ENCODING 948
SWIDTH 297 0
DWIDTH 25 0
BBX 0 0 0 0
BITMAP
ENDCHAR
STARTCHAR 03B5
ENCODING 949
SWIDTH 297 0
DWIDTH 25 0
BBX 0 0 0 0
BITMAP
ENDCHAR
STARTCHAR 03B6
ENCODING 950
SWIDTH 297 0
DWIDTH 25 0
BBX 0 0 0 0
BITMAP
ENDCHAR
STARTCHAR 03B7
ENCODING 951
SWIDTH 297 0
DWIDTH 25 0
BBX 0 0 0 0
BITMAP
ENDCHAR
STARTCHAR 03B8
ENCODING 952
SWIDTH 297 0
DWIDTH 25 0
BBX 0 0 0 0
BITMAP
ENDCHAR
STARTCHAR 03B9
ENCODING 953
SWIDTH 297 0
DWIDTH 25 0
BBX 0 0 0 0
BITMAP
ENDCHAR
STARTCHAR 03BA
ENCODING 954
SWIDTH 297 0
DWIDTH 25 0
BBX 0 0 0 0
BITMAP
ENDCHAR
STARTCHAR 03BB
ENCODING 955
SWIDTH 297 0
DWIDTH 25 0
BBX 0 0 0 0
BITMAP
ENDCHAR
STARTCHAR 03BC
ENCODING 956
SWIDTH 297 0
DWIDTH 25 0
BBX 0 0 0 0
BITMAP
ENDCHAR
STARTCHAR 03BD
ENCODING 957
SWIDTH 297 0
DWIDTH 25 0
BBX 0 0 0 0
BITMAP
ENDCHAR
STARTCHAR 03BE
ENCODING 958
SWIDTH 297 0
DWIDTH 25 0
BBX 0 0 0 0
BITMAP
ENDCHAR
STARTCHAR 03BF
ENCODING 959
SWIDTH 297 0
DWIDTH 25 0
BBX 0 0 0 0
BITMAP
ENDCHAR
STARTCHAR 03C0
ENCODING 960
SWIDTH 297 0
DWIDTH 25 0
BBX 0 0 0 0
BITMAP
ENDCHAR
STARTCHAR 03C1
ENCODING 961
SWIDTH 297 0
DWIDTH 25 0
BBX 0 0 0 0
BITMAP
ENDCHAR
STARTCHAR 03C2
ENCODING 962
SWIDTH 297 0
DWIDTH 25 0
BBX 0 0 0 0
BITMAP
ENDCHAR
STARTCHAR 03C3
ENCODING 963
SWIDTH 297 0
DWIDTH 25 0
BBX 0 0 0 0
BITMAP
ENDCHAR
STARTCHAR 03C4
ENCODING 964
SWIDTH 297 0
DWIDTH 25 0
BBX 0 0 0 0
BITMAP
ENDCHAR
STARTCHAR 03C5
ENCODING 965
SWIDTH 297 0
DWIDTH 25 0
BBX 0 0 0 0
BITMAP
ENDCHAR
STARTCHAR 03C6
ENCODING 966
SWIDTH 297 0
DWIDTH 25 0
BBX 0 0 0 0
BITMAP
ENDCHAR
STARTCHAR 03C7
ENCODING 967
SWIDTH 297 0
DWIDTH 25 0
BBX 0 0 0 0
BITMAP
ENDCHAR
STARTCHAR 03C8
ENCODING 968
SWIDTH 297 0
DWIDTH 25 0
BBX 0 0 0 0
BITMAP
ENDCHAR
STARTCHAR 03C9
ENCODING 969
SWIDTH 297 0
DWIDTH 25 0
BBX 0 0 0 0
BITMAP
ENDCHAR
STARTCHAR 03CA
ENCODING 970
SWIDTH 297 0
DWIDTH 25 0
BBX 0 0 0 0
BITMAP
ENDCHAR
STARTCHAR 03CB
ENCODING 971
SWIDTH 297 0
DWIDTH 25 0
BBX 0 0 0 0
BITMAP
ENDCHAR
STARTCHAR 03CC
ENCODING 972
SWIDTH 297 0
DWIDTH 25 0
BBX 0 0 0 0
BITMAP
ENDCHAR
STARTCHAR 03CD
ENCODING 973
SWIDTH 297 0
DWIDTH 25 0
BBX 0 0 0 0
BITMAP
ENDCHAR
STARTCHAR 03CE
ENCODING 974
SWIDTH 297 0
DWIDTH 25 0
BBX 0 0 0 0
BITMAP
ENDCHAR
STARTCHAR 0401
ENCODING 1025
SWIDTH 297 0
DWIDTH 25 0
BBX 0 0 0 0
BITMAP
ENDCHAR
STARTCHAR 0402
ENCODING 1026
SWIDTH 297 0
DWIDTH 25 0
BBX 0 0 0 0
BITMAP
ENDCHAR
STARTCHAR 0403
ENCODING 1027
SWIDTH 297 0
DWIDTH 25 0
BBX 0 0 0 0
BITMAP
ENDCHAR
STARTCHAR 0404
ENCODING 1028
SWIDTH 297 0
DWIDTH 25 0
BBX 0 0 0 0
BITMAP
ENDCHAR
STARTCHAR 0405
ENCODING 1029
SWIDTH 297 0
DWIDTH 25 0
BBX 0 0 0 0
BITMAP
ENDCHAR
STARTCHAR 0406
ENCODING 1030
SWIDTH 297 0
DWIDTH 25 0
BBX 0 0 0 0
BITMAP
ENDCHAR
STARTCHAR 0407
ENCODING 1031
SWIDTH 297 0
DWIDTH 25 0
BBX 0 0 0 0
BITMAP
ENDCHAR
STARTCHAR 0408
ENCODING 1032
SWIDTH 297 0
DWIDTH 25 0
BBX 0 0 0 0
BITMAP
ENDCHAR
STARTCHAR 0409
ENCODING 1033
SWIDTH 297 0
DWIDTH 25 0
BBX 0 0 0 0
BITMAP
ENDCHAR
STARTCHAR 040A
ENCODING 1034
SWIDTH 297 0
DWIDTH 25 0
BBX 0 0 0 0
BITMAP
ENDCHAR
STARTCHAR 040B
ENCODING 1035
SWIDTH 297 0
DWIDTH 25 0
BBX 0 0 0 0
BITMAP
ENDCHAR
STARTCHAR 040C
ENCODING 1036
SWIDTH 297 0
DWIDTH 25 0
BBX 0 0 0 0
BITMAP
ENDCHAR
STARTCHAR 040E
ENCODING 1038
SWIDTH 297 0
DWIDTH 25 0
BBX 0 0 0 0
BITMAP
ENDCHAR
STARTCHAR 040F
ENCODING 1039
SWIDTH 297 0
DWIDTH 25 0
BBX 0 0 0 0
BITMAP
ENDCHAR
STARTCHAR 0410
ENCODING 1040
SWIDTH 297 0
DWIDTH 25 0
BBX 0 0 0 0
BITMAP
ENDCHAR
STARTCHAR 0411
ENCODING 1041
SWIDTH 297 0
DWIDTH 25 0
BBX 0 0 0 0
BITMAP
ENDCHAR
STARTCHAR 0412
ENCODING 1042
SWIDTH 297 0
DWIDTH 25 0
BBX 0 0 0 0
BITMAP
ENDCHAR
STARTCHAR 0413
ENCODING 1043
SWIDTH 297 0
DWIDTH 25 0
BBX 0 0 0 0
BITMAP
ENDCHAR
STARTCHAR 0414
ENCODING 1044
SWIDTH 297 0
DWIDTH 25 0
BBX 0 0 0 0
BITMAP
ENDCHAR
STARTCHAR 0415
ENCODING 1045
SWIDTH 297 0
DWIDTH 25 0
BBX 0 0 0 0
BITMAP
ENDCHAR
STARTCHAR 0416
ENCODING 1046
SWIDTH 297 0
DWIDTH 25 0
BBX 0 0 0 0
BITMAP
ENDCHAR
STARTCHAR 0417
ENCODING 1047
SWIDTH 297 0
DWIDTH 25 0
BBX 0 0 0 0
BITMAP
ENDCHAR
STARTCHAR 0418
ENCODING 1048
SWIDTH 297 0
DWIDTH 25 0
BBX 0 0 0 0
BITMAP
ENDCHAR
STARTCHAR 0419
ENCODING 1049
SWIDTH 297 0
DWIDTH 25 0
BBX 0 0 0 0
BITMAP
ENDCHAR
STARTCHAR 041A
ENCODING 1050
SWIDTH 297 0
DWIDTH 25 0
BBX 0 0 0 0
BITMAP
ENDCHAR
STARTCHAR 041B
ENCODING 1051
SWIDTH 297 0
DWIDTH 25 0
BBX 0 0 0 0
BITMAP
ENDCHAR
STARTCHAR 041C
ENCODING 1052
SWIDTH 297 0
DWIDTH 25 0
BBX 0 0 0 0
BITMAP
ENDCHAR
STARTCHAR 041D
ENCODING 1053
SWIDTH 297 0
DWIDTH 25 0
BBX 0 0 0 0
BITMAP
ENDCHAR
STARTCHAR 041E
ENCODING 1054
SWIDTH 297 0
DWIDTH 25 0
BBX 0 0 0 0
BITMAP
ENDCHAR
STARTCHAR 041F
ENCODING 1055
SWIDTH 297 0
DWIDTH 25 0
BBX 0 0 0 0
BITMAP
ENDCHAR
STARTCHAR 0420
ENCODING 1056
SWIDTH 297 0
DWIDTH 25 0
BBX 0 0 0 0
BITMAP
ENDCHAR
STARTCHAR 0421
ENCODING 1057
SWIDTH 297 0
DWIDTH 25 0
BBX 0 0 0 0
BITMAP
ENDCHAR
STARTCHAR 0422
ENCODING 1058
SWIDTH 297 0
DWIDTH 25 0
BBX 0 0 0 0
BITMAP
ENDCHAR
STARTCHAR 0423
ENCODING 1059
SWIDTH 297 0
DWIDTH 25 0
BBX 0 0 0 0
BITMAP
ENDCHAR
STARTCHAR 0424
ENCODING 1060
SWIDTH 297 0
DWIDTH 25 0
BBX 0 0 0 0
BITMAP
ENDCHAR
STARTCHAR 0425
ENCODING 1061
SWIDTH 297 0
DWIDTH 25 0
BBX 0 0 0 0
BITMAP
ENDCHAR
STARTCHAR 0426
ENCODING 1062
SWIDTH 297 0
DWIDTH 25 0
BBX 0 0 0 0
BITMAP
ENDCHAR
STARTCHAR 0427
ENCODING 1063
SWIDTH 297 0
DWIDTH 25 0
BBX 0 0 0 0
BITMAP
ENDCHAR
STARTCHAR 0428
ENCODING 1064
SWIDTH 297 0
DWIDTH 25 0
BBX 0 0 0 0
BITMAP
ENDCHAR
STARTCHAR 0429
ENCODING 1065
SWIDTH 297 0
DWIDTH 25 0
BBX 0 0 0 0
BITMAP
ENDCHAR
STARTCHAR 042A
ENCODING 1066
SWIDTH 297 0
DWIDTH 25 0
BBX 0 0 0 0
BITMAP
ENDCHAR
STARTCHAR 042B
ENCODING 1067
SWIDTH 297 0
DWIDTH 25 0
BBX 0 0 0 0
BITMAP
ENDCHAR
STARTCHAR 042C
ENCODING 1068
SWIDTH 297 0
DWIDTH 25 0
BBX 0 0 0 0
BITMAP
ENDCHAR
STARTCHAR 042D
ENCODING 1069
SWIDTH 297 0
DWIDTH 25 0
BBX 0 0 0 0
BITMAP
ENDCHAR
STARTCHAR 042E
ENCODING 1070
SWIDTH 297 0
DWIDTH 25 0
BBX 0 0 0 0
BITMAP
ENDCHAR
STARTCHAR 042F
ENCODING 1071
SWIDTH 297 0
DWIDTH 25 0
BBX 0 0 0 0
BITMAP
ENDCHAR
STARTCHAR 0430
ENCODING 1072
SWIDTH 297 0
DWIDTH 25 0
BBX 0 0 0 0
BITMAP
ENDCHAR
STARTCHAR 0431
ENCODING 1073
SWIDTH 297 0
DWIDTH 25 0
BBX 0 0 0 0
BITMAP
ENDCHAR
STARTCHAR 0432
ENCODING 1074
SWIDTH 297 0
DWIDTH 25 0
BBX 0 0 0 0
BITMAP
ENDCHAR
STARTCHAR 0433
ENCODING 1075
SWIDTH 297 0
DWIDTH 25 0
BBX 0 0 0 0
BITMAP
ENDCHAR
STARTCHAR 0434
ENCODING 1076
SWIDTH 297 0
DWIDTH 25 0
BBX 0 0 0 0
BITMAP
ENDCHAR
STARTCHAR 0435
ENCODING 1077
SWIDTH 297 0
DWIDTH 25 0
BBX 0 0 0 0
BITMAP
ENDCHAR
STARTCHAR 0436
ENCODING 1078
SWIDTH 297 0
DWIDTH 25 0
BBX 0 0 0 0
BITMAP
ENDCHAR
STARTCHAR 0437
ENCODING 1079
SWIDTH 297 0
DWIDTH 25 0
BBX 0 0 0 0
BITMAP
ENDCHAR
STARTCHAR 0438
ENCODING 1080
SWIDTH 297 0
DWIDTH 25 0
BBX 0 0 0 0
BITMAP
ENDCHAR
STARTCHAR 0439
ENCODING 1081
SWIDTH 297 0
DWIDTH 25 0
BBX 0 0 0 0
BITMAP
ENDCHAR
STARTCHAR 043A
ENCODING 1082
SWIDTH 297 0
DWIDTH 25 0
BBX 0 0 0 0
BITMAP
ENDCHAR
STARTCHAR 043B
ENCODING 1083
SWIDTH 297 0
DWIDTH 25 0
BBX 0 0 0 0
BITMAP
ENDCHAR
STARTCHAR 043C
ENCODING 1084
SWIDTH 297 0
DWIDTH 25 0
BBX 0 0 0 0
BITMAP
ENDCHAR
STARTCHAR 043D
ENCODING 1085
SWIDTH 297 0
DWIDTH 25 0
BBX 0 0 0 0
BITMAP
ENDCHAR
STARTCHAR 043E
ENCODING 1086
SWIDTH 297 0
DWIDTH 25 0
BBX 0 0 0 0
BITMAP
ENDCHAR
STARTCHAR 043F
ENCODING 1087
SWIDTH 297 0
DWIDTH 25 0
BBX 0 0 0 0
BITMAP
ENDCHAR
STARTCHAR 0440
ENCODING 1088
SWIDTH 297 0
DWIDTH 25 0
BBX 0 0 0 0
BITMAP
ENDCHAR
STARTCHAR 0441
ENCODING 1089
SWIDTH 297 0
DWIDTH 25 0
BBX 0 0 0 0
BITMAP
ENDCHAR
STARTCHAR 0442
ENCODING 1090
SWIDTH 297 0
DWIDTH 25 0
BBX 0 0 0 0
BITMAP
ENDCHAR
STARTCHAR 0443
ENCODING 1091
SWIDTH 297 0
DWIDTH 25 0
BBX 0 0 0 0
BITMAP
ENDCHAR
STARTCHAR 0444
ENCODING 1092
SWIDTH 297 0
DWIDTH 25 0
BBX 0 0 0 0
BITMAP
ENDCHAR
STARTCHAR 0445
ENCODING 1093
SWIDTH 297 0
DWIDTH 25 0
BBX 0 0 0 0
BITMAP
ENDCHAR
STARTCHAR 0446
ENCODING 1094
SWIDTH 297 0
DWIDTH 25 0
BBX 0 0 0 0
BITMAP
ENDCHAR
STARTCHAR 0447
ENCODING 1095
SWIDTH 297 0
DWIDTH 25 0
BBX 0 0 0 0
BITMAP
ENDCHAR
STARTCHAR 0448
ENCODING 1096
SWIDTH 297 0
DWIDTH 25 0
BBX 0 0 0 0
BITMAP
ENDCHAR
STARTCHAR 0449
ENCODING 1097
SWIDTH 297 0
DWIDTH 25 0
BBX 0 0 0 0
BITMAP
ENDCHAR
STARTCHAR 044A
ENCODING 1098
SWIDTH 297 0
DWIDTH 25 0
BBX 0 0 0 0
BITMAP
ENDCHAR
STARTCHAR 044B
ENCODING 1099
SWIDTH 297 0
DWIDTH 25 0
BBX 0 0 0 0
BITMAP
ENDCHAR
STARTCHAR 044C
ENCODING 1100
SWIDTH 297 0
DWIDTH 25 0
BBX 0 0 0 0
BITMAP
ENDCHAR
STARTCHAR 044D
ENCODING 1101
SWIDTH 297 0
DWIDTH 25 0
BBX 0 0 0 0
BITMAP
ENDCHAR
STARTCHAR 044E
ENCODING 1102
SWIDTH 297 0
DWIDTH 25 0
BBX 0 0 0 0
BITMAP
ENDCHAR
STARTCHAR 044F
ENCODING 1103
SWIDTH 297 0
DWIDTH 25 0
BBX 0 0 0 0
BITMAP
ENDCHAR
STARTCHAR 0451
ENCODING 1105
SWIDTH 297 0
DWIDTH 25 0
BBX 0 0 0 0
BITMAP
ENDCHAR
STARTCHAR 0452
ENCODING 1106
SWIDTH 297 0
DWIDTH 25 0
BBX 0 0 0 0
BITMAP
ENDCHAR
STARTCHAR 0453
ENCODING 1107
SWIDTH 297 0
DWIDTH 25 0
BBX 0 0 0 0
BITMAP
ENDCHAR
STARTCHAR 0454
ENCODING 1108
SWIDTH 297 0
DWIDTH 25 0
BBX 0 0 0 0
BITMAP
ENDCHAR
STARTCHAR 0455
ENCODING 1109
SWIDTH 297 0
DWIDTH 25 0
BBX 0 0 0 0
BITMAP
ENDCHAR
STARTCHAR 0456
ENCODING 1110
SWIDTH 297 0
DWIDTH 25 0
BBX 0 0 0 0
BITMAP
ENDCHAR
STARTCHAR 0457
ENCODING 1111
SWIDTH 297 0
DWIDTH 25 0
BBX 0 0 0 0
BITMAP
ENDCHAR
STARTCHAR 0458
ENCODING 1112
SWIDTH 297 0
DWIDTH 25 0
BBX 0 0 0 0
BITMAP
ENDCHAR
STARTCHAR 0459
ENCODING 1113
SWIDTH 297 0
DWIDTH 25 0
BBX 0 0 0 0
BITMAP
ENDCHAR
STARTCHAR 045A
ENCODING 1114
SWIDTH 297 0
DWIDTH 25 0
BBX 0 0 0 0
BITMAP
ENDCHAR
STARTCHAR 045B
ENCODING 1115
SWIDTH 297 0
DWIDTH 25 0
BBX 0 0 0 0
BITMAP
ENDCHAR
STARTCHAR 045C
ENCODING 1116
SWIDTH 297 0
DWIDTH 25 0
BBX 0 0 0 0
BITMAP
ENDCHAR
STARTCHAR 045E
ENCODING 1118
SWIDTH 297 0
DWIDTH 25 0
BBX 0 0 0 0
BITMAP
ENDCHAR
STARTCHAR 045F
ENCODING 1119
SWIDTH 297 0
DWIDTH 25 0
BBX 0 0 0 0
BITMAP
ENDCHAR
STARTCHAR 0470
ENCODING 1136
SWIDTH 297 0
DWIDTH 25 0
BBX 0 0 0 0
BITMAP
ENDCHAR
STARTCHAR 0471
ENCODING 1137
SWIDTH 297 0
DWIDTH 25 0
BBX 0 0 0 0
BITMAP
ENDCHAR
STARTCHAR 0472
ENCODING 1138
SWIDTH 297 0
DWIDTH 25 0
BBX 0 0 0 0
BITMAP
ENDCHAR
STARTCHAR 0473
ENCODING 1139
SWIDTH 297 0
DWIDTH 25 0
BBX 0 0 0 0
BITMAP
ENDCHAR
STARTCHAR 0490
ENCODING 1168
SWIDTH 297 0
DWIDTH 25 0
BBX 0 0 0 0
BITMAP
ENDCHAR
STARTCHAR 0491
ENCODING 1169
SWIDTH 297 0
DWIDTH 25 0
BBX 0 0 0 0
BITMAP
ENDCHAR
STARTCHAR 1E80
ENCODING 7808
SWIDTH 297 0
DWIDTH 25 0
BBX 0 0 0 0
BITMAP
ENDCHAR
STARTCHAR 1E81
ENCODING 7809
SWIDTH 297 0
DWIDTH 25 0
BBX 0 0 0 0
BITMAP
ENDCHAR
STARTCHAR 1E82
ENCODING 7810
SWIDTH 297 0
DWIDTH 25 0
BBX 0 0 0 0
BITMAP
ENDCHAR
STARTCHAR 1E83
ENCODING 7811
SWIDTH 297 0
DWIDTH 25 0
BBX 0 0 0 0
BITMAP
ENDCHAR
STARTCHAR 1E84
ENCODING 7812
SWIDTH 297 0
DWIDTH 25 0
BBX 0 0 0 0
BITMAP
ENDCHAR
STARTCHAR 1E85
ENCODING 7813
SWIDTH 297 0
DWIDTH 25 0
BBX 0 0 0 0
BITMAP
ENDCHAR
STARTCHAR 1EF2
ENCODING 7922
SWIDTH 297 0
DWIDTH 25 0
BBX 0 0 0 0
BITMAP
ENDCHAR
STARTCHAR 1EF3
ENCODING 7923
SWIDTH 297 0
DWIDTH 25 0
BBX 0 0 0 0
BITMAP
ENDCHAR
STARTCHAR 2010
ENCODING 8208
SWIDTH 404 0
DWIDTH 34 0
BBX 29 10 3 29
BITMAP
FFFFFFF8
FFFFFFF8
FFFFFFF8
FFFFFFF8
FFFFFFF8
FFFFFFF8
FFFFFFF8
FFFFFFF8
FFFFFFF8
FFFFFFF8
ENDCHAR
STARTCHAR 2013
ENCODING 8211
SWIDTH 380 0
DWIDTH 32 0
BBX 18 10 3 29
BITMAP
FFFFC0
FFFFC0
FFFFC0
FFFFC0
FFFFC0
FFFFC0
FFFFC0
FFFFC0
FFFFC0
FFFFC0
ENDCHAR
STARTCHAR 2014
ENCODING 8212
SWIDTH 583 0
DWIDTH 49 0
BBX 29 10 3 29
BITMAP
FFFFFFF8
FFFFFFF8
FFFFFFF8
FFFFFFF8
FFFFFFF8
FFFFFFF8
FFFFFFF8
FFFFFFF8
FFFFFFF8
FFFFFFF8
ENDCHAR
STARTCHAR 2015
ENCODING 8213
SWIDTH 750 0
DWIDTH 63 0
BBX 40 10 3 29
BITMAP
FFFFFFFFFF
FFFFFFFFFF
FFFFFFFFFF
FFFFFFFFFF
FFFFFFFFFF
FFFFFFFFFF
FFFFFFFFFF
FFFFFFFFFF
FFFFFFFFFF
FFFFFFFFFF
ENDCHAR
STARTCHAR 2017
ENCODING 8215
SWIDTH 297 0
DWIDTH 25 0
BBX 0 0 0 0
BITMAP
ENDCHAR
STARTCHAR 2018
ENCODING 8216
SWIDTH 202 0
DWIDTH 17 0
BBX 14 19 1 47
BITMAP
0FC0
3FE0
7FF0
7FF8
7FFC
FFFC
FFFC
FFFC
FFFC
7FF8
7FF8
7FF0
3FC0
1F80
0FC0
07E0
03F0
00F8
0030
ENDCHAR
STARTCHAR 2019
ENCODING 8217
SWIDTH 202 0
DWIDTH 17 0
BBX 14 19 2 47
BITMAP
0FC0
3FE0
7FF0
FFF8
FFF8
FFF8
FFFC
FFFC
FFF8
FFF8
FFF8
7FF0
3FF0
07E0
0FC0
1F80
3E00
7800
2000
ENDCHAR
STARTCHAR 201A
ENCODING 8218
SWIDTH 297 0
DWIDTH 25 0
BBX 0 0 0 0
BITMAP
ENDCHAR
STARTCHAR 201B
ENCODING 8219
SWIDTH 297 0
DWIDTH 25 0
BBX 0 0 0 0
BITMAP
ENDCHAR
STARTCHAR 201C
ENCODING 8220
SWIDTH 369 0
DWIDTH 31 0
BBX 29 19 1 47
BITMAP
0FC01F80
3FF07FC0
7FF8FFE0
7FF8FFF0
7FFDFFF8
FFFDFFF8
FFFDFFF8
FFFDFFF8
FFFDFFF8
7FFCFFF0
7FF8FFF0
7FF0FFE0
3FC07F80
1F803F00
0FC03F80
07E00FC0
03F007E0
00F801F0
00300060
ENDCHAR
STARTCHAR 201D
ENCODING 8221
SWIDTH 380 0
DWIDTH 32 0
BBX 29 19 2 47
BITMAP
0FC01F80
3FE07FC0
7FF0FFE0
FFF9FFF0
FFF9FFF0
FFF9FFF0
FFFDFFF8
FFFDFFF8
FFF9FFF0
FFF9FFF0
FFF9FFF0
7FF0FFE0
3FF07FE0
07E01FC0
0FC01F80
1F803F00
3E007C00
7800F000
20004000
ENDCHAR
STARTCHAR 201E
ENCODING 8222
SWIDTH 297 0
DWIDTH 25 0
BBX 0 0 0 0
BITMAP
ENDCHAR
STARTCHAR 2020
ENCODING 8224
SWIDTH 297 0
DWIDTH 25 0
BBX 0 0 0 0
BITMAP
ENDCHAR
STARTCHAR 2021
ENCODING 8225
SWIDTH 297 0
DWIDTH 25 0
BBX 0 0 0 0
BITMAP
ENDCHAR
STARTCHAR 2022
ENCODING 8226
SWIDTH 476 0
DWIDTH 40 0
BBX 37 39 1 10
BITMAP
FFFFFFFFF8
FFFFFFFFF8
FFFFFFFFF8
FFFFFFFFF8
FFFFFFFFF8
FFFFFFFFF8
FFFFFFFFF8
FFFFFFFFF8
FFFFFFFFF8
FFFFFFFFF8
FFFFFFFFF8
FFFFFFFFF8
FFFFFFFFF8
FFFFFFFFF8
FFFFFFFFF8
FFFFFFFFF8
FFFFFFFFF8
FFFFFFFFF8
FFFFFFFFF8
FFFFFFFFF8
FFFFFFFFF8
FFFFFFFFF8
FFFFFFFFF8
FFFFFFFFF8
FFFFFFFFF8
FFFFFFFFF8
FFFFFFFFF8
FFFFFFFFF8
FFFFFFFFF8
FFFFFFFFF8
FFFFFFFFF8
FFFFFFFFF8
FFFFFFFFF8
FFFFFFFFF8
FFFFFFFFF8
FFFFFFFFF8
FFFFFFFFF8
FFFFFFFFF8
FFFFFFFFF8
ENDCHAR
STARTCHAR 2026
ENCODING 8230
SWIDTH 523 0
DWIDTH 44 0
BBX 41 14 2 -2
BITMAP
0F803E00F800
1FE07F81FE00
3FF0FFC3FF00
7FF1FFC7FF00
7FF9FFE7FF80
FFFBFFEFFF80
FFFBFFEFFF80
FFFBFFEFFF80
FFFBFFEFFF80
7FF9FFE7FF80
7FF1FFC7FF00
3FF0FFC3FF00
1FE07F81FE00
0F803E00F800
ENDCHAR
STARTCHAR 2126
ENCODING 8486
SWIDTH 297 0
DWIDTH 25 0
BBX 0 0 0 0
BITMAP
ENDCHAR
STARTCHAR 2206
ENCODING 8710
SWIDTH 297 0
DWIDTH 25 0
BBX 0 0 0 0
BITMAP
ENDCHAR
STARTCHAR 2219
ENCODING 8729
SWIDTH 297 0
DWIDTH 25 0
BBX 0 0 0 0
BITMAP
ENDCHAR
ENDFONT
